<?xml version="1.0" encoding="utf-8" ?>
<svg baseProfile="full" height="200mm" version="1.1" viewBox="0,0,200,200" width="200mm" xmlns="http://www.w3.org/2000/svg" xmlns:ev="http://www.w3.org/2001/xml-events" xmlns:xlink="http://www.w3.org/1999/xlink"><defs /><rect fill="#1a1a1a" height="200" width="200" x="0" y="0" /><text alignment-baseline="middle" fill="#e1ed5e" style="dominant-baseline: central; font-size:9.0px; font-family:Arial;" text-anchor="middle" x="100.0" y="100.0">2023</text><line stroke="#e1ed5e" stroke-width="0.3" x1="100.0" x2="100.0" y1="15.0" y2="10.0" /><path d="M 100.0 14.0 a86.0,86.0 0 0,1 42.46469731375804,11.215312516191453" fill="none" id="id37" stroke="none" /><text fill="#e1ed5e" style="font-size:6.75px; font-family:Arial;" text-anchor="middle"><textPath startOffset="22.20632615414155" xlink:href="#id37">January</textPath></text><path d="M 100.0 79.0 l 0.0 -52.57504986702128 a73.57504986702128,73.57504986702128 0 0,0 1.2664735375443346,0.010900937577609635 l -0.9049930582718062 52.567260306052226" fill="#34ff58" stroke="none" /><path d="M 100.72285384407766 79.0124445844662 l 1.8073568973636234 -52.475342491214604 a73.50645777925531,73.50645777925531 0 0,0 1.2641681478840283,0.05443773969622427 l -2.710365877636983 52.43645702499418" fill="#33ff56" stroke="none" /><path d="M 101.08401301168833 79.027996857942 l 2.713501154632226 -52.49711408195428 a73.56719581117022,73.56719581117022 0 0,0 1.2640874385294165,0.07625320636515068 l -3.6167506420012545 52.44262760620882" fill="#34ff58" stroke="none" /><path d="M 101.80526077348638 79.07773832637324 l 4.512986891590704 -52.30374141080885 a73.49808011968085,73.49808011968085 0 0,0 1.2595291543895808,0.11960746986999515 l -5.412641173070529 52.21830839642367" fill="#33ff56" stroke="none" /><path d="M 102.16513564639614 79.11191278185805 l 5.415880239030895 -52.249557197115706 a73.5294963430851,73.5294963430851 0 0,0 1.2578211124093364,0.14133085769883685 l -6.314468054949956 52.148590385946264" fill="#33ff57" stroke="none" /><path d="M 103.2404852339499 79.25152402106235 l 8.09194839969791 -51.811869171606475 a73.43996010638298,73.43996010638298 0 0,0 1.2473280415368073,0.2058198143726437 l -8.982605647373592 51.6649030942942" fill="#33ff55" stroke="none" /><path d="M 104.66035177308747 79.52364482259891 l 9.354013906255197 -41.09906728176831 a63.150099734042556,63.150099734042556 0 0,0 1.0578432977328769,0.25035733102718505 l -10.060080890950598 40.93196403860026" fill="#e7ff1a" stroke="none" /><path d="M 105.01212808612495 79.60689891045804 l 15.036384258374856 -61.17930326862588 a84.0,84.0 0 0,0 1.4011644452598997,0.3571880153245286 l -16.08725759231978 60.91141225713248" fill="#4dd2ff" stroke="none" /><path d="M 105.71112130821622 79.79150937346287 l 14.268167651976974 -50.48713145665872 a73.46456948138297,73.46456948138297 0 0,0 1.2139487743227078,0.35438493589200526 l -15.135106644023109 50.23404819184801" fill="#33ff55" stroke="none" /><path d="M 108.09893153111575 80.62456947434976 l 12.12658833876071 -29.010971258137005 a52.44345079787234,52.44345079787234 0 0,0 0.8298957379836871,0.35531804451340143 l -12.624167834534711 28.797933685660812" fill="#ff0000" stroke="none" /><path d="M 108.43124777332544 80.76684994638697 l 21.120443848665044 -48.179424524261805 a73.60541888297871,73.60541888297871 0 0,0 1.1560182535880614,0.5186716932616885 l -21.946644220719886 47.808732500483586" fill="#34ff59" stroke="none" /><path d="M 109.08828744355905 81.06846463323043 l 25.325141406885642 -52.75403239503408 a79.51795212765958,79.51795212765958 0 0,0 1.228850488281643,0.6029915977607261 l -26.229463162177716 52.31028563713852" fill="#42ffd7" stroke="none" /><line stroke="#e1ed5e" stroke-width="0.3" x1="143.23703022742887" x2="145.7803849466894" y1="26.81831364943548" y2="22.513508569990506" /><path d="M 143.74570117128098 25.957352633546492 a86.0,86.0 0 0,1 28.547481713284135,27.462654790039103" fill="none" id="id38" stroke="none" /><text fill="#e1ed5e" style="font-size:6.75px; font-family:Arial;" text-anchor="middle"><textPath startOffset="19.985693538727396" xlink:href="#id38">February</textPath></text><line stroke="#e1ed5e" stroke-width="0.3" x1="172.23445277983987" x2="176.4835382374775" y1="55.19839476539836" y2="52.563006222186495" /><path d="M 173.08426987136738 54.67131705675599 a86.0,86.0 0 0,1 12.851231095245387,41.99856678651699" fill="none" id="id39" stroke="none" /><text fill="#e1ed5e" style="font-size:6.75px; font-family:Arial;" text-anchor="middle"><textPath startOffset="22.20632615414155" xlink:href="#id39">March</textPath></text><line stroke="#e1ed5e" stroke-width="0.3" x1="184.98032266829074" x2="189.97916517819016" y1="98.17113171792111" y2="98.06355123074" /><path d="M 185.9800911702706 98.14961562048488 a86.0,86.0 0 0,1 -9.607161424134198,41.387399972396054" fill="none" id="id40" stroke="none" /><text fill="#e1ed5e" style="font-size:6.75px; font-family:Arial;" text-anchor="middle"><textPath startOffset="21.466115282336823" xlink:href="#id40">April</textPath></text><line stroke="#e1ed5e" stroke-width="0.3" x1="174.80103733775053" x2="179.2010983576182" y1="140.37084112569926" y2="142.7455964860345" /><path d="M 175.68104954172406 140.8457921977663 a86.0,86.0 0 0,1 -30.038265399797805,32.042727171017184" fill="none" id="id41" stroke="none" /><text fill="#e1ed5e" style="font-size:6.75px; font-family:Arial;" text-anchor="middle"><textPath startOffset="22.206326154141568" xlink:href="#id41">May</textPath></text><line stroke="#e1ed5e" stroke-width="0.3" x1="143.8653032363475" x2="146.44561519142675" y1="172.8068346515853" y2="177.08958963109032" /><path d="M 144.38136562736335 173.6633856474863 a86.0,86.0 0 0,1 -40.68145358897372,12.25698825130547" fill="none" id="id42" stroke="none" /><text fill="#e1ed5e" style="font-size:6.75px; font-family:Arial;" text-anchor="middle"><textPath startOffset="21.466115282336833" xlink:href="#id42">June</textPath></text><line stroke="#e1ed5e" stroke-width="0.3" x1="102.19456741930631" x2="102.32365962044197" y1="184.97166512339345" y2="189.96999836594603" /><path d="M 102.22038585953345 185.97133177190398 a86.0,86.0 0 0,1 -42.740103519485714,-10.115201625700543" fill="none" id="id43" stroke="none" /><text fill="#e1ed5e" style="font-size:6.75px; font-family:Arial;" text-anchor="middle"><textPath startOffset="22.20632615414155" xlink:href="#id43">July</textPath></text><line stroke="#e1ed5e" stroke-width="0.3" x1="58.666819895761336" x2="56.23545636021788" y1="174.27360380694188" y2="178.64263932499728" /><path d="M 58.180547188652646 175.14741091055294 a86.0,86.0 0 0,1 -31.652253787137756,-30.449443065178592" fill="none" id="id44" stroke="none" /><text fill="#e1ed5e" style="font-size:6.75px; font-family:Arial;" text-anchor="middle"><textPath startOffset="22.20632615414155" xlink:href="#id44">August</textPath></text><line stroke="#e1ed5e" stroke-width="0.3" x1="26.63291911575756" x2="22.317208475507996" y1="142.92168965132927" y2="145.44649492493687" /><path d="M 25.769776987707644 143.4266507060508 a86.0,86.0 0 0,1 -11.730757126820373,-40.83630448921669" fill="none" id="id45" stroke="none" /><text fill="#e1ed5e" style="font-size:6.75px; font-family:Arial;" text-anchor="middle"><textPath startOffset="21.46611528233685" xlink:href="#id45">September</textPath></text><line stroke="#e1ed5e" stroke-width="0.3" x1="15.007084014347285" x2="10.007500721073583" y1="101.09737516637583" y2="101.16192664675087" /><path d="M 14.007167355692545 101.11028546245083 a86.0,86.0 0 0,1 10.666146001902534,-42.60595125391555" fill="none" id="id46" stroke="none" /><text fill="#e1ed5e" style="font-size:6.75px; font-family:Arial;" text-anchor="middle"><textPath startOffset="22.20632615414155" xlink:href="#id46">October</textPath></text><line stroke="#e1ed5e" stroke-width="0.3" x1="26.266209847984243" x2="21.928928074336255" y1="57.711370442889674" y2="55.22380399835377" /><path d="M 25.398753493254645 57.213857153982495 a86.0,86.0 0 0,1 29.58750427330803,-30.492523968695096" fill="none" id="id47" stroke="none" /><text fill="#e1ed5e" style="font-size:6.75px; font-family:Arial;" text-anchor="middle"><textPath startOffset="21.46611528233685" xlink:href="#id47">November</textPath></text><line stroke="#e1ed5e" stroke-width="0.3" x1="56.762969772571076" x2="54.21961505331055" y1="26.818313649435495" y2="22.513508569990535" /><path d="M 56.25429882871897 25.957352633546506 a86.0,86.0 0 0,1 42.265352541879196,-11.944610805530505" fill="none" id="id48" stroke="none" /><text fill="#e1ed5e" style="font-size:6.75px; font-family:Arial;" text-anchor="middle"><textPath startOffset="22.20632615414155" xlink:href="#id48">December</textPath></text></svg>