<?xml version="1.0" encoding="utf-8" ?>
<svg baseProfile="full" height="98mm" version="1.1" viewBox="0,0,200,98" width="200mm" xmlns="http://www.w3.org/2000/svg" xmlns:ev="http://www.w3.org/2001/xml-events" xmlns:xlink="http://www.w3.org/1999/xlink"><defs /><rect fill="#222222" height="98" width="200" x="0" y="0" /><text fill="#FFFFFF" style="font-size:12px; font-family:Arial; font-weight:bold;" x="10" y="20">2022 Running</text><text fill="#FFFFFF" style="font-size:4px; font-family:Arial" x="10" y="78">ATHLETE</text><text fill="#FFFFFF" style="font-size:9px; font-family:Arial" x="10" y="88">XiaoSi Hwang</text><text fill="#FFFFFF" style="font-size:4px; font-family:Arial" x="120" y="78">STATISTICS</text><text fill="#FFFFFF" style="font-size:3px; font-family:Arial" x="120" y="83">Number: 233</text><text fill="#FFFFFF" style="font-size:3px; font-family:Arial" x="120" y="88">Weekly: 4.8</text><text fill="#FFFFFF" style="font-size:3px; font-family:Arial" x="141" y="83">Total: 2511.7 km</text><text fill="#FFFFFF" style="font-size:3px; font-family:Arial" x="141" y="88">Avg: 10.8 km</text><text fill="#FFFFFF" style="font-size:3px; font-family:Arial" x="167" y="83">Min: 1.2 km</text><text fill="#FFFFFF" style="font-size:3px; font-family:Arial" x="167" y="88">Max: 25.1 km</text><text alignment-baseline="hanging" fill="#FFFFFF" style="font-size:10.0px; font-family:Arial;" x="10" y="30">2022</text><text alignment-baseline="hanging" fill="#FFFFFF" style="font-size:4.125px; font-family:Arial;" x="175" y="35">2511.7 km</text><text fill="#FFFFFF" style="font-size:2.5px; font-family:Arial" x="10.0" y="44">Jan</text><text fill="#FFFFFF" style="font-size:2.5px; font-family:Arial" x="25.5" y="44">Feb</text><text fill="#FFFFFF" style="font-size:2.5px; font-family:Arial" x="41.0" y="44">Mar</text><text fill="#FFFFFF" style="font-size:2.5px; font-family:Arial" x="56.5" y="44">Apr</text><text fill="#FFFFFF" style="font-size:2.5px; font-family:Arial" x="72.0" y="44">May</text><text fill="#FFFFFF" style="font-size:2.5px; font-family:Arial" x="87.5" y="44">Jun</text><text fill="#FFFFFF" style="font-size:2.5px; font-family:Arial" x="103.0" y="44">Jul</text><text fill="#FFFFFF" style="font-size:2.5px; font-family:Arial" x="118.5" y="44">Aug</text><text fill="#FFFFFF" style="font-size:2.5px; font-family:Arial" x="134.0" y="44">Sep</text><text fill="#FFFFFF" style="font-size:2.5px; font-family:Arial" x="149.5" y="44">Oct</text><text fill="#FFFFFF" style="font-size:2.5px; font-family:Arial" x="165.0" y="44">Nov</text><text fill="#FFFFFF" style="font-size:2.5px; font-family:Arial" x="180.5" y="44">Dec</text><rect fill="#444444" height="2.6" width="2.6" x="10.0" y="45.5"><title>2021-12-27</title></rect><rect fill="#444444" height="2.6" width="2.6" x="10.0" y="49.0"><title>2021-12-28</title></rect><rect fill="#444444" height="2.6" width="2.6" x="10.0" y="52.5"><title>2021-12-29</title></rect><rect fill="#444444" height="2.6" width="2.6" x="10.0" y="56.0"><title>2021-12-30</title></rect><rect fill="#444444" height="2.6" width="2.6" x="10.0" y="59.5"><title>2021-12-31</title></rect><rect fill="#4dd2ff" height="2.6" width="2.6" x="10.0" y="63.0"><title>2022-01-01 5.0 km</title></rect><rect fill="#4dd2ff" height="2.6" width="2.6" x="10.0" y="66.5"><title>2022-01-02 5.0 km</title></rect><rect fill="#4dd2ff" height="2.6" width="2.6" x="13.5" y="45.5"><title>2022-01-03 7.6 km</title></rect><rect fill="#444444" height="2.6" width="2.6" x="13.5" y="49.0"><title>2022-01-04</title></rect><rect fill="#4dd2ff" height="2.6" width="2.6" x="13.5" y="52.5"><title>2022-01-05 5.0 km</title></rect><rect fill="#4dd2ff" height="2.6" width="2.6" x="13.5" y="56.0"><title>2022-01-06 3.3 km</title></rect><rect fill="#4dd2ff" height="2.6" width="2.6" x="13.5" y="59.5"><title>2022-01-07 5.0 km</title></rect><rect fill="#4dd2ff" height="2.6" width="2.6" x="13.5" y="63.0"><title>2022-01-08 7.4 km</title></rect><rect fill="#4dd2ff" height="2.6" width="2.6" x="13.5" y="66.5"><title>2022-01-09 6.4 km</title></rect><rect fill="#444444" height="2.6" width="2.6" x="17.0" y="45.5"><title>2022-01-10</title></rect><rect fill="#4dd2ff" height="2.6" width="2.6" x="17.0" y="49.0"><title>2022-01-11 6.0 km</title></rect><rect fill="#4dd2ff" height="2.6" width="2.6" x="17.0" y="52.5"><title>2022-01-12 6.0 km</title></rect><rect fill="#4dd2ff" height="2.6" width="2.6" x="17.0" y="56.0"><title>2022-01-13 5.0 km</title></rect><rect fill="#444444" height="2.6" width="2.6" x="17.0" y="59.5"><title>2022-01-14</title></rect><rect fill="#4dd2ff" height="2.6" width="2.6" x="17.0" y="63.0"><title>2022-01-15 6.2 km</title></rect><rect fill="#ffaf00" height="2.6" width="2.6" x="17.0" y="66.5"><title>2022-01-16 10.4 km</title></rect><rect fill="#4dd2ff" height="2.6" width="2.6" x="20.5" y="45.5"><title>2022-01-17 5.0 km</title></rect><rect fill="#444444" height="2.6" width="2.6" x="20.5" y="49.0"><title>2022-01-18</title></rect><rect fill="#4dd2ff" height="2.6" width="2.6" x="20.5" y="52.5"><title>2022-01-19 3.3 km</title></rect><rect fill="#4dd2ff" height="2.6" width="2.6" x="20.5" y="56.0"><title>2022-01-20 7.3 km</title></rect><rect fill="#4dd2ff" height="2.6" width="2.6" x="20.5" y="59.5"><title>2022-01-21 3.3 km</title></rect><rect fill="#ffa500" height="2.6" width="2.6" x="20.5" y="63.0"><title>2022-01-22 11.4 km</title></rect><rect fill="#444444" height="2.6" width="2.6" x="20.5" y="66.5"><title>2022-01-23</title></rect><rect fill="#444444" height="2.6" width="2.6" x="24.0" y="45.5"><title>2022-01-24</title></rect><rect fill="#4dd2ff" height="2.6" width="2.6" x="24.0" y="49.0"><title>2022-01-25 3.0 km</title></rect><rect fill="#4dd2ff" height="2.6" width="2.6" x="24.0" y="52.5"><title>2022-01-26 5.0 km</title></rect><rect fill="#444444" height="2.6" width="2.6" x="24.0" y="56.0"><title>2022-01-27</title></rect><rect fill="#4dd2ff" height="2.6" width="2.6" x="24.0" y="59.5"><title>2022-01-28 7.1 km</title></rect><rect fill="#4dd2ff" height="2.6" width="2.6" x="24.0" y="63.0"><title>2022-01-29 9.7 km</title></rect><rect fill="#ffa400" height="2.6" width="2.6" x="24.0" y="66.5"><title>2022-01-30 11.5 km</title></rect><rect fill="#444444" height="2.6" width="2.6" x="27.5" y="45.5"><title>2022-01-31</title></rect><rect fill="#444444" height="2.6" width="2.6" x="27.5" y="49.0"><title>2022-02-01</title></rect><rect fill="#4dd2ff" height="2.6" width="2.6" x="27.5" y="52.5"><title>2022-02-02 6.5 km</title></rect><rect fill="#444444" height="2.6" width="2.6" x="27.5" y="56.0"><title>2022-02-03</title></rect><rect fill="#ff9e00" height="2.6" width="2.6" x="27.5" y="59.5"><title>2022-02-04 12.1 km</title></rect><rect fill="#4dd2ff" height="2.6" width="2.6" x="27.5" y="63.0"><title>2022-02-05 6.2 km</title></rect><rect fill="#ff8b00" height="2.6" width="2.6" x="27.5" y="66.5"><title>2022-02-06 14.1 km</title></rect><rect fill="#444444" height="2.6" width="2.6" x="31.0" y="45.5"><title>2022-02-07</title></rect><rect fill="#444444" height="2.6" width="2.6" x="31.0" y="49.0"><title>2022-02-08</title></rect><rect fill="#444444" height="2.6" width="2.6" x="31.0" y="52.5"><title>2022-02-09</title></rect><rect fill="#444444" height="2.6" width="2.6" x="31.0" y="56.0"><title>2022-02-10</title></rect><rect fill="#4dd2ff" height="2.6" width="2.6" x="31.0" y="59.5"><title>2022-02-11 6.0 km</title></rect><rect fill="#ffb200" height="2.6" width="2.6" x="31.0" y="63.0"><title>2022-02-12 10.0 km</title></rect><rect fill="#ff8e00" height="2.6" width="2.6" x="31.0" y="66.5"><title>2022-02-13 13.8 km</title></rect><rect fill="#444444" height="2.6" width="2.6" x="34.5" y="45.5"><title>2022-02-14</title></rect><rect fill="#4dd2ff" height="2.6" width="2.6" x="34.5" y="49.0"><title>2022-02-15 8.2 km</title></rect><rect fill="#4dd2ff" height="2.6" width="2.6" x="34.5" y="52.5"><title>2022-02-16 8.0 km</title></rect><rect fill="#444444" height="2.6" width="2.6" x="34.5" y="56.0"><title>2022-02-17</title></rect><rect fill="#4dd2ff" height="2.6" width="2.6" x="34.5" y="59.5"><title>2022-02-18 8.2 km</title></rect><rect fill="#444444" height="2.6" width="2.6" x="34.5" y="63.0"><title>2022-02-19</title></rect><rect fill="#444444" height="2.6" width="2.6" x="34.5" y="66.5"><title>2022-02-20</title></rect><rect fill="#444444" height="2.6" width="2.6" x="38.0" y="45.5"><title>2022-02-21</title></rect><rect fill="#444444" height="2.6" width="2.6" x="38.0" y="49.0"><title>2022-02-22</title></rect><rect fill="#444444" height="2.6" width="2.6" x="38.0" y="52.5"><title>2022-02-23</title></rect><rect fill="#444444" height="2.6" width="2.6" x="38.0" y="56.0"><title>2022-02-24</title></rect><rect fill="#4dd2ff" height="2.6" width="2.6" x="38.0" y="59.5"><title>2022-02-25 5.0 km</title></rect><rect fill="#ffa100" height="2.6" width="2.6" x="38.0" y="63.0"><title>2022-02-26 11.8 km</title></rect><rect fill="#4dd2ff" height="2.6" width="2.6" x="38.0" y="66.5"><title>2022-02-27 5.9 km</title></rect><rect fill="#444444" height="2.6" width="2.6" x="41.5" y="45.5"><title>2022-02-28</title></rect><rect fill="#444444" height="2.6" width="2.6" x="41.5" y="49.0"><title>2022-03-01</title></rect><rect fill="#444444" height="2.6" width="2.6" x="41.5" y="52.5"><title>2022-03-02</title></rect><rect fill="#4dd2ff" height="2.6" width="2.6" x="41.5" y="56.0"><title>2022-03-03 8.0 km</title></rect><rect fill="#4dd2ff" height="2.6" width="2.6" x="41.5" y="59.5"><title>2022-03-04 8.0 km</title></rect><rect fill="#ff6500" height="2.6" width="2.6" x="41.5" y="63.0"><title>2022-03-05 18.0 km</title></rect><rect fill="#4dd2ff" height="2.6" width="2.6" x="41.5" y="66.5"><title>2022-03-06 7.3 km</title></rect><rect fill="#444444" height="2.6" width="2.6" x="45.0" y="45.5"><title>2022-03-07</title></rect><rect fill="#ffb200" height="2.6" width="2.6" x="45.0" y="49.0"><title>2022-03-08 10.0 km</title></rect><rect fill="#ff9f00" height="2.6" width="2.6" x="45.0" y="52.5"><title>2022-03-09 12.0 km</title></rect><rect fill="#444444" height="2.6" width="2.6" x="45.0" y="56.0"><title>2022-03-10</title></rect><rect fill="#ffb200" height="2.6" width="2.6" x="45.0" y="59.5"><title>2022-03-11 10.0 km</title></rect><rect fill="#4dd2ff" height="2.6" width="2.6" x="45.0" y="63.0"><title>2022-03-12 9.0 km</title></rect><rect fill="red" height="2.6" width="2.6" x="45.0" y="66.5"><title>2022-03-13 21.1 km</title></rect><rect fill="#444444" height="2.6" width="2.6" x="48.5" y="45.5"><title>2022-03-14</title></rect><rect fill="#ffb200" height="2.6" width="2.6" x="48.5" y="49.0"><title>2022-03-15 10.0 km</title></rect><rect fill="#4dd2ff" height="2.6" width="2.6" x="48.5" y="52.5"><title>2022-03-16 9.0 km</title></rect><rect fill="#444444" height="2.6" width="2.6" x="48.5" y="56.0"><title>2022-03-17</title></rect><rect fill="#ffae00" height="2.6" width="2.6" x="48.5" y="59.5"><title>2022-03-18 10.5 km</title></rect><rect fill="red" height="2.6" width="2.6" x="48.5" y="63.0"><title>2022-03-19 22.5 km</title></rect><rect fill="#4dd2ff" height="2.6" width="2.6" x="48.5" y="66.5"><title>2022-03-20 8.8 km</title></rect><rect fill="#444444" height="2.6" width="2.6" x="52.0" y="45.5"><title>2022-03-21</title></rect><rect fill="#ffae00" height="2.6" width="2.6" x="52.0" y="49.0"><title>2022-03-22 10.4 km</title></rect><rect fill="#ffad00" height="2.6" width="2.6" x="52.0" y="52.5"><title>2022-03-23 10.5 km</title></rect><rect fill="#444444" height="2.6" width="2.6" x="52.0" y="56.0"><title>2022-03-24</title></rect><rect fill="#ff8700" height="2.6" width="2.6" x="52.0" y="59.5"><title>2022-03-25 14.5 km</title></rect><rect fill="#444444" height="2.6" width="2.6" x="52.0" y="63.0"><title>2022-03-26</title></rect><rect fill="#ff9a00" height="2.6" width="2.6" x="52.0" y="66.5"><title>2022-03-27 12.6 km</title></rect><rect fill="#444444" height="2.6" width="2.6" x="55.5" y="45.5"><title>2022-03-28</title></rect><rect fill="#ffad00" height="2.6" width="2.6" x="55.5" y="49.0"><title>2022-03-29 10.5 km</title></rect><rect fill="#444444" height="2.6" width="2.6" x="55.5" y="52.5"><title>2022-03-30</title></rect><rect fill="#4dd2ff" height="2.6" width="2.6" x="55.5" y="56.0"><title>2022-03-31 5.0 km</title></rect><rect fill="#444444" height="2.6" width="2.6" x="55.5" y="59.5"><title>2022-04-01</title></rect><rect fill="#444444" height="2.6" width="2.6" x="55.5" y="63.0"><title>2022-04-02</title></rect><rect fill="#ffad00" height="2.6" width="2.6" x="55.5" y="66.5"><title>2022-04-03 10.6 km</title></rect><rect fill="red" height="2.6" width="2.6" x="59.0" y="45.5"><title>2022-04-04 25.1 km</title></rect><rect fill="#4dd2ff" height="2.6" width="2.6" x="59.0" y="49.0"><title>2022-04-05 6.9 km</title></rect><rect fill="#444444" height="2.6" width="2.6" x="59.0" y="52.5"><title>2022-04-06</title></rect><rect fill="#ff8200" height="2.6" width="2.6" x="59.0" y="56.0"><title>2022-04-07 15.0 km</title></rect><rect fill="#ffab00" height="2.6" width="2.6" x="59.0" y="59.5"><title>2022-04-08 10.8 km</title></rect><rect fill="#ffb000" height="2.6" width="2.6" x="59.0" y="63.0"><title>2022-04-09 10.2 km</title></rect><rect fill="#444444" height="2.6" width="2.6" x="59.0" y="66.5"><title>2022-04-10</title></rect><rect fill="#444444" height="2.6" width="2.6" x="62.5" y="45.5"><title>2022-04-11</title></rect><rect fill="#ff9e00" height="2.6" width="2.6" x="62.5" y="49.0"><title>2022-04-12 12.1 km</title></rect><rect fill="#ff8400" height="2.6" width="2.6" x="62.5" y="52.5"><title>2022-04-13 14.8 km</title></rect><rect fill="#444444" height="2.6" width="2.6" x="62.5" y="56.0"><title>2022-04-14</title></rect><rect fill="#ff8200" height="2.6" width="2.6" x="62.5" y="59.5"><title>2022-04-15 15.0 km</title></rect><rect fill="#ff9700" height="2.6" width="2.6" x="62.5" y="63.0"><title>2022-04-16 12.8 km</title></rect><rect fill="red" height="2.6" width="2.6" x="62.5" y="66.5"><title>2022-04-17 22.2 km</title></rect><rect fill="#444444" height="2.6" width="2.6" x="66.0" y="45.5"><title>2022-04-18</title></rect><rect fill="#444444" height="2.6" width="2.6" x="66.0" y="49.0"><title>2022-04-19</title></rect><rect fill="#ffac00" height="2.6" width="2.6" x="66.0" y="52.5"><title>2022-04-20 10.6 km</title></rect><rect fill="#ff8200" height="2.6" width="2.6" x="66.0" y="56.0"><title>2022-04-21 15.0 km</title></rect><rect fill="#4dd2ff" height="2.6" width="2.6" x="66.0" y="59.5"><title>2022-04-22 5.6 km</title></rect><rect fill="#ff5800" height="2.6" width="2.6" x="66.0" y="63.0"><title>2022-04-23 19.4 km</title></rect><rect fill="#444444" height="2.6" width="2.6" x="66.0" y="66.5"><title>2022-04-24</title></rect><rect fill="#ff8200" height="2.6" width="2.6" x="69.5" y="45.5"><title>2022-04-25 15.1 km</title></rect><rect fill="#ff8200" height="2.6" width="2.6" x="69.5" y="49.0"><title>2022-04-26 15.0 km</title></rect><rect fill="#444444" height="2.6" width="2.6" x="69.5" y="52.5"><title>2022-04-27</title></rect><rect fill="#444444" height="2.6" width="2.6" x="69.5" y="56.0"><title>2022-04-28</title></rect><rect fill="#4dd2ff" height="2.6" width="2.6" x="69.5" y="59.5"><title>2022-04-29 5.2 km</title></rect><rect fill="#ff8000" height="2.6" width="2.6" x="69.5" y="63.0"><title>2022-04-30 15.2 km</title></rect><rect fill="#444444" height="2.6" width="2.6" x="69.5" y="66.5"><title>2022-05-01</title></rect><rect fill="#ff8200" height="2.6" width="2.6" x="73.0" y="45.5"><title>2022-05-02 15.1 km</title></rect><rect fill="#ff9400" height="2.6" width="2.6" x="73.0" y="49.0"><title>2022-05-03 13.1 km</title></rect><rect fill="red" height="2.6" width="2.6" x="73.0" y="52.5"><title>2022-05-04 21.1 km</title></rect><rect fill="#444444" height="2.6" width="2.6" x="73.0" y="56.0"><title>2022-05-05</title></rect><rect fill="#4dd2ff" height="2.6" width="2.6" x="73.0" y="59.5"><title>2022-05-06 5.1 km</title></rect><rect fill="#ff8700" height="2.6" width="2.6" x="73.0" y="63.0"><title>2022-05-07 14.5 km</title></rect><rect fill="#444444" height="2.6" width="2.6" x="73.0" y="66.5"><title>2022-05-08</title></rect><rect fill="#4dd2ff" height="2.6" width="2.6" x="76.5" y="45.5"><title>2022-05-09 4.2 km</title></rect><rect fill="#ff9f00" height="2.6" width="2.6" x="76.5" y="49.0"><title>2022-05-10 12.0 km</title></rect><rect fill="#ff9400" height="2.6" width="2.6" x="76.5" y="52.5"><title>2022-05-11 13.2 km</title></rect><rect fill="#444444" height="2.6" width="2.6" x="76.5" y="56.0"><title>2022-05-12</title></rect><rect fill="#444444" height="2.6" width="2.6" x="76.5" y="59.5"><title>2022-05-13</title></rect><rect fill="#ff7e00" height="2.6" width="2.6" x="76.5" y="63.0"><title>2022-05-14 15.4 km</title></rect><rect fill="#ff7f00" height="2.6" width="2.6" x="76.5" y="66.5"><title>2022-05-15 15.3 km</title></rect><rect fill="#444444" height="2.6" width="2.6" x="80.0" y="45.5"><title>2022-05-16</title></rect><rect fill="#444444" height="2.6" width="2.6" x="80.0" y="49.0"><title>2022-05-17</title></rect><rect fill="#4dd2ff" height="2.6" width="2.6" x="80.0" y="52.5"><title>2022-05-18 4.2 km</title></rect><rect fill="#ffac00" height="2.6" width="2.6" x="80.0" y="56.0"><title>2022-05-19 10.6 km</title></rect><rect fill="#444444" height="2.6" width="2.6" x="80.0" y="59.5"><title>2022-05-20</title></rect><rect fill="#ffb200" height="2.6" width="2.6" x="80.0" y="63.0"><title>2022-05-21 10.0 km</title></rect><rect fill="#ff9f00" height="2.6" width="2.6" x="80.0" y="66.5"><title>2022-05-22 12.0 km</title></rect><rect fill="#444444" height="2.6" width="2.6" x="83.5" y="45.5"><title>2022-05-23</title></rect><rect fill="#ff9f00" height="2.6" width="2.6" x="83.5" y="49.0"><title>2022-05-24 12.0 km</title></rect><rect fill="#ffb200" height="2.6" width="2.6" x="83.5" y="52.5"><title>2022-05-25 10.0 km</title></rect><rect fill="#444444" height="2.6" width="2.6" x="83.5" y="56.0"><title>2022-05-26</title></rect><rect fill="#444444" height="2.6" width="2.6" x="83.5" y="59.5"><title>2022-05-27</title></rect><rect fill="#ffb200" height="2.6" width="2.6" x="83.5" y="63.0"><title>2022-05-28 10.0 km</title></rect><rect fill="#444444" height="2.6" width="2.6" x="83.5" y="66.5"><title>2022-05-29</title></rect><rect fill="#444444" height="2.6" width="2.6" x="87.0" y="45.5"><title>2022-05-30</title></rect><rect fill="#ff9500" height="2.6" width="2.6" x="87.0" y="49.0"><title>2022-05-31 13.0 km</title></rect><rect fill="#ffac00" height="2.6" width="2.6" x="87.0" y="52.5"><title>2022-06-01 10.7 km</title></rect><rect fill="#444444" height="2.6" width="2.6" x="87.0" y="56.0"><title>2022-06-02</title></rect><rect fill="#ffb200" height="2.6" width="2.6" x="87.0" y="59.5"><title>2022-06-03 10.1 km</title></rect><rect fill="#444444" height="2.6" width="2.6" x="87.0" y="63.0"><title>2022-06-04</title></rect><rect fill="#ffb200" height="2.6" width="2.6" x="87.0" y="66.5"><title>2022-06-05 10.0 km</title></rect><rect fill="#444444" height="2.6" width="2.6" x="90.5" y="45.5"><title>2022-06-06</title></rect><rect fill="#444444" height="2.6" width="2.6" x="90.5" y="49.0"><title>2022-06-07</title></rect><rect fill="#ffac00" height="2.6" width="2.6" x="90.5" y="52.5"><title>2022-06-08 10.7 km</title></rect><rect fill="#444444" height="2.6" width="2.6" x="90.5" y="56.0"><title>2022-06-09</title></rect><rect fill="#ff9500" height="2.6" width="2.6" x="90.5" y="59.5"><title>2022-06-10 13.0 km</title></rect><rect fill="#ffb200" height="2.6" width="2.6" x="90.5" y="63.0"><title>2022-06-11 10.0 km</title></rect><rect fill="#ffab00" height="2.6" width="2.6" x="90.5" y="66.5"><title>2022-06-12 10.7 km</title></rect><rect fill="#444444" height="2.6" width="2.6" x="94.0" y="45.5"><title>2022-06-13</title></rect><rect fill="#444444" height="2.6" width="2.6" x="94.0" y="49.0"><title>2022-06-14</title></rect><rect fill="#444444" height="2.6" width="2.6" x="94.0" y="52.5"><title>2022-06-15</title></rect><rect fill="#444444" height="2.6" width="2.6" x="94.0" y="56.0"><title>2022-06-16</title></rect><rect fill="#4dd2ff" height="2.6" width="2.6" x="94.0" y="59.5"><title>2022-06-17 6.3 km</title></rect><rect fill="#ffb100" height="2.6" width="2.6" x="94.0" y="63.0"><title>2022-06-18 10.1 km</title></rect><rect fill="#ffb200" height="2.6" width="2.6" x="94.0" y="66.5"><title>2022-06-19 10.0 km</title></rect><rect fill="#444444" height="2.6" width="2.6" x="97.5" y="45.5"><title>2022-06-20</title></rect><rect fill="#ffb200" height="2.6" width="2.6" x="97.5" y="49.0"><title>2022-06-21 10.0 km</title></rect><rect fill="#ffb200" height="2.6" width="2.6" x="97.5" y="52.5"><title>2022-06-22 10.0 km</title></rect><rect fill="#444444" height="2.6" width="2.6" x="97.5" y="56.0"><title>2022-06-23</title></rect><rect fill="#ff9500" height="2.6" width="2.6" x="97.5" y="59.5"><title>2022-06-24 13.0 km</title></rect><rect fill="#ffb200" height="2.6" width="2.6" x="97.5" y="63.0"><title>2022-06-25 10.0 km</title></rect><rect fill="#ff9500" height="2.6" width="2.6" x="97.5" y="66.5"><title>2022-06-26 13.0 km</title></rect><rect fill="#444444" height="2.6" width="2.6" x="101.0" y="45.5"><title>2022-06-27</title></rect><rect fill="#ff9500" height="2.6" width="2.6" x="101.0" y="49.0"><title>2022-06-28 13.0 km</title></rect><rect fill="#ff9500" height="2.6" width="2.6" x="101.0" y="52.5"><title>2022-06-29 13.0 km</title></rect><rect fill="#ff9500" height="2.6" width="2.6" x="101.0" y="56.0"><title>2022-06-30 13.0 km</title></rect><rect fill="#444444" height="2.6" width="2.6" x="101.0" y="59.5"><title>2022-07-01</title></rect><rect fill="#444444" height="2.6" width="2.6" x="101.0" y="63.0"><title>2022-07-02</title></rect><rect fill="#444444" height="2.6" width="2.6" x="101.0" y="66.5"><title>2022-07-03</title></rect><rect fill="#4dd2ff" height="2.6" width="2.6" x="104.5" y="45.5"><title>2022-07-04 5.0 km</title></rect><rect fill="#ff9500" height="2.6" width="2.6" x="104.5" y="49.0"><title>2022-07-05 13.0 km</title></rect><rect fill="#ff9500" height="2.6" width="2.6" x="104.5" y="52.5"><title>2022-07-06 13.0 km</title></rect><rect fill="#444444" height="2.6" width="2.6" x="104.5" y="56.0"><title>2022-07-07</title></rect><rect fill="#ff9500" height="2.6" width="2.6" x="104.5" y="59.5"><title>2022-07-08 13.0 km</title></rect><rect fill="#ff9500" height="2.6" width="2.6" x="104.5" y="63.0"><title>2022-07-09 13.0 km</title></rect><rect fill="#ff9500" height="2.6" width="2.6" x="104.5" y="66.5"><title>2022-07-10 13.0 km</title></rect><rect fill="#444444" height="2.6" width="2.6" x="108.0" y="45.5"><title>2022-07-11</title></rect><rect fill="#ff9500" height="2.6" width="2.6" x="108.0" y="49.0"><title>2022-07-12 13.0 km</title></rect><rect fill="#ff9500" height="2.6" width="2.6" x="108.0" y="52.5"><title>2022-07-13 13.0 km</title></rect><rect fill="#4dd2ff" height="2.6" width="2.6" x="108.0" y="56.0"><title>2022-07-14 3.2 km</title></rect><rect fill="#ff9500" height="2.6" width="2.6" x="108.0" y="59.5"><title>2022-07-15 13.0 km</title></rect><rect fill="#ffb100" height="2.6" width="2.6" x="108.0" y="63.0"><title>2022-07-16 10.1 km</title></rect><rect fill="#ffb100" height="2.6" width="2.6" x="108.0" y="66.5"><title>2022-07-17 10.2 km</title></rect><rect fill="#444444" height="2.6" width="2.6" x="111.5" y="45.5"><title>2022-07-18</title></rect><rect fill="#ff8200" height="2.6" width="2.6" x="111.5" y="49.0"><title>2022-07-19 15.0 km</title></rect><rect fill="#ffb100" height="2.6" width="2.6" x="111.5" y="52.5"><title>2022-07-20 10.1 km</title></rect><rect fill="#444444" height="2.6" width="2.6" x="111.5" y="56.0"><title>2022-07-21</title></rect><rect fill="#ff8200" height="2.6" width="2.6" x="111.5" y="59.5"><title>2022-07-22 15.0 km</title></rect><rect fill="#ffb200" height="2.6" width="2.6" x="111.5" y="63.0"><title>2022-07-23 10.0 km</title></rect><rect fill="#ffb200" height="2.6" width="2.6" x="111.5" y="66.5"><title>2022-07-24 10.0 km</title></rect><rect fill="#444444" height="2.6" width="2.6" x="115.0" y="45.5"><title>2022-07-25</title></rect><rect fill="#ff8200" height="2.6" width="2.6" x="115.0" y="49.0"><title>2022-07-26 15.0 km</title></rect><rect fill="#ffb000" height="2.6" width="2.6" x="115.0" y="52.5"><title>2022-07-27 10.3 km</title></rect><rect fill="#444444" height="2.6" width="2.6" x="115.0" y="56.0"><title>2022-07-28</title></rect><rect fill="#ff8200" height="2.6" width="2.6" x="115.0" y="59.5"><title>2022-07-29 15.0 km</title></rect><rect fill="#ffb100" height="2.6" width="2.6" x="115.0" y="63.0"><title>2022-07-30 10.2 km</title></rect><rect fill="#444444" height="2.6" width="2.6" x="115.0" y="66.5"><title>2022-07-31</title></rect><rect fill="#ffb000" height="2.6" width="2.6" x="118.5" y="45.5"><title>2022-08-01 10.2 km</title></rect><rect fill="#ff9500" height="2.6" width="2.6" x="118.5" y="49.0"><title>2022-08-02 13.0 km</title></rect><rect fill="#ffb200" height="2.6" width="2.6" x="118.5" y="52.5"><title>2022-08-03 10.0 km</title></rect><rect fill="#444444" height="2.6" width="2.6" x="118.5" y="56.0"><title>2022-08-04</title></rect><rect fill="#ffb200" height="2.6" width="2.6" x="118.5" y="59.5"><title>2022-08-05 10.0 km</title></rect><rect fill="#ff8200" height="2.6" width="2.6" x="118.5" y="63.0"><title>2022-08-06 15.0 km</title></rect><rect fill="#ff9f00" height="2.6" width="2.6" x="118.5" y="66.5"><title>2022-08-07 12.0 km</title></rect><rect fill="#444444" height="2.6" width="2.6" x="122.0" y="45.5"><title>2022-08-08</title></rect><rect fill="#ff8800" height="2.6" width="2.6" x="122.0" y="49.0"><title>2022-08-09 14.4 km</title></rect><rect fill="#444444" height="2.6" width="2.6" x="122.0" y="52.5"><title>2022-08-10</title></rect><rect fill="#ff9f00" height="2.6" width="2.6" x="122.0" y="56.0"><title>2022-08-11 12.0 km</title></rect><rect fill="#4dd2ff" height="2.6" width="2.6" x="122.0" y="59.5"><title>2022-08-12 5.0 km</title></rect><rect fill="red" height="2.6" width="2.6" x="122.0" y="63.0"><title>2022-08-13 21.1 km</title></rect><rect fill="#4dd2ff" height="2.6" width="2.6" x="122.0" y="66.5"><title>2022-08-14 8.0 km</title></rect><rect fill="#444444" height="2.6" width="2.6" x="125.5" y="45.5"><title>2022-08-15</title></rect><rect fill="#4dd2ff" height="2.6" width="2.6" x="125.5" y="49.0"><title>2022-08-16 7.5 km</title></rect><rect fill="#4dd2ff" height="2.6" width="2.6" x="125.5" y="52.5"><title>2022-08-17 4.1 km</title></rect><rect fill="#ff9300" height="2.6" width="2.6" x="125.5" y="56.0"><title>2022-08-18 13.2 km</title></rect><rect fill="#ffac00" height="2.6" width="2.6" x="125.5" y="59.5"><title>2022-08-19 10.6 km</title></rect><rect fill="#4dd2ff" height="2.6" width="2.6" x="125.5" y="63.0"><title>2022-08-20 9.5 km</title></rect><rect fill="#ff9500" height="2.6" width="2.6" x="125.5" y="66.5"><title>2022-08-21 13.0 km</title></rect><rect fill="#444444" height="2.6" width="2.6" x="129.0" y="45.5"><title>2022-08-22</title></rect><rect fill="#444444" height="2.6" width="2.6" x="129.0" y="49.0"><title>2022-08-23</title></rect><rect fill="#ffb200" height="2.6" width="2.6" x="129.0" y="52.5"><title>2022-08-24 10.1 km</title></rect><rect fill="#ff9f00" height="2.6" width="2.6" x="129.0" y="56.0"><title>2022-08-25 12.1 km</title></rect><rect fill="#ffb000" height="2.6" width="2.6" x="129.0" y="59.5"><title>2022-08-26 10.2 km</title></rect><rect fill="#444444" height="2.6" width="2.6" x="129.0" y="63.0"><title>2022-08-27</title></rect><rect fill="#ffa800" height="2.6" width="2.6" x="129.0" y="66.5"><title>2022-08-28 11.0 km</title></rect><rect fill="#444444" height="2.6" width="2.6" x="132.5" y="45.5"><title>2022-08-29</title></rect><rect fill="#4dd2ff" height="2.6" width="2.6" x="132.5" y="49.0"><title>2022-08-30 5.2 km</title></rect><rect fill="#444444" height="2.6" width="2.6" x="132.5" y="52.5"><title>2022-08-31</title></rect><rect fill="#ff9f00" height="2.6" width="2.6" x="132.5" y="56.0"><title>2022-09-01 12.0 km</title></rect><rect fill="#4dd2ff" height="2.6" width="2.6" x="132.5" y="59.5"><title>2022-09-02 5.1 km</title></rect><rect fill="#ff9f00" height="2.6" width="2.6" x="132.5" y="63.0"><title>2022-09-03 12.0 km</title></rect><rect fill="#4dd2ff" height="2.6" width="2.6" x="132.5" y="66.5"><title>2022-09-04 4.0 km</title></rect><rect fill="#ffb200" height="2.6" width="2.6" x="136.0" y="45.5"><title>2022-09-05 10.1 km</title></rect><rect fill="#4dd2ff" height="2.6" width="2.6" x="136.0" y="49.0"><title>2022-09-06 9.0 km</title></rect><rect fill="#ffb200" height="2.6" width="2.6" x="136.0" y="52.5"><title>2022-09-07 10.0 km</title></rect><rect fill="#444444" height="2.6" width="2.6" x="136.0" y="56.0"><title>2022-09-08</title></rect><rect fill="#4dd2ff" height="2.6" width="2.6" x="136.0" y="59.5"><title>2022-09-09 8.2 km</title></rect><rect fill="#4dd2ff" height="2.6" width="2.6" x="136.0" y="63.0"><title>2022-09-10 6.6 km</title></rect><rect fill="#ff8100" height="2.6" width="2.6" x="136.0" y="66.5"><title>2022-09-11 15.1 km</title></rect><rect fill="#ff9f00" height="2.6" width="2.6" x="139.5" y="45.5"><title>2022-09-12 12.0 km</title></rect><rect fill="#444444" height="2.6" width="2.6" x="139.5" y="49.0"><title>2022-09-13</title></rect><rect fill="#ffb200" height="2.6" width="2.6" x="139.5" y="52.5"><title>2022-09-14 10.0 km</title></rect><rect fill="#444444" height="2.6" width="2.6" x="139.5" y="56.0"><title>2022-09-15</title></rect><rect fill="#4dd2ff" height="2.6" width="2.6" x="139.5" y="59.5"><title>2022-09-16 9.3 km</title></rect><rect fill="#ffb200" height="2.6" width="2.6" x="139.5" y="63.0"><title>2022-09-17 10.0 km</title></rect><rect fill="#ff8200" height="2.6" width="2.6" x="139.5" y="66.5"><title>2022-09-18 15.0 km</title></rect><rect fill="#444444" height="2.6" width="2.6" x="143.0" y="45.5"><title>2022-09-19</title></rect><rect fill="#4dd2ff" height="2.6" width="2.6" x="143.0" y="49.0"><title>2022-09-20 8.4 km</title></rect><rect fill="#444444" height="2.6" width="2.6" x="143.0" y="52.5"><title>2022-09-21</title></rect><rect fill="#ffae00" height="2.6" width="2.6" x="143.0" y="56.0"><title>2022-09-22 10.5 km</title></rect><rect fill="#444444" height="2.6" width="2.6" x="143.0" y="59.5"><title>2022-09-23</title></rect><rect fill="red" height="2.6" width="2.6" x="143.0" y="63.0"><title>2022-09-24 21.1 km</title></rect><rect fill="#ff9f00" height="2.6" width="2.6" x="143.0" y="66.5"><title>2022-09-25 12.0 km</title></rect><rect fill="#444444" height="2.6" width="2.6" x="146.5" y="45.5"><title>2022-09-26</title></rect><rect fill="#ff8200" height="2.6" width="2.6" x="146.5" y="49.0"><title>2022-09-27 15.0 km</title></rect><rect fill="#ffa800" height="2.6" width="2.6" x="146.5" y="52.5"><title>2022-09-28 11.0 km</title></rect><rect fill="#ff8200" height="2.6" width="2.6" x="146.5" y="56.0"><title>2022-09-29 15.0 km</title></rect><rect fill="#444444" height="2.6" width="2.6" x="146.5" y="59.5"><title>2022-09-30</title></rect><rect fill="#ff6300" height="2.6" width="2.6" x="146.5" y="63.0"><title>2022-10-01 18.3 km</title></rect><rect fill="#ff8200" height="2.6" width="2.6" x="146.5" y="66.5"><title>2022-10-02 15.0 km</title></rect><rect fill="#444444" height="2.6" width="2.6" x="150.0" y="45.5"><title>2022-10-03</title></rect><rect fill="#ff8200" height="2.6" width="2.6" x="150.0" y="49.0"><title>2022-10-04 15.0 km</title></rect><rect fill="#ff8200" height="2.6" width="2.6" x="150.0" y="52.5"><title>2022-10-05 15.0 km</title></rect><rect fill="#ff9500" height="2.6" width="2.6" x="150.0" y="56.0"><title>2022-10-06 13.0 km</title></rect><rect fill="#ff8c00" height="2.6" width="2.6" x="150.0" y="59.5"><title>2022-10-07 14.0 km</title></rect><rect fill="#444444" height="2.6" width="2.6" x="150.0" y="63.0"><title>2022-10-08</title></rect><rect fill="#ff8200" height="2.6" width="2.6" x="150.0" y="66.5"><title>2022-10-09 15.0 km</title></rect><rect fill="#444444" height="2.6" width="2.6" x="153.5" y="45.5"><title>2022-10-10</title></rect><rect fill="#ff8200" height="2.6" width="2.6" x="153.5" y="49.0"><title>2022-10-11 15.0 km</title></rect><rect fill="#ff8200" height="2.6" width="2.6" x="153.5" y="52.5"><title>2022-10-12 15.0 km</title></rect><rect fill="#ff8200" height="2.6" width="2.6" x="153.5" y="56.0"><title>2022-10-13 15.0 km</title></rect><rect fill="#444444" height="2.6" width="2.6" x="153.5" y="59.5"><title>2022-10-14</title></rect><rect fill="#ff8200" height="2.6" width="2.6" x="153.5" y="63.0"><title>2022-10-15 15.0 km</title></rect><rect fill="#ff8200" height="2.6" width="2.6" x="153.5" y="66.5"><title>2022-10-16 15.0 km</title></rect><rect fill="#444444" height="2.6" width="2.6" x="157.0" y="45.5"><title>2022-10-17</title></rect><rect fill="#ffb200" height="2.6" width="2.6" x="157.0" y="49.0"><title>2022-10-18 10.0 km</title></rect><rect fill="#ffb200" height="2.6" width="2.6" x="157.0" y="52.5"><title>2022-10-19 10.0 km</title></rect><rect fill="#444444" height="2.6" width="2.6" x="157.0" y="56.0"><title>2022-10-20</title></rect><rect fill="#ff6c00" height="2.6" width="2.6" x="157.0" y="59.5"><title>2022-10-21 17.3 km</title></rect><rect fill="#ff9f00" height="2.6" width="2.6" x="157.0" y="63.0"><title>2022-10-22 12.0 km</title></rect><rect fill="#444444" height="2.6" width="2.6" x="157.0" y="66.5"><title>2022-10-23</title></rect><rect fill="#ffb200" height="2.6" width="2.6" x="160.5" y="45.5"><title>2022-10-24 10.1 km</title></rect><rect fill="#ff8200" height="2.6" width="2.6" x="160.5" y="49.0"><title>2022-10-25 15.0 km</title></rect><rect fill="#ff6f00" height="2.6" width="2.6" x="160.5" y="52.5"><title>2022-10-26 17.0 km</title></rect><rect fill="#444444" height="2.6" width="2.6" x="160.5" y="56.0"><title>2022-10-27</title></rect><rect fill="#ff8200" height="2.6" width="2.6" x="160.5" y="59.5"><title>2022-10-28 15.0 km</title></rect><rect fill="#ff9f00" height="2.6" width="2.6" x="160.5" y="63.0"><title>2022-10-29 12.0 km</title></rect><rect fill="#ff7700" height="2.6" width="2.6" x="160.5" y="66.5"><title>2022-10-30 16.2 km</title></rect><rect fill="#444444" height="2.6" width="2.6" x="164.0" y="45.5"><title>2022-10-31</title></rect><rect fill="#ffa900" height="2.6" width="2.6" x="164.0" y="49.0"><title>2022-11-01 11.0 km</title></rect><rect fill="#ff8100" height="2.6" width="2.6" x="164.0" y="52.5"><title>2022-11-02 15.1 km</title></rect><rect fill="#ffb200" height="2.6" width="2.6" x="164.0" y="56.0"><title>2022-11-03 10.0 km</title></rect><rect fill="#444444" height="2.6" width="2.6" x="164.0" y="59.5"><title>2022-11-04</title></rect><rect fill="red" height="2.6" width="2.6" x="164.0" y="63.0"><title>2022-11-05 21.2 km</title></rect><rect fill="#444444" height="2.6" width="2.6" x="164.0" y="66.5"><title>2022-11-06</title></rect><rect fill="red" height="2.6" width="2.6" x="167.5" y="45.5"><title>2022-11-07 21.2 km</title></rect><rect fill="#444444" height="2.6" width="2.6" x="167.5" y="49.0"><title>2022-11-08</title></rect><rect fill="red" height="2.6" width="2.6" x="167.5" y="52.5"><title>2022-11-09 28.5 km</title></rect><rect fill="#ffb200" height="2.6" width="2.6" x="167.5" y="56.0"><title>2022-11-10 10.0 km</title></rect><rect fill="#ff7800" height="2.6" width="2.6" x="167.5" y="59.5"><title>2022-11-11 16.0 km</title></rect><rect fill="#444444" height="2.6" width="2.6" x="167.5" y="63.0"><title>2022-11-12</title></rect><rect fill="#ff7400" height="2.6" width="2.6" x="167.5" y="66.5"><title>2022-11-13 16.5 km</title></rect><rect fill="#ff8000" height="2.6" width="2.6" x="171.0" y="45.5"><title>2022-11-14 15.2 km</title></rect><rect fill="#ff8100" height="2.6" width="2.6" x="171.0" y="49.0"><title>2022-11-15 15.1 km</title></rect><rect fill="#ffb200" height="2.6" width="2.6" x="171.0" y="52.5"><title>2022-11-16 10.0 km</title></rect><rect fill="#444444" height="2.6" width="2.6" x="171.0" y="56.0"><title>2022-11-17</title></rect><rect fill="#ff6e00" height="2.6" width="2.6" x="171.0" y="59.5"><title>2022-11-18 17.1 km</title></rect><rect fill="red" height="2.6" width="2.6" x="171.0" y="63.0"><title>2022-11-19 20.0 km</title></rect><rect fill="#ff9500" height="2.6" width="2.6" x="171.0" y="66.5"><title>2022-11-20 13.1 km</title></rect><rect fill="#ffb200" height="2.6" width="2.6" x="174.5" y="45.5"><title>2022-11-21 10.0 km</title></rect><rect fill="#444444" height="2.6" width="2.6" x="174.5" y="49.0"><title>2022-11-22</title></rect><rect fill="#ff7500" height="2.6" width="2.6" x="174.5" y="52.5"><title>2022-11-23 16.3 km</title></rect><rect fill="#444444" height="2.6" width="2.6" x="174.5" y="56.0"><title>2022-11-24</title></rect><rect fill="#444444" height="2.6" width="2.6" x="174.5" y="59.5"><title>2022-11-25</title></rect><rect fill="#4dd2ff" height="2.6" width="2.6" x="174.5" y="63.0"><title>2022-11-26 2.0 km</title></rect><rect fill="#ff9000" height="2.6" width="2.6" x="174.5" y="66.5"><title>2022-11-27 13.5 km</title></rect><rect fill="#ff9500" height="2.6" width="2.6" x="178.0" y="45.5"><title>2022-11-28 13.0 km</title></rect><rect fill="#4dd2ff" height="2.6" width="2.6" x="178.0" y="49.0"><title>2022-11-29 9.6 km</title></rect><rect fill="#ff6e00" height="2.6" width="2.6" x="178.0" y="52.5"><title>2022-11-30 17.1 km</title></rect><rect fill="#444444" height="2.6" width="2.6" x="178.0" y="56.0"><title>2022-12-01</title></rect><rect fill="#444444" height="2.6" width="2.6" x="178.0" y="59.5"><title>2022-12-02</title></rect><rect fill="#444444" height="2.6" width="2.6" x="178.0" y="63.0"><title>2022-12-03</title></rect><rect fill="#444444" height="2.6" width="2.6" x="178.0" y="66.5"><title>2022-12-04</title></rect><rect fill="#444444" height="2.6" width="2.6" x="181.5" y="45.5"><title>2022-12-05</title></rect><rect fill="#444444" height="2.6" width="2.6" x="181.5" y="49.0"><title>2022-12-06</title></rect><rect fill="#444444" height="2.6" width="2.6" x="181.5" y="52.5"><title>2022-12-07</title></rect><rect fill="#444444" height="2.6" width="2.6" x="181.5" y="56.0"><title>2022-12-08</title></rect><rect fill="#444444" height="2.6" width="2.6" x="181.5" y="59.5"><title>2022-12-09</title></rect><rect fill="#444444" height="2.6" width="2.6" x="181.5" y="63.0"><title>2022-12-10</title></rect><rect fill="#444444" height="2.6" width="2.6" x="181.5" y="66.5"><title>2022-12-11</title></rect><rect fill="#444444" height="2.6" width="2.6" x="185.0" y="45.5"><title>2022-12-12</title></rect><rect fill="#444444" height="2.6" width="2.6" x="185.0" y="49.0"><title>2022-12-13</title></rect><rect fill="#444444" height="2.6" width="2.6" x="185.0" y="52.5"><title>2022-12-14</title></rect><rect fill="#444444" height="2.6" width="2.6" x="185.0" y="56.0"><title>2022-12-15</title></rect><rect fill="#444444" height="2.6" width="2.6" x="185.0" y="59.5"><title>2022-12-16</title></rect><rect fill="#444444" height="2.6" width="2.6" x="185.0" y="63.0"><title>2022-12-17</title></rect><rect fill="#444444" height="2.6" width="2.6" x="185.0" y="66.5"><title>2022-12-18</title></rect><rect fill="#444444" height="2.6" width="2.6" x="188.5" y="45.5"><title>2022-12-19</title></rect><rect fill="#444444" height="2.6" width="2.6" x="188.5" y="49.0"><title>2022-12-20</title></rect><rect fill="#444444" height="2.6" width="2.6" x="188.5" y="52.5"><title>2022-12-21</title></rect><rect fill="#444444" height="2.6" width="2.6" x="188.5" y="56.0"><title>2022-12-22</title></rect><rect fill="#444444" height="2.6" width="2.6" x="188.5" y="59.5"><title>2022-12-23</title></rect><rect fill="#444444" height="2.6" width="2.6" x="188.5" y="63.0"><title>2022-12-24</title></rect><rect fill="#444444" height="2.6" width="2.6" x="188.5" y="66.5"><title>2022-12-25</title></rect><rect fill="#444444" height="2.6" width="2.6" x="192.0" y="45.5"><title>2022-12-26</title></rect><rect fill="#444444" height="2.6" width="2.6" x="192.0" y="49.0"><title>2022-12-27</title></rect><rect fill="#444444" height="2.6" width="2.6" x="192.0" y="52.5"><title>2022-12-28</title></rect><rect fill="#444444" height="2.6" width="2.6" x="192.0" y="56.0"><title>2022-12-29</title></rect><rect fill="#444444" height="2.6" width="2.6" x="192.0" y="59.5"><title>2022-12-30</title></rect><rect fill="#444444" height="2.6" width="2.6" x="192.0" y="63.0"><title>2022-12-31</title></rect></svg>