<?xml version="1.0" encoding="utf-8" ?>
<svg baseProfile="full" height="200mm" version="1.1" viewBox="0,0,200,200" width="200mm" xmlns="http://www.w3.org/2000/svg" xmlns:ev="http://www.w3.org/2001/xml-events" xmlns:xlink="http://www.w3.org/1999/xlink"><defs /><rect fill="#1a1a1a" height="200" width="200" x="0" y="0" /><text alignment-baseline="middle" fill="#e1ed5e" style="dominant-baseline: central; font-size:9.0px; font-family:Arial;" text-anchor="middle" x="100.0" y="100.0">2022</text><line stroke="#e1ed5e" stroke-width="0.3" x1="100.0" x2="100.0" y1="15.0" y2="10.0" /><path d="M 100.0 14.0 a86.0,86.0 0 0,1 42.46469731375804,11.215312516191453" fill="none" id="id25" stroke="none" /><text fill="#e1ed5e" style="font-size:6.75px; font-family:Arial;" text-anchor="middle"><textPath startOffset="22.20632615414155" xlink:href="#id25">January</textPath></text><path d="M 100.0 79.0 l 0.0 -11.038563410481174 a32.038563410481174,32.038563410481174 0 0,0 0.551491202705906,0.004746858893676247 l -0.19001072343337763 11.036927928196057" fill="#ff6309" stroke="none" /><path d="M 100.36148047927253 79.00311137660856 l 0.19006011535524747 -11.039796898283967 a32.04143280570095,32.04143280570095 0 0,0 0.5513771612463667,0.014240445353915412 l -0.38006391179648197 11.034889660787693" fill="#ff6309" stroke="none" /><path d="M 100.72285384407766 79.0124445844662 l 0.5792586111304051 -16.818368333555405 a37.82834079586303,37.82834079586303 0 0,0 0.6505739082822183,0.02801508100920103 l -0.8686733518019549 16.80590552602201" fill="#ffb410" stroke="none" /><path d="M 101.44485096284872 79.0497635885617 l 0.7597684899552384 -11.016589178956274 a32.04275714195623,32.04275714195623 0 0,0 0.5499297158971874,0.04268512999071102 l -0.9492883952147669 11.001878786777098" fill="#ff6309" stroke="none" /><path d="M 101.80526077348638 79.07773832637324 l 0.6213731034677833 -7.201469648398492 a28.22822728132686,28.22822728132686 0 0,0 0.4837442716826288,0.045937347459101746 l -0.7452425022406564 7.189706756424211" fill="#ff2b04" stroke="none" /><path d="M 102.16513564639614 79.11191278185805 l 1.143283195006361 -11.02979350604604 a32.08888818818187,32.08888818818187 0 0,0 0.5489236706927815,0.06167797028116479 l -1.3329735692088678 11.008479582294274" fill="#ff6409" stroke="none" /><path d="M 102.52436894288641 79.15227682838746 l 1.9688018821235627 -16.25952368568209 a37.3782871917765,37.3782871917765 0 0,0 0.6380745443740808,0.08284038872179762 l -2.2483911550054896 16.223224973796157" fill="#ffae10" stroke="none" /><path d="M 102.88285421437855 79.19881850522331 l 1.9458705387019057 -14.040393037912416 a35.17459166298795,35.17459166298795 0 0,0 0.5990250037828612,0.08828071419166957 l -2.1872645229134227 14.004817839559779" fill="#ff900d" stroke="none" /><path d="M 103.59715602781102 79.31037775812273 l 2.2733744802111513 -13.07567946629079 a34.27183578230434,34.27183578230434 0 0,0 0.5803443815689335,0.10605422626378967 l -2.4981139828829857 13.034609758676263" fill="#ff830c" stroke="none" /><path d="M 103.95276090670814 79.375362276772 l 2.4842791950717804 -12.962422876312697 a34.19833512013622,34.19833512013622 0 0,0 0.5771923193750661,0.11577934932321685 l -2.7070379239139717 12.917739570912271" fill="#ff820c" stroke="none" /><path d="M 104.307194497241 79.44645832069477 l 2.262293449960348 -10.79545925877363 a32.02995522482185,32.02995522482185 0 0,0 0.5386481777467885,0.11772762856904251 l -2.4477843518606646 10.754918132108717" fill="#ff6309" stroke="none" /><path d="M 105.01212808612495 79.60689891045804 l 3.246593824932296 -13.209581824496983 a34.602699123415526,34.602699123415526 0 0,0 0.5771913300209016,0.14713892172338805 l -3.473494043638223 13.151739906604726" fill="#ff880c" stroke="none" /><path d="M 105.36241919743992 79.69619591428918 l 5.845894758975732 -22.13439448161618 a43.89335939963423,43.89335939963423 0 0,0 0.7288431938911775,0.19922037710161228 l -6.226035842090621 22.030487563688276" fill="#f9ff18" stroke="none" /><path d="M 105.71112130821622 79.79150937346287 l 3.002747695033737 -10.62505861355938 a32.04121208299174,32.04121208299174 0 0,0 0.5294578108950695,0.15456325368939489 l -3.185195723652234 10.571797030951283" fill="#ff6309" stroke="none" /><path d="M 106.40334571778207 80.00007090966166 l 2.1909831251884286 -6.843220571428753 a28.18540707573942,28.18540707573942 0 0,0 0.4607873529138788,0.15191434557811032 l -2.308453300344725 6.8044925015914055" fill="#ff2a04" stroke="none" /><path d="M 106.74666289553966 80.11325718540242 l 5.198877364218638 -15.32442611519856 a37.18228542599483,37.18228542599483 0 0,0 0.604332530759424,0.21083975360166324 l -5.461891899041335 15.232665508424692" fill="#ffac0f" stroke="none" /><path d="M 107.08798089147638 80.2323363322302 l 2.422929962934207 -6.757307240407779 a28.1785646717538,28.1785646717538 0 0,0 0.45517462719139845,0.16764465657128877 l -2.538886915898182 6.714599316030166" fill="#ff2a04" stroke="none" /><path d="M 107.4271985657038 80.35727306442388 l 8.886767752634537 -23.50285249016259 a46.12685249416661,46.12685249416661 0 0,0 0.7402631350529165,0.2872105957227054 l -9.290014052687122 23.346399190549338" fill="#ddff1b" stroke="none" /><path d="M 108.43124777332544 80.76684994638697 l 2.6638425518295024 -6.07669053216884 a27.63492463896071,27.63492463896071 0 0,0 0.4340234428929619,0.19473366734637967 l -2.768048113189245 6.029936534305929" fill="#ff2203" stroke="none" /><path d="M 108.76106565485865 80.91482961587045 l 4.608533064563608 -10.039262599215192 a32.04650942801286,32.04650942801286 0 0,0 0.4993483874589841,0.23445076344286028 l -4.780659663322191 9.95844685313233" fill="#ff6309" stroke="none" /><path d="M 109.41281617654863 81.2277094730956 l 7.006632764072124 -13.9735593891856 a36.63180298921612,36.63180298921612 0 0,0 0.5612332586902458,0.2874854735191763 l -7.246126510351125 13.850881390353923" fill="#ffa40f" stroke="none" /><path d="M 109.73455568895987 81.39251694778311 l 9.927319167949172 -18.975948063151883 a42.415841584158414,42.415841584158414 0 0,0 0.6440238664180646,0.34401524548160556 l -10.252488080895548 18.802254091168525" fill="#fff216" stroke="none" /><path d="M 110.05341064243156 81.56283822128135 l 12.13706669820196 -22.258422558548304 a46.352431102982905,46.352431102982905 0 0,0 0.6972198284943075,0.3880020796931905 l -12.518410615768301 22.046205081294932" fill="#daff1b" stroke="none" /><line stroke="#e1ed5e" stroke-width="0.3" x1="143.23703022742887" x2="145.7803849466894" y1="26.81831364943548" y2="22.513508569990506" /><path d="M 143.74570117128098 25.957352633546492 a86.0,86.0 0 0,1 28.547481713284135,27.462654790039103" fill="none" id="id26" stroke="none" /><text fill="#e1ed5e" style="font-size:6.75px; font-family:Arial;" text-anchor="middle"><textPath startOffset="19.985693538727396" xlink:href="#id26">February</textPath></text><path d="M 110.99172775467656 82.1063720568725 l 7.523756892808179 -12.248056864142383 a35.374345714826255,35.374345714826255 0 0,0 0.5160962868754794,0.3231794474946608 l -7.733472332055921 12.116733075324778" fill="#ff930d" stroke="none" /><path d="M 111.60114157652 82.49532879139004 l 14.711460040856185 -22.197752636257302 a47.630194866620414,47.630194866620414 0 0,0 0.6795134660257669,0.45881052554334967 l -15.091378201288494 21.94123019841528" fill="#cbff1d" stroke="none" /><path d="M 111.90073688211348 82.69761687909136 l 7.734941112401807 -11.245767036963153 a34.64905089235038,34.64905089235038 0 0,0 0.48850023867648856,0.3422256351865358 l -7.927372490661947 11.110956559012681" fill="#ff880c" stroke="none" /><path d="M 112.19680574252982 82.90503203632743 l 18.058174561347464 -25.310226474477865 a52.09188371066406,52.09188371066406 0 0,0 0.7254531129113088,0.5270725386039377 l -18.49117299061256 24.995634701057252" fill="#95ff23" stroke="none" /><path d="M 113.6212207817346 84.01681056812373 l 8.587745762876214 -10.076891750033278 a34.23983098946837,34.23983098946837 0 0,0 0.44529096078621494,0.38615193322381364 l -8.759930522309194 9.927574823389792" fill="#ff820c" stroke="none" /><path d="M 113.89432698308785 84.25364557470407 l 14.610642320709987 -16.558150145966902 a43.08264488869269,43.08264488869269 0 0,0 0.5518456238267674,0.49545244978379266 l -14.893498932132745 16.304198687413813" fill="#fffa17" stroke="none" /><path d="M 114.16331599549186 84.49514656593476 l 20.46983381972318 -22.408719349021194 a51.3506968531248,51.3506968531248 0 0,0 0.6474885565880103,0.6017700474964478 l -20.85253026010604 22.053044715450106" fill="#9eff22" stroke="none" /><path d="M 114.68862486808459 84.99185889309783 l 12.695188485659285 -12.971342238134222 a39.15002837863404,39.15002837863404 0 0,0 0.4775636044304478,0.47551279454380974 l -12.916587890257055 12.750893592940294" fill="#ffc612" stroke="none" /><path d="M 114.94478906791727 85.2469230424477 l 12.571642894428223 -12.410373559739549 a38.665321309200976,38.665321309200976 0 0,0 0.46349729185369404,0.477674701817422 l -12.783404449985026 12.192134662372013" fill="#ffc011" stroke="none" /><path d="M 115.4437574822437 85.77008943001954 l 13.311154785204348 -12.264925967298126 a39.10014504635177,39.10014504635177 0 0,0 0.4518047070634604,0.4988940420250622 l -13.520303132883843 12.033979138003515" fill="#ffc612" stroke="none" /><path d="M 117.04232023915458 87.72973835380427 l 8.968793743819448 -6.457421544901522 a32.05158605032478,32.05158605032478 0 0,0 0.31851245352250906,0.45051327735195446 l -9.078618817145841 6.302081767217775" fill="#ff6309" stroke="none" /><path d="M 117.2510076193507 88.02491185347247 l 21.395405268711638 -14.851994137206509 a47.04505896449517,47.04505896449517 0 0,0 0.4560582388734785,0.6692091909159182 l -21.647887973253848 14.481506923020184" fill="#d2ff1c" stroke="none" /><path d="M 117.45458315368197 88.32363383020206 l 10.873569438510119 -7.2739507565946 a34.08223497508986,34.08223497508986 0 0,0 0.3220014330276018,0.49043027374954695 l -10.997167506895645 7.085702418867379" fill="#ff800b" stroke="none" /><line stroke="#e1ed5e" stroke-width="0.3" x1="172.23445277983987" x2="176.4835382374775" y1="55.19839476539836" y2="52.563006222186495" /><path d="M 173.08426987136738 54.67131705675599 a86.0,86.0 0 0,1 12.851231095245387,41.99856678651699" fill="none" id="id27" stroke="none" /><text fill="#e1ed5e" style="font-size:6.75px; font-family:Arial;" text-anchor="middle"><textPath startOffset="22.20632615414155" xlink:href="#id27">March</textPath></text><path d="M 118.21658344932153 89.55222093294921 l 15.352232390884142 -8.804984351330292 a38.69798827016459,38.69798827016459 0 0,0 0.3264310914007008,0.5806844874418468 l -15.501521123577275 8.539416353953651" fill="#ffc011" stroke="none" /><path d="M 118.3937258080291 89.86733742301442 l 15.486828105126854 -8.531322322339319 a38.681213344264364,38.681213344264364 0 0,0 0.31625004969584913,0.5859633120278455 l -15.63138625404117 8.263478026979016" fill="#ffc011" stroke="none" /><path d="M 118.56541770881063 90.18545643968196 l 35.14320277607552 -18.5783320313443 a60.7517184839503,60.7517184839503 0 0,0 0.4807791681592732,0.9287123239480217 l -35.45779137739491 17.970646985135932" fill="#36ff2e" stroke="none" /><path d="M 118.73160827565052 90.50648371742162 l 14.299433573610992 -7.247210355086802 a37.03109037018351,37.03109037018351 0 0,0 0.28327018463749776,0.5710554068482288 l -14.422063771201898 6.999995359739623" fill="#ffaa0f" stroke="none" /><path d="M 119.04729006885535 91.15688171328212 l 20.03206671690458 -9.30032224346007 a43.08573500662168,43.08573500662168 0 0,0 0.3065194753295472,0.6753750331925209 l -20.189188509197475 8.954125201425487" fill="#fffa17" stroke="none" /><path d="M 119.196687751892 91.48605970444005 l 24.230819464592035 -10.746632591015377 a47.50703159487924,47.50703159487924 0 0,0 0.3251048470467349,0.7503868103891776 l -24.41221502148145 10.327946636039597" fill="#ccff1d" stroke="none" /><path d="M 119.47837535516314 92.15188598940014 l 20.488920232852106 -8.255276890887428 a43.08948729267831,43.08948729267831 0 0,0 0.27127181678012274,0.690357184673908 l -20.62798559951393 7.901370701317735" fill="#fffa17" stroke="none" /><path d="M 119.61058180528143 92.48833698450437 l 18.55648881425528 -7.107901851538131 a40.87122406508166,40.87122406508166 0 0,0 0.24599691353087016,0.6591494262920514 l -18.676090316287777 6.787429288216746" fill="#ffdd14" stroke="none" /><path d="M 119.7369772167798 92.82701384747503 l 43.80628959779022 -15.920467720422025 a67.60957305921674,67.60957305921674 0 0,0 0.3881012257167942,1.0972144273744895 l -44.073843904316824 15.16405566662092" fill="#37ff7c" stroke="none" /><path d="M 119.97218684219823 93.5106431181261 l 20.99995404048502 -6.823298687739387 a43.080658384309764,43.080658384309764 0 0,0 0.22308501690233037,0.707240467058623 l -21.114294541155555 6.460808054254344" fill="#fffa17" stroke="none" /><path d="M 120.08093135843002 93.85539295169968 l 19.039125666041684 -5.825822700794373 a40.910512707321686,40.910512707321686 0 0,0 0.20025521202140173,0.6751610227376361 l -19.13658677517479 5.497232291310207" fill="#ffde14" stroke="none" /><path d="M 120.28053869075195 94.5502522615342 l 22.35523212874031 -6.007255408458939 a44.14829412877593,44.14829412877593 0 0,0 0.19089652612198257,0.7356021867418762 l -22.455324986732595 5.621556796168212" fill="#f6ff19" stroke="none" /><path d="M 120.37134235888165 94.90015583598534 l 48.26562005420048 -12.083010359336757 a70.75509238821971,70.75509238821971 0 0,0 0.2856052880493521,1.1840183047868356 l -48.46645814251065 11.250406822890517" fill="#3cffa1" stroke="none" /><path d="M 120.45610955862082 95.25157060432595 l 18.88699510276731 -4.384194486489578 a40.389165668159166,40.389165668159166 0 0,0 0.15137400201851073,0.6785799695899845 l -18.95966349178786 4.058436347349629" fill="#ffd714" stroke="none" /><path d="M 120.6074358757038 95.95851677861258 l 22.54337648928182 -4.421155469529794 a43.972819574951124,43.972819574951124 0 0,0 0.13927715531763063,0.7440241328934993 l -22.61613936850931 4.032453259173732" fill="#f8ff18" stroke="none" /><path d="M 120.67395015179393 96.31383870115 l 22.84190962988403 -4.072708052950456 a44.20215046982405,44.20215046982405 0 0,0 0.12710883731788922,0.7502035530689074 l -22.908630328722143 3.6789187115657107" fill="#f5ff19" stroke="none" /><path d="M 120.78858239683441 97.02765380044208 l 31.706619490915074 -4.533404353680274 a53.02907233398499,53.02907233398499 0 0,0 0.12142142686044795,0.9047306645044277 l -31.779956916833356 3.9869553471111825" fill="#8bff24" stroke="none" /><path d="M 120.87857604477298 97.74499172005257 l 27.57037669968152 -2.9777618744558163 a48.73071829475941,48.73071829475941 0 0,0 0.08289530119325764,0.8347443703320958 l -27.61754912655701 2.5027419734192855" fill="#bdff1f" stroke="none" /><path d="M 120.94382443527127 98.46500227214037 l 23.14910951643991 -1.6966256864656934 a44.211200100901806,44.211200100901806 0 0,0 0.0490942408256455,0.7594661759474105 l -23.17488434826997 1.2979004462652477" fill="#f5ff19" stroke="none" /><path d="M 120.98425023603335 99.18683210126433 l 10.95088403091476 -0.4243614737983716 a31.95910323516428,31.95910323516428 0 0,0 0.016570499092764337,0.5498941933519593 l -10.95656622446317 0.23579713302141322" fill="#ff6209" stroke="none" /><line stroke="#e1ed5e" stroke-width="0.3" x1="184.98032266829074" x2="189.97916517819016" y1="98.17113171792111" y2="98.06355123074" /><path d="M 185.9800911702706 98.14961562048488 a86.0,86.0 0 0,1 -9.607161424134198,41.387399972396054" fill="none" id="id28" stroke="none" /><text fill="#e1ed5e" style="font-size:6.75px; font-family:Arial;" text-anchor="middle"><textPath startOffset="21.466115282336823" xlink:href="#id28">April</textPath></text><path d="M 120.99824983174949 100.27111621757518 l 23.315203718925563 0.3010312714116012 a44.31714700132433,44.31714700132433 0 0,0 -0.01641409482645764,0.7626984886383422 l -23.3065675614141 -0.7023195758400582" fill="#f4ff19" stroke="none" /><path d="M 120.9904718944345 100.63252640178507 l 55.28470496381062 1.6659480396808124 a76.30980008828908,76.30980008828908 0 0,0 -0.050865449704148254,1.3126112413191722 l -55.247837381255266 -2.6173365280139906" fill="#43ffde" stroke="none" /><path d="M 120.9764740272857 100.99374915477107 l 15.192962363837816 0.7197584059119423 a36.21000189190893,36.21000189190893 0 0,0 -0.034854108219283204,0.6223435159208459 l -15.178321904731003 -0.9811736381682116" fill="#ff9e0e" stroke="none" /><path d="M 120.92983693683757 101.71520430193887 l 33.00834723569616 2.7050406245120304 a54.11900107208172,54.11900107208172 0 0,0 -0.08407877424085994,0.9278022675766325 l -32.956893865178216 -3.2728242806372334" fill="#7eff26" stroke="none" /><path d="M 120.89721153311464 102.0752229133903 l 23.62956224543882 2.3465623117903265 a44.74579050261714,44.74579050261714 0 0,0 -0.08271088594417564,0.7658000803244366 l -23.58566905799359 -2.7529587139995546" fill="#eeff19" stroke="none" /><path d="M 120.8583938346157 102.4346265915055 l 22.352256645877514 2.6089927557076336 a43.50400454058145,43.50400454058145 0 0,0 -0.09321974028783007,0.7430530498146248 l -22.304035396342837 -2.9933635598096533" fill="#feff18" stroke="none" /><path d="M 120.70491114924044 103.5080841355445 l 26.364366693029158 4.466979639412089 a47.740114775808784,47.740114775808784 0 0,0 -0.1442514345552634,0.8090386517406845 l -26.283568816134704 -4.920137041885991" fill="#c9ff1d" stroke="none" /><path d="M 120.64145759157962 103.86396538481128 l 32.1979575761361 6.027277530369945 a53.75723655168064,53.75723655168064 0 0,0 -0.17809021666397623,0.9080781779747633 l -32.08943742649645 -6.580619435412654" fill="#82ff25" stroke="none" /><path d="M 120.49622156327973 104.57218783832717 l 32.34345210973667 7.215004869511756 a54.138424670492526,54.138424670492526 0 0,0 -0.21072591399892648,0.9078017222978148 l -32.21446562980719 -7.770675249158137" fill="#7eff26" stroke="none" /><path d="M 120.41448212921028 104.9243191809786 l 27.4355946161458 6.617930543363056 a49.2224884908873,49.2224884908873 0 0,0 -0.20577036055911854,0.8219503042541076 l -27.31761294129162 -7.08920868701456" fill="#b7ff1f" stroke="none" /><path d="M 120.32669344350535 105.2749913415812 l 47.34562948674962 12.28669022329915 a69.91391814340669,69.91391814340669 0 0,0 -0.3123218643579288,1.1622658438612292 l -47.12711954604992 -13.099847000335927" fill="#3aff97" stroke="none" /><path d="M 120.02730092923936 106.31721596034902 l 22.32637158940156 7.042412327031788 a44.4107334300309,44.4107334300309 0 0,0 -0.236239193437441,0.7270694764779775 l -22.201840144947873 -7.4256807034875605" fill="#f3ff19" stroke="none" /><path d="M 119.9155931802556 106.66101706037122 l 31.475562840128383 10.527392238095056 a54.18941161632087,54.18941161632087 0 0,0 -0.3034843653271778,0.882067623523249 l -31.289687643857974 -11.067632564707605" fill="#7dff26" stroke="none" /><path d="M 119.79798401119884 107.00284435728193 l 11.752855068765744 4.1571613934885026 a33.46641861638393,33.46641861638393 0 0,0 -0.19677575096030683,0.541442354820546 l -11.67955505680021 -4.358851545315179" fill="#ff770b" stroke="none" /><path d="M 119.67450827220406 107.3425965602758 l 40.10070178929957 14.965724731161016 a63.802327047991426,63.802327047991426 0 0,0 -0.3928574220262486,1.025626761552675 l -39.83715008767982 -15.653775059546836" fill="#32ff4d" stroke="none" /><path d="M 119.41010516605496 108.01547362559984 l 30.735624686228757 12.692388162308642 a54.2532004792836,54.2532004792836 0 0,0 -0.3638814311754309,0.8601082144616294 l -30.512592273861017 -13.219570902436434" fill="#7dff26" stroke="none" /><path d="M 119.26925614724726 108.34839909993367 l 30.44636445901426 13.190877722708466 a54.18102415337075,54.18102415337075 0 0,0 -0.3781291489555581,0.8525814077148206 l -30.214794225327427 -13.713007466915974" fill="#7dff26" stroke="none" /><path d="M 118.81262510543309 109.33194174019688 l 10.230855306596599 5.07498263206078 a32.4204136974207,32.4204136974207 0 0,0 -0.2522946253577121,0.49780123102807544 l -10.141982011452617 -5.250338074791549" fill="#ff6809" stroke="none" /><path d="M 118.64920377521936 109.65438752849418 l 29.856132120686045 15.456030888462719 a54.61960017657817,54.61960017657817 0 0,0 -0.43942116436152706,0.831219242782529 l -29.585658448099625 -15.967665146331383" fill="#79ff26" stroke="none" /><line stroke="#e1ed5e" stroke-width="0.3" x1="174.80103733775053" x2="179.2010983576182" y1="140.37084112569926" y2="142.7455964860345" /><path d="M 175.68104954172406 140.8457921977663 a86.0,86.0 0 0,1 -30.038265399797805,32.042727171017184" fill="none" id="id29" stroke="none" /><text fill="#e1ed5e" style="font-size:6.75px; font-family:Arial;" text-anchor="middle"><textPath startOffset="22.206326154141568" xlink:href="#id29">May</textPath></text><path d="M 118.30583269289576 110.29060199501025 l 28.962974302561342 16.281501428505674 a54.22561014063189,54.22561014063189 0 0,0 -0.4643984638672348,0.8097178660155362 l -28.67842384254173 -16.777639140379524" fill="#7dff26" stroke="none" /><path d="M 118.12598468904814 110.60418214915192 l 24.979573779080066 14.613713677116355 a49.94027874124992,49.94027874124992 0 0,0 -0.44047117599241664,0.7382550268179968 l -24.724321727389423 -15.041530797820455" fill="#afff20" stroke="none" /><path d="M 117.94076556474637 110.91462005526583 l 39.82826572904017 24.23031427080486 a67.61972630384058,67.61972630384058 0 0,0 -0.6135213769931425,0.9891918091721876 l -39.40527971237906 -24.91230241134232" fill="#37ff7c" stroke="none" /><path d="M 117.55443506779139 111.5257021239791 l 9.433696060426575 6.19387467046023 a32.285331399381974,32.285331399381974 0 0,0 -0.3090119691457865,0.461930966578403 l -9.325680985870068 -6.35534255124444" fill="#ff6609" stroke="none" /><path d="M 117.35343817320211 111.8261652097733 l 26.479214088358606 18.045274792718644 a53.04341931008387,53.04341931008387 0 0,0 -0.5206820160761484,0.7500812784574847 l -26.164671165120325 -18.498397333363148" fill="#8aff24" stroke="none" /><path d="M 116.93607887273984 112.41649034213515 l 7.406753124969331 5.43017538674719 a30.18405120766854,30.18405120766854 0 0,0 -0.31080766662651055,0.4163776609091849 l -7.312184191647728 -5.556865927165689" fill="#ff4806" stroke="none" /><path d="M 116.71984013943494 112.70617746262583 l 21.127817165537454 16.056002453639714 a47.53638771520464,47.53638771520464 0 0,0 -0.500701185556287,0.6472237775305449 l -20.8483091627631 -16.417304225283512" fill="#ccff1d" stroke="none" /><path d="M 116.498646956653 112.99209946851258 l 22.82605893195681 17.974712041373003 a50.05373021378571,50.05373021378571 0 0,0 -0.5388691350559864,0.6723221008996345 l -22.513271884845967 -18.364961975850886" fill="#adff20" stroke="none" /><path d="M 115.80600337817218 113.82643327865902 l 25.659711292337597 22.44604645745601 a55.09172605158605,55.09172605158605 0 0,0 -0.630514705433181,0.708389955594679 l -25.269537737256076 -22.884410582791553" fill="#73ff27" stroke="none" /><path d="M 115.56566222782051 114.09645910891815 l 25.097752980374658 22.728840150549594 a54.85996720691177,54.85996720691177 0 0,0 -0.6399117154557112,0.6944977830284483 l -24.702794856923227 -23.15748918837938" fill="#76ff27" stroke="none" /><path d="M 114.81725581225074 114.88116024355365 l 6.476222548365964 6.504153450294664 a30.178533139938196,30.178533139938196 0 0,0 -0.3712678797110336,0.3633637618276725 l -6.363304716279136 -6.614667315044908" fill="#ff4806" stroke="none" /><path d="M 114.55890576462653 115.13401014063108 l 16.24001546097711 16.881526856749854 a44.424859683420564,44.424859683420564 0 0,0 -0.5556580333833863,0.5254093529897246 l -15.947021593202914 -17.1585708464855" fill="#f2ff19" stroke="none" /><path d="M 114.0293411484842 115.62618273729858 l 14.77901185541588 16.461182138576937 a43.122154253641924,43.122154253641924 0 0,0 -0.5565995080757791,0.4911343511617527 l -14.493469994433513 -16.713139631510977" fill="#fffb17" stroke="none" /><path d="M 113.75828350139079 115.86535959552629 l 17.38259095125896 20.044728407856017 a47.53197326102037,47.53197326102037 0 0,0 -0.6227469909773035,0.5307184959183018 l -17.03497848370461 -20.340971293997264" fill="#ccff1d" stroke="none" /><path d="M 113.20401910651253 116.32954008644616 l 16.672742210380157 20.61934401027197 a47.51674339408463,47.51674339408463 0 0,0 -0.640440866103236,0.5088049574405046 l -16.31534385155957 -20.9032828817176" fill="#ccff1d" stroke="none" /><path d="M 112.92097659922987 116.55440617244103 l 13.615087626942813 17.443703958354153 a43.12811376679069,43.12811376679069 0 0,0 -0.5891531825693572,0.45173753761368013 l -13.312805715879962 -17.675480837795206" fill="#fffb17" stroke="none" /><path d="M 112.04921762599082 117.19931262002967 l 12.68991250280535 18.11385427928353 a43.11663618591159,43.11663618591159 0 0,0 -0.6115234879139824,0.42061143115610794 l -12.376232130268484 -18.329606499804733" fill="#fffb17" stroke="none" /><path d="M 111.1453310114006 117.79835938074945 l 15.236239859019229 24.331271304973583 a49.70807845115721,49.70807845115721 0 0,0 -0.729101052112048,0.4478734159408912 l -14.815159606974872 -24.58993318774285" fill="#b1ff20" stroke="none" /><line stroke="#e1ed5e" stroke-width="0.3" x1="143.8653032363475" x2="146.44561519142675" y1="172.8068346515853" y2="177.08958963109032" /><path d="M 144.38136562736335 173.6633856474863 a86.0,86.0 0 0,1 -40.68145358897372,12.25698825130547" fill="none" id="id30" stroke="none" /><text fill="#e1ed5e" style="font-size:6.75px; font-family:Arial;" text-anchor="middle"><textPath startOffset="21.466115282336833" xlink:href="#id30">June</textPath></text><path d="M 110.8373102113329 117.98757091392108 l 12.159425151348266 20.181993309896377 a44.561928485842216,44.561928485842216 0 0,0 -0.6604335177966504,0.39019576339621426 l -11.810223762523234 -20.38830764558634" fill="#f1ff19" stroke="none" /><path d="M 110.21172684928248 118.3499491758327 l 10.787345304777457 19.384306004888117 a43.18373588951252,43.18373588951252 0 0,0 -0.6526444128390667,0.35587377083891636 l -10.452078080069741 -19.567120427486806" fill="#fffc17" stroke="none" /><path d="M 109.57404056367764 118.69057910512821 l 10.080204235192827 19.67871907379394 a43.11023522734439,43.11023522734439 0 0,0 -0.6633763834568258,0.33263069013307023 l -9.739973944053242 -19.849317604836312" fill="#fffb17" stroke="none" /><path d="M 108.59647513512805 119.15986991738527 l 9.664009491369642 21.539196219900532 a44.60783880935864,44.60783880935864 0 0,0 -0.7032730084751488,0.3082942196269159 l -9.29181580823674 -21.702354992821903" fill="#f0ff19" stroke="none" /><path d="M 107.93186726928326 119.44442032107085 l 10.85144003178878 26.60154966083563 a49.72970927666015,49.72970927666015 0 0,0 -0.7953886305045444,0.3165015510283056 l -10.391930325242368 -26.784398056270007" fill="#b1ff20" stroke="none" /><path d="M 107.59598834532513 119.57807347666477 l 7.998374055741547 20.615191577213338 a43.11244245443653,43.11244245443653 0 0,0 -0.6941714595049515,0.26247624809413755 l -7.642332375476321 -20.749816075414106" fill="#fffb17" stroke="none" /><path d="M 107.2578585660854 119.70592522655815 l 8.19196209703615 22.24212432263774 a44.70274957432049,44.70274957432049 0 0,0 -0.7243557745813672,0.25972820942084374 l -7.807886761825047 -22.379840073098546" fill="#efff19" stroke="none" /><path d="M 105.53697534728816 120.25689768951611 l 3.66320776560355 13.401761840896674 a34.89339093144983,34.89339093144983 0 0,0 -0.5807416006312544,0.15337913500498537 l -3.4319757221607983 -13.462832325205243" fill="#ff8c0c" stroke="none" /><path d="M 105.18746579009965 120.34920634021253 l 5.506318662022703 21.599991048097188 a43.29078640348111,43.29078640348111 0 0,0 -0.7236708746583476,0.17786069416611672 l -5.133694502621144 -21.691573000577336" fill="#fffd17" stroke="none" /><path d="M 104.83641907484287 120.43548508189849 l 5.095416732936289 21.529836645795335 a43.124582203443275,43.124582203443275 0 0,0 -0.7238355377411869,0.16474261178370853 l -4.724061045802239 -21.614355991156728" fill="#fffb17" stroke="none" /><path d="M 104.13013068566511 120.58985236759428 l 4.350914825869145 21.69052283007755 a43.12259569906035,43.12259569906035 0 0,0 -0.7290437150903504,0.13972296313573165 l -3.97690349620709 -21.76220299156175" fill="#fffb17" stroke="none" /><path d="M 103.7750983002368 120.6578951692458 l 3.974840210680065 21.75091238858094 a43.111118118181246,43.111118118181246 0 0,0 -0.7311461456561997,0.127119129306028 l -3.599845093551815 -21.816110096407975" fill="#fffb17" stroke="none" /><path d="M 103.06178313531738 120.77559828337769 l 4.186612400297599 28.408079067877704 a49.714920855142836,49.714920855142836 0 0,0 -0.8476900833160104,0.11748212137796844 l -3.696993725794758 -28.475935754748274" fill="#b1ff20" stroke="none" /><path d="M 102.70371172650421 120.8252237178851 l 2.8470219179733878 21.929064326757032 a43.113104622564165,43.113104622564165 0 0,0 -0.7367671883883357,0.08921224601819785 l -2.4691273065336716 -21.974822101500582" fill="#fffb17" stroke="none" /><path d="M 102.34483914955558 120.86867818915974 l 3.209286325047613 28.562114184669372 a49.741849025666895,49.741849025666895 0 0,0 -0.851692737818818,0.08828143463642493 l -2.717160990623192 -28.613124987761555" fill="#b1ff20" stroke="none" /><path d="M 101.62511606390274 120.93702456842531 l 2.2218904121467635 28.625508774891895 a49.71161001450463,49.71161001450463 0 0,0 -0.8537075139459728,0.05887666846769274 l -1.7288201374218606 -28.659513787875873" fill="#b1ff20" stroke="none" /><path d="M 101.26447882468166 120.96189622390904 l 1.7300428576912554 28.679783431698795 a49.73191650375229,49.73191650375229 0 0,0 -0.854943582786627,0.044190817716478974 l -1.2361112064911488 -28.705314056177475" fill="#b1ff20" stroke="none" /><path d="M 100.90346689309514 120.98055641714683 l 1.2348672326100503 28.67642615293131 a49.7030018288453,49.7030018288453 0 0,0 -0.8550801438780641,0.029450689075454825 l -0.741066737057334 -28.693433640432858" fill="#b1ff20" stroke="none" /><line stroke="#e1ed5e" stroke-width="0.3" x1="102.19456741930631" x2="102.32365962044197" y1="184.97166512339345" y2="189.96999836594603" /><path d="M 102.22038585953345 185.97133177190398 a86.0,86.0 0 0,1 -42.740103519485714,-10.115201625700543" fill="none" id="id31" stroke="none" /><text fill="#e1ed5e" style="font-size:6.75px; font-family:Arial;" text-anchor="middle"><textPath startOffset="22.20632615414155" xlink:href="#id31">July</textPath></text><path d="M 99.45781275523022 120.99299961872073 l -0.28527202797849976 11.045474847213022 a32.04915810052343,32.04915810052343 0 0,0 -0.55136707465147,-0.018990196881847728 l 0.4753594543046128 -11.03892785190508" fill="#ff6309" stroke="none" /><path d="M 99.09653310690486 120.98055641714683 l -1.23601624665289 28.70310887272357 a49.72970927666015,49.72970927666015 0 0,0 -0.8549056382477486,-0.04418885641723807 l 1.7299099533141273 -28.67758020954413" fill="#b1ff20" stroke="none" /><path d="M 98.73552117531835 120.96189622390904 l -1.7299896959403918 28.678902142836918 a49.731033612915425,49.731033612915425 0 0,0 -0.8540410793224786,-0.058899673089022615 l 2.2233935360418005 -28.644874125231613" fill="#b1ff20" stroke="none" /><path d="M 98.01472825383883 120.90594882070398 l -2.7152412811295026 28.59290944371682 a49.72154253641925,49.72154253641925 0 0,0 -0.851345044884991,-0.08824539484219532 l 3.2070189226200867 -28.541934680418866" fill="#b1ff20" stroke="none" /><path d="M 97.65516085044442 120.86867818915974 l -3.207437899155606 28.545663501856453 a49.725294822475874,49.725294822475874 0 0,0 -0.849764032974825,-0.10289459026127858 l 3.69832935518182 -28.486223382869824" fill="#b1ff20" stroke="none" /><path d="M 97.2962882734958 120.8252237178851 l -3.6953170846492545 28.463021498170164 a49.70189821529924,49.70189821529924 0 0,0 -0.8474680340305203,-0.11745134737031188 l 4.184713709866606 -28.395195585307246" fill="#b1ff20" stroke="none" /><path d="M 96.58105272829116 120.7198165907248 l -4.684405514895105 28.388862240830687 a49.77275020495681,49.77275020495681 0 0,0 -0.8441245799123859,-0.14676187826713363 l 5.172379066279541 -28.304021784042547" fill="#b1ff20" stroke="none" /><path d="M 96.22490169976321 120.6578951692458 l -5.165276602638429 28.265156054550882 a49.73324084000756,49.73324084000756 0 0,0 -0.8408052919289658,-0.1611423353316428 l 5.65104950913909 -28.172056520870772" fill="#b1ff20" stroke="none" /><path d="M 95.86986931433489 120.58985236759428 l -1.3753211030169816 6.856358944631409 a27.992936873305162,27.992936873305162 0 0,0 -0.4716257183544538,-0.09883375481214543 l 1.4931382828008222 -6.8316692090927225" fill="#ff2703" stroke="none" /><path d="M 95.51606077576429 120.51570834832081 l -6.149003788699861 28.134004957033845 a49.79813331651637,49.79813331651637 0 0,0 -0.8358494567580952,-0.19023661506594128 l 6.632373394850819 -28.023991608390215" fill="#b0ff20" stroke="none" /><path d="M 95.16358092515715 120.4354850818985 l -5.127086122728658 21.663650389526 a43.262092451283344,43.262092451283344 0 0,0 -0.7231912119123126,-0.17774280473327764 l 5.499230619384181 -21.572186326478693" fill="#fffd17" stroke="none" /><path d="M 94.81253420990036 120.34920634021253 l -5.548846917853738 21.76681937780821 a43.46295011666771,43.46295011666771 0 0,0 -0.7233674499706125,-0.19104791812168265 l 5.92270481063584 -21.66808011038295" fill="#ffff18" stroke="none" /><path d="M 94.11515582081647 120.15858648285463 l -9.28931022432071 31.820615435397162 a54.14879863782556,54.14879863782556 0 0,0 -0.892488300597493,-0.26889940377685845 l 9.835673499358448 -31.65600066251458" fill="#7eff26" stroke="none" /><path d="M 93.76903079525671 120.05430185196036 l -6.608329829469814 21.268832629860714 a43.27180425048874,43.27180425048874 0 0,0 -0.709407550611733,-0.2271298953537992 l 6.973458725172487 -21.15192988784721" fill="#fffd17" stroke="none" /><path d="M 93.08242187328487 119.8279376855182 l -10.9288020622299 31.32535727068933 a54.1770511446049,54.1770511446049 0 0,0 -0.8778757508224727,-0.31477501092177207 l 11.4663973736821 -31.132594718727603" fill="#7eff26" stroke="none" /><path d="M 92.7421414339146 119.70592522655815 l -7.639204711550712 20.741324106207138 a43.10339282335877,43.10339282335877 0 0,0 -0.6940257476116716,-0.26242115232417174 l 7.9951006799226665 -20.606754703776332" fill="#fffb17" stroke="none" /><path d="M 92.40401165467489 119.57807347666478 l -7.991188596626953 20.596671611132113 a43.092577410607305,43.092577410607305 0 0,0 -0.6892327872027483,-0.27425995017159616 l 8.34454245987156 -20.456064816554452" fill="#fffa17" stroke="none" /><path d="M 91.7346041902142 119.30500536409082 l -13.036619909229211 30.448876626007028 a54.12231191271993,54.12231191271993 0 0,0 -0.8532751673345951,-0.37405075791379033 l 13.55881575122155 -30.219961314798784" fill="#7eff26" stroke="none" /><path d="M 91.40352486487194 119.15986991738527 l -9.280275389722753 20.683927594696783 a43.670429463328496,43.670429463328496 0 0,0 -0.6831968436802308,-0.3136221622444632 l 9.634940229170404 -20.521118362118244" fill="#fcff18" stroke="none" /><path d="M 90.7491055286396 118.85261126421891 l -14.587500208685809 29.72820321348059 a54.11436589518824,54.11436589518824 0 0,0 -0.8327069465359703,-0.4175365497057799 l 15.09706106290454 -29.472698822865507" fill="#7eff26" stroke="none" /><path d="M 90.42595943632237 118.69057910512821 l -10.216958992566411 19.94569366970184 a43.41019738916567,43.41019738916567 0 0,0 -0.662127673660492,-0.3463939047727157 l 10.558777568753397 -19.766870345984408" fill="#ffff18" stroke="none" /><line stroke="#e1ed5e" stroke-width="0.3" x1="58.666819895761336" x2="56.23545636021788" y1="174.27360380694188" y2="178.64263932499728" /><path d="M 58.180547188652646 175.14741091055294 a86.0,86.0 0 0,1 -31.652253787137756,-30.449443065178592" fill="none" id="id32" stroke="none" /><text fill="#e1ed5e" style="font-size:6.75px; font-family:Arial;" text-anchor="middle"><textPath startOffset="22.20632615414155" xlink:href="#id32">August</textPath></text><path d="M 89.7882731507175 118.34994917583269 l -10.967769437480618 19.708518913641083 a43.554770763700574,43.554770763700574 0 0,0 -0.6519759950492109,-0.37020898551719156 l 11.305394199451037 -19.516806762329256" fill="#feff18" stroke="none" /><path d="M 89.4739219176387 118.17145234162733 l -14.394778534149241 24.850094218842695 a49.71823169578104,49.71823169578104 0 0,0 -0.736852909494386,-0.43534568701192256 l 14.820399314672008 -24.59862995953702" fill="#b1ff20" stroke="none" /><path d="M 89.1626897886671 117.98757091392108 l -11.40570458978355 18.9309815933315 a43.10140631897585,43.10140631897585 0 0,0 -0.6321966504006469,-0.38834681768887863 l 11.729880440116505 -18.73184630881424" fill="#fffb17" stroke="none" /><path d="M 88.54995079064634 117.60387380957326 l -12.070076679099841 18.557134807522864 a43.13716339786845,43.13716339786845 0 0,0 -0.618967559826962,-0.4102179473838798 l 12.387718937666767 -18.346618839047668" fill="#fffb17" stroke="none" /><path d="M 88.24862548938628 117.40417183066458 l -18.54860015300186 27.47108638139015 a54.14681213344264,54.14681213344264 0 0,0 -0.7679645339792209,-0.5282130091453916 l 19.018721571603972 -27.14773258287966" fill="#7eff26" stroke="none" /><path d="M 87.95078237400918 117.19931262002967 l -15.218244687174822 21.72285006606826 a47.523144352651826,47.523144352651826 0 0,0 -0.6659410798894253,-0.47513127866879695 l 15.589913094913134 -21.457674525555245" fill="#ccff1d" stroke="none" /><path d="M 87.36589467227662 116.77436683061367 l -19.16375813273917 25.443820550263606 a52.85337705745096,52.85337705745096 0 0,0 -0.7220054990421017,-0.5536030287715841 l 19.598892360274757 -25.110178179664658" fill="#8dff24" stroke="none" /><path d="M 86.79598089348748 116.32954008644616 l -16.65969668058246 20.603210475470036 a47.49599545941855,47.49599545941855 0 0,0 -0.6313119574871212,-0.5195267615126488 l 17.01187876661427 -20.313388595100207" fill="#ccff1d" stroke="none" /><path d="M 86.51685102203217 116.09983520530335 l -7.135403407965782 8.520177235994863 a32.113388408904584,32.113388408904584 0 0,0 -0.4207381816847542,-0.3585622061516716 l 7.281007066227593 -8.39609063962024" fill="#ff6409" stroke="none" /><path d="M 86.24171649860922 115.8653595955263 l -30.556080161173565 35.235732679715504 a67.63937062496058,67.63937062496058 0 0,0 -0.8730556501181468,-0.7703701027894194 l 31.158078164198297 -34.70453943515379" fill="#37ff7c" stroke="none" /><path d="M 85.97065885151581 115.62618273729859 l -11.8108525989588 13.155182345435291 a38.67922683988144,38.67922683988144 0 0,0 -0.49159538427800403,-0.4490607279238928 l 12.035547532703658 -12.949928850924822" fill="#ffc011" stroke="none" /><path d="M 85.44109423537348 115.13401014063109 l -11.412142630114106 11.862943897206126 a37.4610582077316,37.4610582077316 0 0,0 -0.46086029390574296,-0.4510487958207886 l 11.614652876395644 -11.664744998462767" fill="#ffaf10" stroke="none" /><path d="M 85.18274418774928 114.88116024355367 l -6.388074655850205 6.415625390154547 a30.0536040865233,30.0536040865233 0 0,0 -0.36344735755437757,-0.3681702543523649 l 6.497562638460115 -6.304714641821517" fill="#ff4606" stroke="none" /><path d="M 84.9287848128048 114.62390073753433 l -20.96239356069784 20.340228630882176 a50.20867755565365,50.20867755565365 0 0,0 -0.5965112435267602,-0.6254396540172832 l 21.309411355603558 -19.976381860282395" fill="#abff21" stroke="none" /><path d="M 84.67929136418377 114.36230785411682 l -17.10508117784267 16.035057358347007 a44.445828340795856,44.445828340795856 0 0,0 -0.518436442937294,-0.5626603663674017 l 17.378564028775696 -15.738245737178262" fill="#f2ff19" stroke="none" /><path d="M 84.43433777217949 114.09645910891817 l -15.556663978650526 14.088310181515018 a41.98786025099325,41.98786025099325 0 0,0 -0.4805433635013585,-0.539895563099001 l 15.796866191800223 -13.818440448675153" fill="#ffec16" stroke="none" /><path d="M 84.19399662182784 113.82643327865904 l -21.60711994038858 18.90100837333325 a49.70741628302957,49.70741628302957 0 0,0 -0.5578059512847313,-0.6488543402233071 l 21.929268401244087 -18.526276933948417" fill="#b1ff20" stroke="none" /><path d="M 83.50135304334701 112.99209946851258 l -17.4629842180722 13.75148086836121 a43.2274389859368,43.2274389859368 0 0,0 -0.45531499108624346,-0.5885560030574302 l 17.697106026376513 -13.448846871190527" fill="#fffc17" stroke="none" /><path d="M 83.28015986056508 112.70617746262583 l -21.178429029489816 16.094464742736406 a47.59995585545815,47.59995585545815 0 0,0 -0.4901406742644828,-0.6566235308215107 l 21.452330970449385 -15.727528332405585" fill="#cbff1d" stroke="none" /><path d="M 83.06392112726016 112.41649034213515 l -18.173415529993353 13.323629401311754 a43.5342435517437,43.5342435517437 0 0,0 -0.4378719981795322,-0.608165908104147 l 18.40006732054849 -13.008829887756468" fill="#feff18" stroke="none" /><path d="M 82.6465618267979 111.8261652097733 l -20.102862476063592 13.699865724499944 a45.327174118685754,45.327174118685754 0 0,0 -0.43383910658871194,-0.6485306002871607 l 20.335704688063036 -13.351798210006962" fill="#e7ff1a" stroke="none" /><path d="M 82.24976979558568 111.22182372390057 l -9.68630260014491 6.1237504563830205 a32.459702339660716,32.459702339660716 0 0,0 -0.2945105276932452,-0.47484474483501377 l 9.79027776750611 -5.956109380182743" fill="#ff6909" stroke="none" /><line stroke="#e1ed5e" stroke-width="0.3" x1="26.63291911575756" x2="22.317208475507996" y1="142.92168965132927" y2="145.44649492493687" /><path d="M 25.769776987707644 143.4266507060508 a86.0,86.0 0 0,1 -11.730757126820373,-40.83630448921669" fill="none" id="id33" stroke="none" /><text fill="#e1ed5e" style="font-size:6.75px; font-family:Arial;" text-anchor="middle"><textPath startOffset="21.46611528233685" xlink:href="#id33">September</textPath></text><path d="M 81.87401531095188 110.60418214915194 l -22.882383900193318 13.386801933639623 a47.510563158226645,47.510563158226645 0 0,0 -0.4068895212230224,-0.7094461770721597 l 23.10942541756872 -12.990935910709156" fill="#ccff1d" stroke="none" /><path d="M 81.69416730710424 110.29060199501025 l -9.833646581963896 5.527972686752209 a32.2809169451977,32.2809169451977 0 0,0 -0.2681215923704174,-0.4867185713333759 l 9.92734458378583 -5.357883597021011" fill="#ff6609" stroke="none" /><path d="M 81.51974371655577 109.97397251340807 l -23.354093186853696 12.604429286509697 a47.53837421958756,47.53837421958756 0 0,0 -0.3824518613079075,-0.7234547908474752 l 23.567597556386488 -12.200559480576096" fill="#ccff1d" stroke="none" /><path d="M 81.35079622478065 109.6543875284942 l -7.837832525655556 4.057517602261555 a29.82581825061487,29.82581825061487 0 0,0 -0.2321035663442155,-0.4579623560681884 l 7.906514761786038 -3.9220010344906817" fill="#ff4206" stroke="none" /><path d="M 81.18737489456691 109.33194174019688 l -19.90272203640209 9.872680791443496 a43.21684429589456,43.21684429589456 0 0,0 -0.3248399110236055,-0.6692664311120761 l 20.069715204040413 -9.528625404366137" fill="#fffc17" stroke="none" /><path d="M 81.02952815118164 109.00673069616217 l -18.03791948669729 8.563976923212781 a40.96767988900801,40.96767988900801 0 0,0 -0.29696765563274147,-0.6396419107500235 l 18.18266175916986 -8.25221494518393" fill="#ffdf14" stroke="none" /><path d="M 80.87730276802145 108.67885076344099 l -20.14393311766186 9.14233945118188 a43.12149208551428,43.12149208551428 0 0,0 -0.3009447192772225,-0.6785508948845353 l 20.29831892167036 -8.794240219804648" fill="#fffb17" stroke="none" /><path d="M 80.58989483394504 108.01547362559985 l -16.702866558988152 6.8975095822571575 a39.07100964873557,39.07100964873557 0 0,0 -0.25135196485088346,-0.6238349635352803 l 16.819121138096424 -6.608975250879072" fill="#ffc512" stroke="none" /><path d="M 80.45479744820244 107.68017299344265 l -13.507353355860104 5.30763547636005 a35.51273885350319,35.51273885350319 0 0,0 -0.21866668005046713,-0.5708697006738637 l 13.59671431550408 -5.07434220885303" fill="#ff940d" stroke="none" /><path d="M 80.32549172779594 107.34259656027581 l -31.246532014741938 11.661317036122801 a54.35164280759286,54.35164280759286 0 0,0 -0.3195766314879813,-0.8793376371531573 l 31.442632907235144 -11.121731601963527" fill="#7cff26" stroke="none" /><path d="M 80.20201598880116 107.00284435728193 l -25.035995126478067 8.855607576065438 a47.55603203632465,47.55603203632465 0 0,0 -0.2663345434013976,-0.7740928515607456 l 25.184720500822696 -8.423342021415396" fill="#cbff1d" stroke="none" /><path d="M 79.97269907076064 106.31721596034903 l -21.08253268344125 6.65006794589936 a43.10648294128776,43.10648294128776 0 0,0 -0.21711961079092576,-0.7095594505213546 l 21.193879066738308 -6.286181522825958" fill="#fffb17" stroke="none" /><path d="M 79.76711848015287 105.62410040840567 l -19.853071063955433 5.5185251279889 a41.60578924134452,41.60578924134452 0 0,0 -0.185862815430915,-0.6916646788829042 l 19.945121955728123 -5.175969515930457" fill="#ffe715" stroke="none" /><path d="M 79.67330655649465 105.27499134158121 l -21.417782798532375 5.558140537324996 a43.127230875953835,43.127230875953835 0 0,0 -0.1802896626996933,-0.7201675824799164 l 21.510283775527125 -5.188645115447688" fill="#fffb17" stroke="none" /><path d="M 79.58551787078972 104.9243191809786 l -32.2415012686237 7.777196703582086 a54.16623573185344,54.16623573185344 0 0,0 -0.21083416449494483,-0.9082680626014851 l 32.3705959990492 -7.221059983632027" fill="#7eff26" stroke="none" /><path d="M 79.4281124754447 104.21870165774334 l -18.241868605837922 3.740881882419696 a39.621492085514284,39.621492085514284 0 0,0 -0.1312604695234919,-0.6692943062105648 l 18.303559008337082 -3.426323849141176" fill="#ffcd13" stroke="none" /><path d="M 79.29508885075956 103.50808413554451 l -22.794291779707077 3.8620930462817524 a44.119158731159736,44.119158731159736 0 0,0 -0.12042060845361034,-0.7498592437910909 l 22.857394142521976 -3.4691545727974478" fill="#f6ff19" stroke="none" /><path d="M 79.18660465613746 102.79330883721812 l -46.23456166298078 6.205014008739975 a67.64908242416598,67.64908242416598 0 0,0 -0.14495745761538295,-1.1554535621093358 l 46.33452062984301 -5.408242692343231" fill="#37ff7c" stroke="none" /><path d="M 79.1416061653843 102.43462659150553 l -26.387045489209235 3.0799400533266676 a47.566185280948474,47.566185280948474 0 0,0 -0.08792427804671246,-0.8140696163753725 l 26.436152068757 -2.6252741150665133" fill="#cbff1d" stroke="none" /><path d="M 79.07016306316243 101.71520430193888 l -33.037165303833525 2.7074022709306 a54.14791574698871,54.14791574698871 0 0,0 -0.0681321083423366,-0.929608487119024 l 33.0788739708402 -2.138320647314815" fill="#7eff26" stroke="none" /><path d="M 79.04373962182676 101.35467743843564 l -24.270337164976052 1.5689096044475246 a45.320993882827764,45.320993882827764 0 0,0 -0.043623936560752655,-0.7789346921952932 l 24.293747452424338 -1.1509031959167937" fill="#e7ff1a" stroke="none" /><path d="M 79.0235259727143 100.99374915477108 l -33.13304867272598 1.5696603285509838 a54.17020874061928,54.17020874061928 0 0,0 -0.03610797073209079,-0.93178628243395 l 33.15515877630927 -0.999096799103037" fill="#7eff26" stroke="none" /><line stroke="#e1ed5e" stroke-width="0.3" x1="15.007084014347285" x2="10.007500721073583" y1="101.09737516637583" y2="101.16192664675087" /><path d="M 14.007167355692545 101.11028546245083 a86.0,86.0 0 0,1 10.666146001902534,-42.60595125391555" fill="none" id="id34" stroke="none" /><text fill="#e1ed5e" style="font-size:6.75px; font-family:Arial;" text-anchor="middle"><textPath startOffset="22.20632615414155" xlink:href="#id34">October</textPath></text><path d="M 79.00175016825051 100.2711162175752 l -40.36615689682251 0.5211824729967012 a61.36952134703916,61.36952134703916 0 0,0 -0.004546320509594834,-1.0564047759110413 l 40.36914751462161 0.1737317811180155" fill="#30ff2f" stroke="none" /><path d="M 79.00019446554 99.90962569577889 l -33.13701419661152 -0.14260773020349585 a54.137321056946455,54.137321056946455 0 0,0 0.012031356763748434,-0.9318418403726414 l 33.12964983273005 0.7129858286366092" fill="#7eff26" stroke="none" /><path d="M 79.01574976396665 99.18683210126434 l -33.11908515369663 -1.2834090605835964 a54.14394273822287,54.14394273822287 0 0,0 0.04410511886966895,-0.9309893507815266 l 33.09208642659346 1.853309517988132" fill="#7eff26" stroke="none" /><path d="M 79.03285615573316 98.82574320788736 l -33.07732114272759 -1.8524825939685448 a54.12915431670555,54.12915431670555 0 0,0 0.06010761371888051,-0.9298381799714994 l 33.0405329380043 2.421579838193056" fill="#7eff26" stroke="none" /><path d="M 79.05617556472873 98.46500227214037 l -28.645812299109224 -2.0994855513482378 a49.722646149965314,49.722646149965314 0 0,0 0.06990889492562963,-0.8530655908302258 l 28.605428920364098 2.592265059386242" fill="#b1ff20" stroke="none" /><path d="M 79.08570108090925 98.10471618934814 l -30.80650599543983 -2.7917298256940453 a51.932742637321056,51.932742637321056 0 0,0 0.08834223039096115,-0.8895942040130344 l 30.753886639366645 3.3215995604115096" fill="#97ff23" stroke="none" /><path d="M 79.16333360222342 97.38593545837743 l -32.89053621202502 -4.126283102367179 a54.14835719240714,54.14835719240714 0 0,0 0.1239842694407835,-0.9238268185414598 l 32.814635943526405 4.6918282629732975" fill="#7eff26" stroke="none" /><path d="M 79.26566170972629 96.67025291283419 l -32.72770440753668 -5.255773147664812 a54.14703285615185,54.14703285615185 0 0,0 0.15570659611363485,-0.9189891443077297 l 32.632385949902826 5.81834808028837" fill="#7eff26" stroke="none" /><path d="M 79.32604984820605 96.31383870115002 l -32.615654178848104 -5.815364808757276 a54.13003720754241,54.13003720754241 0 0,0 0.17144858283771136,-0.9158851851241162 l 32.51071987210053 6.3759280713439646" fill="#7eff26" stroke="none" /><path d="M 79.3925641242962 95.95851677861259 l -32.515051804554275 -6.376777640035265 a54.13445166172668,54.13445166172668 0 0,0 0.18720390452048968,-0.9128727225553793 l 32.40046860411879 6.9355260187540475" fill="#7eff26" stroke="none" /><path d="M 79.54389044137918 95.25157060432595 l -32.2795095369492 -7.492967884433077 a54.13776250236488,54.13776250236488 0 0,0 0.2185288822605017,-0.9059432984879594 l 32.14574785442788 8.047496414580433" fill="#7eff26" stroke="none" /><path d="M 79.62865764111835 94.90015583598534 l -32.14189378196294 -8.046531570505763 a54.13378949359904,54.13378949359904 0 0,0 0.23407365027521,-0.9019812591616984 l 31.998623799817427 8.598609255216326" fill="#7eff26" stroke="none" /><path d="M 79.81627453868168 94.20196356495316 l -21.249957032744028 -6.104325257255178 a43.10935233650753,43.10935233650753 0 0,0 0.2110184380726967,-0.7114492702963298 l 21.141732697559622 6.469203914298047" fill="#fffb17" stroke="none" /><path d="M 79.91906864156998 93.8553929516997 l -21.12294811355992 -6.463455979345045 a43.08970801538752,43.08970801538752 0 0,0 0.2231318787001269,-0.7073890317637734 l 21.00856075109159 6.826095177535232" fill="#fffa17" stroke="none" /><path d="M 80.14247586403 93.16781622104843 l -36.20238161359379 -12.455798755484073 a59.28523680393518,59.28523680393518 0 0,0 0.34031679286548944,-0.9621214009829306 l 35.9826117399185 13.077117782893616" fill="#46ff2c" stroke="none" /><path d="M 80.2630227832202 92.82701384747504 l -24.917772964313585 -9.055836588432951 a47.51232893990036,47.51232893990036 0 0,0 0.28596858893355875,-0.7662536437045471 l 24.7581997868784 9.48341336916684" fill="#ccff1d" stroke="none" /><path d="M 80.52162464483688 92.15188598940014 l -20.577363382601224 -8.290911891755389 a43.18483950305858,43.18483950305858 0 0,0 0.28374149079629657,-0.6871025261363933 l 20.431600204918727 8.643888988345093" fill="#fffc17" stroke="none" /><path d="M 80.65960295795068 91.81776055985345 l -30.540475407290664 -12.92059733081264 a54.16115910954152,54.16115910954152 0 0,0 0.37064103474903987,-0.8554906098483916 l 30.313543662698944 13.44438708524763" fill="#7eff26" stroke="none" /><path d="M 80.803312248108 91.48605970444005 l -34.335804812705966 -15.228303754983266 a58.561266317714576,58.561266317714576 0 0,0 0.4166151192170797,-0.9179561907680847 l 34.06858737652553 15.817081954593421" fill="#4dff2c" stroke="none" /><path d="M 81.10775173730289 90.83032412892265 l -29.872119063035935 -14.498943989166317 a54.20486220596582,54.20486220596582 0 0,0 0.4146413506013521,-0.8358916610541457 l 29.61811769948117 15.010995238719424" fill="#7dff26" stroke="none" /><path d="M 81.26839172434947 90.50648371742162 l -23.58924182324386 -11.955452412153711 a47.445891404427066,47.445891404427066 0 0,0 0.37547902793930515,-0.7253059694045223 l 23.37995336214444 12.359731103818568" fill="#cdff1d" stroke="none" /><path d="M 81.43458229118936 90.18545643968196 l -31.591182652959766 -16.700568935882046 a56.73390300813521,56.73390300813521 0 0,0 0.46384531648674254,-0.8594349255551829 l 31.29902923725455 17.2418848447697" fill="#61ff29" stroke="none" /><line stroke="#e1ed5e" stroke-width="0.3" x1="26.266209847984243" x2="21.928928074336255" y1="57.711370442889674" y2="55.22380399835377" /><path d="M 25.398753493254645 57.213857153982495 a86.0,86.0 0 0,1 29.58750427330803,-30.492523968695096" fill="none" id="id35" stroke="none" /><text fill="#e1ed5e" style="font-size:6.75px; font-family:Arial;" text-anchor="middle"><textPath startOffset="21.46611528233685" xlink:href="#id35">November</textPath></text><path d="M 81.78341655067845 89.55222093294921 l -21.079019834591527 -12.089475657961312 a45.29980450274327,45.29980450274327 0 0,0 0.3937638600172093,-0.6730700771999892 l 20.867796300103993 12.450525147515194" fill="#e7ff1a" stroke="none" /><path d="M 81.96595687620814 89.24020034530311 l -28.56991847844961 -17.045905727794707 a54.26865106892855,54.26865106892855 0 0,0 0.4855343897223562,-0.7980908740316897 l 28.272268290441033 17.53516437503347" fill="#7cff26" stroke="none" /><path d="M 82.15384107792192 88.93136811851018 l -18.778213784113838 -11.646715501963667 a43.09677114208236,43.09677114208236 0 0,0 0.39643366074065134,-0.6270628475421609 l 18.574952527127223 11.968225997220044" fill="#fffa17" stroke="none" /><path d="M 82.54541684631803 88.32363383020206 l -38.806369539728884 -25.959793853385975 a67.68881251182444,67.68881251182444 0 0,0 0.6561802940639577,-0.9628636131433528 l 38.35376477999618 26.623935489799745" fill="#38ff7d" stroke="none" /><path d="M 82.95767976084542 87.72973835380427 l -37.92418699116657 -27.30494971170372 a67.73119127199345,67.73119127199345 0 0,0 0.6893660892292989,-0.9402945709835787 l 37.448558289423644 27.9537067263588" fill="#38ff7d" stroke="none" /><path d="M 83.39014120810768 87.1503855733568 l -49.82957637567698 -38.54884327992962 a84.0,84.0 0 0,0 0.8945836776241158,-1.1360304241878092 l 49.15863861745889 39.40086609807048" fill="#4dd2ff" stroke="none" /><path d="M 83.6137871275137 86.86637796730984 l -17.250630294939146 -13.826456416895581 a43.107807277543046,43.107807277543046 0 0,0 0.46905709362851644,-0.5750085348535108 l 17.01007470923424 14.121349121357174" fill="#fffb17" stroke="none" /><path d="M 83.84228863543731 86.58626213691792 l -27.254738268502273 -22.6262189249409 a56.42268398814404,56.42268398814404 0 0,0 0.6268006349049515,-0.7419342486300265 l 26.861227020110196 23.092012123200043" fill="#65ff29" stroke="none" /><path d="M 84.31358615837235 86.03803664274999 l -27.227078423751337 -24.23393103837328 a57.449927476824115,57.449927476824115 0 0,0 0.6638376308761136,-0.7330260923324367 l 26.805897152259178 24.699009917975275" fill="#59ff2a" stroke="none" /><path d="M 84.5562425177563 85.77008943001954 l -24.63482384788246 -22.698578416919073 a54.497761241092256,54.497761241092256 0 0,0 0.6416013075357109,-0.6844155405216218 l 24.24045521837629 23.119263374318745" fill="#7aff26" stroke="none" /><path d="M 84.80347519578584 85.50635884689758 l -24.177683422029194 -23.059394956867266 a54.41101721637132,54.41101721637132 0 0,0 0.6522474991250256,-0.6721983820221602 l 23.77717165920105 23.47215753443955" fill="#7bff26" stroke="none" /><path d="M 85.05521093208273 85.24692304244772 l -15.714003842313344 -15.512424226488546 a43.08087910701898,43.08087910701898 0 0,0 0.5255132821208681,-0.5232565610798701 l 15.444654760025163 15.780616638218525" fill="#fffa17" stroke="none" /><path d="M 85.57189188830299 84.74124197986013 l -25.90772127882985 -27.399271393482525 a58.708488364760036,58.708488364760036 0 0,0 0.7402640415861845,-0.6879947497646363 l 25.43224935344881 27.84117072932181" fill="#4cff2c" stroke="none" /><path d="M 85.83668400450813 84.49514656593479 l -29.8188549791363 -32.643271968959404 a65.21252443715709,65.21252443715709 0 0,0 0.8353072640344984,-0.7499471091538603 l 29.25253672750583 33.15171808688254" fill="#34ff5f" stroke="none" /><path d="M 86.10567301691215 84.25364557470407 l -19.074433270711697 -21.616936689907487 a49.82925521851548,49.82925521851548 0 0,0 0.6480323147137714,-0.5619672375033109 l 18.699507157351153 21.94206892083048" fill="#b0ff20" stroke="none" /><path d="M 86.37877921826538 84.01681056812374 l -14.364688435552573 -16.855577049539683 a43.14621302894621,43.14621302894621 0 0,0 0.5694117976061465,-0.4768660050884965 l 14.072419100987316 17.10034421202199" fill="#fffb17" stroke="none" /><path d="M 86.93701828274178 83.55741782278169 l -22.415984361320238 -28.215354880065515 a57.035851674339405,57.035851674339405 0 0,0 0.7739695674258331,-0.604095523877713 l 21.92698223873498 28.597028793166448" fill="#5eff2a" stroke="none" /><path d="M 87.80319425747018 82.90503203632743 l -2.5817354149461673 -3.6185444895041305 a25.445134640852622,25.445134640852622 0 0,0 0.3587386674408365,-0.25131936202024274 l 2.5190656079216707 3.662448694288316" fill="#ff0000" stroke="none" /><path d="M 88.09926311788651 82.69761687909137 l -16.945122295305058 -24.636373435385963 a50.901305417165915,50.901305417165915 0 0,0 0.7261805786458042,-0.4903203683019083 l 16.518537022252712 24.924405715986534" fill="#a3ff21" stroke="none" /><path d="M 88.39885842347998 82.49532879139004 l -15.90934966739057 -24.0052182135353 a49.79857476193479,49.79857476193479 0 0,0 0.7186004867529825,-0.4673977457571035 l 15.493782154853301 24.27551488345194" fill="#b0ff20" stroke="none" /><path d="M 88.70189139769569 82.29822771554957 l -11.38182732342248 -17.83294200403313 a42.155609509995585,42.155609509995585 0 0,0 0.6150319701874863,-0.38513296330826424 l 11.07317620086275 18.026219308664324" fill="#ffee16" stroke="none" /><path d="M 89.00827224532344 82.1063720568725 l -19.71456751694079 -32.09369300997447 a58.66522671375417,58.66522671375417 0 0,0 0.8649990278342864,-0.5211522357299821 l 19.159206422888854 32.428291855163074" fill="#4cff2c" stroke="none" /><line stroke="#e1ed5e" stroke-width="0.3" x1="56.762969772571076" x2="54.21961505331055" y1="26.818313649435495" y2="22.513508569990535" /><path d="M 56.25429882871897 25.957352633546506 a86.0,86.0 0 0,1 42.265352541879196,-11.944610805530505" fill="none" id="id36" stroke="none" /><text fill="#e1ed5e" style="font-size:6.75px; font-family:Arial;" text-anchor="middle"><textPath startOffset="22.20632615414155" xlink:href="#id36">December</textPath></text><path d="M 89.63071344664047 81.73862282372117 l -16.712902662315518 -29.43313579545132 a54.84716528977739,54.84716528977739 0 0,0 0.8249951570345007,-0.45910891168639817 l 16.20378341620897 29.716460104697905" fill="#76ff27" stroke="none" /><path d="M 89.94658935756843 81.56283822128135 l -18.0063641076937 -33.02225084677985 a58.61247398625212,58.61247398625212 0 0,0 0.8899465555117778,-0.4753786291534068 l 17.435272505653614 33.327308202435006" fill="#4dff2c" stroke="none" /><path d="M 90.26544431104013 81.39251694778311 l -10.265780732968617 -19.622913167277645 a43.14599230623699,43.14599230623699 0 0,0 0.6610366917670305,-0.3386086683274761 l 9.926483553612822 19.796714360917626" fill="#fffb17" stroke="none" /><path d="M 90.58718382345135 81.22770947309562 l -9.93390363321217 -19.81151247100064 a43.16254650942801,43.16254650942801 0 0,0 0.6670231681575349,-0.3273053717650872 l 9.591409198044209 19.979573002900555" fill="#fffb17" stroke="none" /><path d="M 95.692805502759 79.44645832069477 l -3.7631702358911783 -17.95750722175534 a39.34757520338021,39.34757520338021 0 0,0 0.6641001122902818,-0.13321223499594173 l 3.4535037141337597 18.01962341282849" fill="#ffc912" stroke="none" /><path d="M 96.04723909329186 79.375362276772 l -3.435763610844315 -17.92705945256049 a39.253326606546004,39.253326606546004 0 0,0 0.6646987835347318,-0.12146945404327295 l 3.1266697062066897 17.983544387954495" fill="#ffc812" stroke="none" /><path d="M 96.75951476605007 79.25152402106235 l -3.4642899518692913 -22.181473347687504 a43.45036892224254,43.45036892224254 0 0,0 0.7399618923053787,-0.10905114797347602 l 3.081959079135264 22.23781897982195" fill="#ffff18" stroke="none" /></svg>