<?xml version="1.0" encoding="utf-8" ?>
<svg baseProfile="full" height="200mm" version="1.1" viewBox="0,0,200,200" width="200mm" xmlns="http://www.w3.org/2000/svg" xmlns:ev="http://www.w3.org/2001/xml-events" xmlns:xlink="http://www.w3.org/1999/xlink"><defs /><rect fill="#1a1a1a" height="200" width="200" x="0" y="0" /><text alignment-baseline="middle" fill="#e1ed5e" style="dominant-baseline: central; font-size:9.0px; font-family:Arial;" text-anchor="middle" x="100.0" y="100.0">2024</text><line stroke="#e1ed5e" stroke-width="0.3" x1="100.0" x2="100.0" y1="15.0" y2="10.0" /><path d="M 100.0 14.0 a86.0,86.0 0 0,1 42.35913384403234,11.155469271406648" fill="none" id="id49" stroke="none" /><text fill="#e1ed5e" style="font-size:6.75px; font-family:Arial;" text-anchor="middle"><textPath startOffset="22.145653131862478" xlink:href="#id49">January</textPath></text><path d="M 100.0 79.0 l 0.0 -27.68872430657383 a48.68872430657383,48.68872430657383 0 0,0 0.8358066967826824,0.007174395265885773 l -0.47531377193382757 27.68464430950238" fill="#daff1c" stroke="none" /><path d="M 100.72087961077811 79.0123766808444 l 1.4043452083391206 -40.8859784657644 a61.91008947151223,61.91008947151223 0 0,0 1.0618294945969569,0.04559952726910956 l -2.1060004635369136 40.855846370069465" fill="#39ff2e" stroke="none" /><path d="M 101.44090949804482 79.04949213459386 l 2.943255426733892 -42.79428794893673 a63.895382427057456,63.895382427057456 0 0,0 1.0936181683322925,0.084652962753607 l -3.6774425898414176 42.737457219188066" fill="#31ff3e" stroke="none" /><path d="M 101.80034050326958 79.07731436759882 l 2.7307664531005242 -31.735645523703553 a52.85291638496457,52.85291638496457 0 0,0 0.9032826079494852,0.08554180211220277 l -3.2751486244350225 31.684091966086164" fill="#a4ff21" stroke="none" /><path d="M 102.15924093988457 79.11130261209362 l 4.696208274881923 -45.431555002766174 a66.67363092781696,66.67363092781696 0 0,0 1.1374651557788373,0.12745534323029137 l -5.475409332261557 45.34424389902892" fill="#35ff63" stroke="none" /><path d="M 102.87502721639298 79.19773525538626 l 4.723798131100662 -34.179050119237516 a55.50393797578386,55.50393797578386 0 0,0 0.9427076769462133,0.1385455645893329 l -5.309830913654558 34.092923481349295" fill="#83ff25" stroke="none" /><path d="M 103.23170211078529 79.25015418208739 l 5.749337406651839 -36.914870447076595 a58.35990552370248,58.35990552370248 0 0,0 0.9885681578323023,0.16266851417700254 l -6.382183067537212 36.81073593440392" fill="#62ff29" stroke="none" /><path d="M 103.58742460773223 79.30868818359171 l 7.327381932386277 -42.2623918100295 a63.89289320490644,63.89289320490644 0 0,0 1.0790757139386769,0.19664354098292017 l -8.051792379876009 42.130380095115214" fill="#31ff3e" stroke="none" /><path d="M 104.29559338865022 79.4440306129975 l 1.6411293212540785 -7.853397897702658 a29.02303957292499,29.02303957292499 0 0,0 0.4868097772159208,0.10609792516861091 l -1.7757015150891333 7.824068514400328" fill="#ff0000" stroke="none" /><path d="M 104.9986988182912 79.60360301121754 l 5.274197606451929 -21.520526058670225 a43.15739610680387,43.15739610680387 0 0,0 0.7180459884710592,0.18252448237234797 l -5.642848888148382 21.42681634446261" fill="#ffd814" stroke="none" /><path d="M 105.3480935250658 79.69241777938227 l 7.074128713981906 -26.861618972277174 a48.777506563292974,48.777506563292974 0 0,0 0.8078916189877805,0.2201944532895734 l -7.5342017339043785 26.73622402484346" fill="#d9ff1c" stroke="none" /><path d="M 106.04205211174951 79.88797359093562 l 10.221318087633488 -34.02344361018892 a56.52562537865152,56.52562537865152 0 0,0 0.9269108848537028,0.28715936151227395 l -10.803869605358821 33.84296766087" fill="#77ff27" stroke="none" /><path d="M 106.38641147887787 79.99465700312896 l 13.046636053183489 -40.86840161529004 a63.90036087135945,63.90036087135945 0 0,0 1.0421152692640243,0.34256398804647437 l -13.746274060095256 40.63841670584155" fill="#31ff3e" stroke="none" /><path d="M 106.72888874123014 80.10723608172694 l 5.578181472275004 -16.490902344889335 a38.408789983405185,38.408789983405185 0 0,0 0.6227605377183134,0.21662844232277775 l -5.860447782038335 16.392715469997967" fill="#ff930d" stroke="none" /><path d="M 107.06938296918511 80.22567764915836 l 14.041406821432394 -39.27631392394584 a62.710789263418526,62.710789263418526 0 0,0 1.0105719711939463,0.3710960257027609 l -14.713567944280467 39.029487049234355" fill="#31ff2f" stroke="none" /><path d="M 109.71004243097381 81.37971332152246 l 12.83361518512987 -24.610149293077306 a48.75538014417294,48.75538014417294 0 0,0 0.7387860596406539,0.3933619644683507 l -13.254190060557084 24.386216860886382" fill="#d9ff1c" stroke="none" /><path d="M 110.34350942703115 81.72400993836675 l 12.719980010107289 -22.474985872915603 a46.82485007594981,46.82485007594981 0 0,0 0.6961462326199607,0.40192021479847817 l -13.103918710587646 22.253318760840955" fill="#f3ff19" stroke="none" /><line stroke="#e1ed5e" stroke-width="0.3" x1="143.13028292997686" x2="145.6673583964461" y1="26.7553504044142" y2="22.446841604673864" /><path d="M 143.63769802327073 25.89364864446614 a86.0,86.0 0 0,1 29.32050498858742,28.57503671076993" fill="none" id="id50" stroke="none" /><text fill="#e1ed5e" style="font-size:6.75px; font-family:Arial;" text-anchor="middle"><textPath startOffset="20.669276256404974" xlink:href="#id50">February</textPath></text><path d="M 110.65571695917076 81.90426304109057 l 14.65426560254521 -24.886146721589466 a49.88023197618776,49.88023197618776 0 0,0 0.7341117047217178,0.4408129859429007 l -15.079310063824364 24.630919735110645" fill="#caff1d" stroke="none" /><path d="M 111.27062007382361 82.28071324371311 l 14.879730094829517 -23.393407166549004 a48.72467973764389,48.72467973764389 0 0,0 0.7019007468720546,0.4549635839982226 l -15.27911647395858 23.134529740846887" fill="#d9ff1c" stroke="none" /><path d="M 111.5731344415666 82.4767994020092 l 15.547229979187906 -23.54048776016183 a49.21118437804567,49.21118437804567 0 0,0 0.7009165673626827,0.47160794743413875 l -15.949042834647589 23.270130138670574" fill="#d3ff1c" stroke="none" /><path d="M 112.16784306229584 82.88440491214696 l 22.90721376361121 -32.22186490749227 a60.534655942963006,60.534655942963006 0 0,0 0.8417747174201685,0.6093799795970809 l -23.456969491405346 31.82388415652211" fill="#49ff2c" stroke="none" /><path d="M 113.31354834802062 83.75963576809568 l 16.7521987963034 -20.434958662067352 a47.423922873624775,47.423922873624775 0 0,0 0.6251504298164869,0.5215227227984195 l -17.10052356028178 20.144373755357062" fill="#ebff1a" stroke="none" /><path d="M 114.13192950727249 84.46653392183569 l 11.586057896122677 -12.735107206447168 a38.21684329753887,38.21684329753887 0 0,0 0.4814780462327727,0.4456488915431981 l -11.802965713669414 12.534340568771595" fill="#ff910d" stroke="none" /><line stroke="#e1ed5e" stroke-width="0.3" x1="172.87174338648825" x2="177.1583165268699" y1="56.24261187166439" y2="53.66864786411523" /><path d="M 173.72905801456457 55.72781907015455 a86.0,86.0 0 0,1 12.242430191666344,42.057860355516425" fill="none" id="id51" stroke="none" /><text fill="#e1ed5e" style="font-size:6.75px; font-family:Arial;" text-anchor="middle"><textPath startOffset="22.145653131862474" xlink:href="#id51">March</textPath></text><path d="M 120.05942366710727 93.78553927170692 l 13.219130430947738 -4.09532039846264 a34.83896883862641,34.83896883862641 0 0,0 0.17207743120101354,0.5727898033167744 l -13.287484182152378 3.867792991555142" fill="#ff5d08" stroke="none" /><path d="M 120.26092885502905 94.47779374421319 l 13.376738757765118 -3.645889632143941 a34.864690800853445,34.864690800853445 0 0,0 0.15242596971470948,0.5787862343900885 l -13.437354208284557 3.415722893381054" fill="#ff5d08" stroke="none" /><path d="M 120.592083275326 95.88100663000786 l 20.369602495718404 -4.074490983132987 a41.77311201060663,41.77311201060663 0 0,0 0.13461625584145304,0.7043691339777071 l -20.436545043842013 3.7242192841219657" fill="#ffc512" stroke="none" /><path d="M 120.7213421655516 96.59031103205396 l 27.78307499907346 -4.571694418397561 a49.156698070962584,49.156698070962584 0 0,0 0.129863821923182,0.8338188947668951 l -27.857460313134908 4.0940873416992245" fill="#d4ff1c" stroke="none" /><path d="M 120.77682067341334 96.94652285012252 l 27.40020643865922 -4.026886768553252 a48.69453249159284,48.69453249159284 0 0,0 0.1144448662971655,0.8280660418799342 l -27.4652958215116 3.555932418473233" fill="#daff1c" stroke="none" /><path d="M 120.86939407059847 97.66154086499901 l 28.25589264979138 -3.166131707561214 a49.43272514948504,49.43272514948504 0 0,0 0.08725489782870412,0.8441119852302923 l -28.30607994010175 2.68061520004799" fill="#d0ff1d" stroke="none" /><path d="M 120.9064616781168 98.02013634271609 l 28.500751183743848 -2.699050769219826 a49.62826737845835,49.62826737845835 0 0,0 0.07303952173600171,0.8488299570264414 l -28.54288432817759 2.2093997648177224" fill="#cdff1d" stroke="none" /><path d="M 120.96210409425399 98.7389718711861 l 20.735073377162546 -1.2473705246406934 a41.77255885012863,41.77255885012863 0 0,0 0.03691582364715075,0.7161571166131805 l -20.75343079026627 0.8912416146507822" fill="#ffc512" stroke="none" /><path d="M 120.98066250479742 99.09900007780936 l 41.51155911496346 -1.782684961642275 a62.54981956432027,62.54981956432027 0 0,0 0.03686064739995884,1.0731575305556782 l -41.53604444936027 1.0698211665224768" fill="#32ff2f" stroke="none" /><path d="M 120.99303781780057 99.45929381324524 l 13.836316190693653 -0.3563744242798185 a34.84090490029941,34.84090490029941 0 0,0 0.01026739633999404,0.5980243629400661 l -13.840395018632314 0.11880314537068597" fill="#ff5d08" stroke="none" /><line stroke="#e1ed5e" stroke-width="0.3" x1="184.99686870605535" x2="189.99668451229388" y1="99.2704041080226" y2="99.22748670261217" /><path d="M 185.99683186730306 99.26182062694052 a86.0,86.0 0 0,1 -10.086455211305974,41.156179273409016" fill="none" id="id52" stroke="none" /><text fill="#e1ed5e" style="font-size:6.75px; font-family:Arial;" text-anchor="middle"><textPath startOffset="21.40746469413373" xlink:href="#id52">April</textPath></text><path d="M 120.99922638620191 100.18025310272382 l 16.622689722935437 0.14268579913702692 a37.62330210464391,37.62330210464391 0 0,0 -0.011087351359931118,0.6457826321450589 l -16.617790939976835 -0.428015347251157" fill="#ff880c" stroke="none" /><path d="M 120.99303781780057 100.54070618675476 l 20.005052088432926 0.5152591789928991 a41.0116866126384,41.0116866126384 0 0,0 -0.02416821231517471,0.703631131723502 l -19.993259189120906 -0.8585965752805118" fill="#ffba11" stroke="none" /><path d="M 120.96210409425399 101.26102812881392 l 27.61915638973891 1.6614998639911478 a48.669087109604796,48.669087109604796 0 0,0 -0.05732763946685552,0.8335312961606877 l -27.586564789106987 -2.135374584306179" fill="#daff1c" stroke="none" /><path d="M 120.82617615685814 102.69636545807757 l 13.740328055794373 1.778960557773721 a34.85501049248843,34.85501049248843 0 0,0 -0.08191837587285654,0.5927205602226824 l -13.707765163366306 -2.0145694261964886" fill="#ff5d08" stroke="none" /><path d="M 120.77682067341334 103.0534771498775 l 14.38694177404773 2.1143849992355688 a35.541482645687545,35.541482645687545 0 0,0 -0.09389468687506689,0.6028712452415314 l -14.348525595034394 -2.361044426408551" fill="#ff6809" stroke="none" /><path d="M 120.65975698304385 103.76489593502545 l 27.226233201789874 4.961526642912694 a48.674618714384806,48.674618714384806 0 0,0 -0.1568567581026009,0.820740839749766 l -27.137050151405113 -5.428170047695774" fill="#daff1c" stroke="none" /><path d="M 120.592083275326 104.11899336999214 l 27.133253242529246 5.427410559581967 a48.67074659103881,48.67074659103881 0 0,0 -0.1709091556909743,0.817862179792112 l -27.03608637601391 -5.892389190659488" fill="#daff1c" stroke="none" /><path d="M 120.51834098615036 104.47187691870673 l 40.545211757707676 8.836640191609726 a62.49699273867119,62.49699273867119 0 0,0 -0.2374562478978809,1.0462760418561599 l -40.38754464825213 -9.531350567404903" fill="#33ff2f" stroke="none" /><path d="M 120.35273937422433 105.17358676015961 l 26.934216737785164 6.846572569309744 a48.79078241476499,48.79078241476499 0 0,0 -0.21330986025919094,0.8099722836519844 l -26.812717396721244 -7.307925357334532" fill="#d8ff1c" stroke="none" /><path d="M 120.26092885502905 105.52220625578681 l 26.811116318851216 7.307488976441379 a48.78912293333099,48.78912293333099 0 0,0 -0.22717495289427658,0.8061637646470409 l -26.681722873882357 -7.766660664991428" fill="#d8ff1c" stroke="none" /><path d="M 120.05942366710727 106.21446072829308 l 21.159168522955557 6.555164495820463 a43.15131134154586,43.15131134154586 0 0,0 -0.22528125159593082,0.705690311976717 l -21.04352255558237 -6.917423841488564" fill="#ffd814" stroke="none" /><path d="M 119.71291397450082 107.23885506374661 l 13.0112917240885 4.7779265462546805 a34.86081867750744,34.86081867750744 0 0,0 -0.21110602251844748,0.5599838056344367 l -12.927355017755612 -5.0005786320832755" fill="#ff5d08" stroke="none" /><path d="M 119.4528033332814 107.91128576633889 l 25.6512910045324 10.432156740369505 a48.69149010896383,48.69149010896383 0 0,0 -0.3215357747200299,0.7715688083392732 l -25.468429385275886 -10.870958058150055" fill="#daff1c" stroke="none" /><path d="M 118.5362547648365 109.86951160357373 l 12.216340910595456 6.5045134467538555 a34.840075159582405,34.840075159582405 0 0,0 -0.28561337897491534,0.5254964480085365 l -12.102882182005201 -6.713264728236996" fill="#ff5d08" stroke="none" /><line stroke="#e1ed5e" stroke-width="0.3" x1="174.33088141563837" x2="178.70328620479359" y1="141.23008692659167" y2="143.65538615756765" /><path d="M 175.20536237346943 141.71514677278685 a86.0,86.0 0 0,1 -30.301960400862466,31.631185727798858" fill="none" id="id53" stroke="none" /><text fill="#e1ed5e" style="font-size:6.75px; font-family:Arial;" text-anchor="middle"><textPath startOffset="22.145653131862474" xlink:href="#id53">May</textPath></text><path d="M 118.36410011445183 110.18625677009912 l 24.512448109149947 13.59664176013915 a49.03085406221738,49.03085406221738 0 0,0 -0.41458303647408684,0.7325285008704109 l -24.27543170765448 -14.015427031108683" fill="#d5ff1c" stroke="none" /><path d="M 118.18653347947321 110.5 l 23.9908753980214 13.85113836914242 a48.70227673828485,48.70227673828485 0 0,0 -0.4242346091413276,0.7204431128663062 l -23.74956707875031 -14.260932650302275" fill="#daff1c" stroke="none" /><path d="M 117.62189284568427 111.42229804090321 l 23.241152430929272 15.06463421409076 a48.69646855326584,48.69646855326584 0 0,0 -0.46070467678091803,0.6975655997453104 l -22.97912331522763 -15.46137969217513" fill="#daff1c" stroke="none" /><path d="M 117.21940702142032 112.02048342749411 l 11.384983693386507 7.947602820376045 a34.884604578061484,34.884604578061484 0 0,0 -0.34699367571950746,0.4880900601080171 l -11.246874919137039 -8.141870107193567" fill="#ff5e08" stroke="none" /><path d="M 116.57777611688842 112.89097897827486 l 21.86321497920759 17.0009682063054 a48.69536223230984,48.69536223230984 0 0,0 -0.5187993906398464,0.6554860822344847 l -21.568149157926182 -17.373774232454572" fill="#daff1c" stroke="none" /><path d="M 116.1254893667686 113.45245675266167 l 21.248249995607182 17.726045866534168 a48.6712997515168,48.6712997515168 0 0,0 -0.5407275634858902,0.6369757101462598 l -20.940827868614175 -18.088188359129987" fill="#daff1c" stroke="none" /><path d="M 114.39649973595853 115.28858382429668 l 9.488599225837499 10.076563560587912 a34.84090490029941,34.84090490029941 0 0,0 -0.43894600843335874,0.4062818723225114 l -9.314223446090173 -10.237963179042803" fill="#ff5d08" stroke="none" /><path d="M 113.86319453409587 115.77377054828091 l 18.29483755242125 20.81616679764686 a48.71306336760587,48.71306336760587 0 0,0 -0.6328534900140579,0.5466437718187782 l -17.934804582644336 -21.12715470193036" fill="#d9ff1c" stroke="none" /><path d="M 113.59037401385872 116.0094264158162 l 17.90455495964942 21.091520722103947 a48.66632130721479,48.66632130721479 0 0,0 -0.6415279428457566,0.5351854266538763 l -17.53985268264177 -21.395768332669693" fill="#daff1c" stroke="none" /><path d="M 113.03279911837588 116.46651593811092 l 17.188519348973006 21.717132692801243 a48.696191973026835,48.696191973026835 0 0,0 -0.6599262842693877,0.5131626701763243 l -16.813183120068388 -22.00899641459836" fill="#daff1c" stroke="none" /><line stroke="#e1ed5e" stroke-width="0.3" x1="143.1302829299769" x2="145.66735839644613" y1="173.24464959558577" y2="177.55315839532614" /><path d="M 143.63769802327073 174.10635135553383 a86.0,86.0 0 0,1 -40.68552437913181,11.842963189579606" fill="none" id="id54" stroke="none" /><text fill="#e1ed5e" style="font-size:6.75px; font-family:Arial;" text-anchor="middle"><textPath startOffset="21.407464694133747" xlink:href="#id54">June</textPath></text><path d="M 110.02825361518725 118.45085714620011 l 5.373156090995528 9.886002016248598 a32.251837283016215,32.251837283016215 0 0,0 -0.4887093016613318,0.26021017647377453 l -5.202657973547643 -9.976782660444941" fill="#ff3405" stroke="none" /><path d="M 108.4095320186766 119.2426549942271 l 5.706787243008379 13.058246023534142 a35.250796814498074,35.250796814498074 0 0,0 -0.5565679902848314,0.23756577947414328 l -5.481784177553116 -13.15428645266769" fill="#ff6309" stroke="none" /><path d="M 108.07796709384702 119.3841803445677 l 10.64588553018292 25.54624977389111 a48.675725035340804,48.675725035340804 0 0,0 -0.7740495820891824,0.3147992264305575 l -10.205781486903296 -25.72523625690096" fill="#daff1c" stroke="none" /><path d="M 107.407793817531 119.65005319985036 l 4.880944619462126 12.94728549422844 a34.836756196714404,34.836756196714404 0 0,0 -0.5613874389594509,0.20614924361218312 l -4.657968028848548 -13.029165586849345" fill="#ff5d08" stroke="none" /><path d="M 107.06938296918513 119.77432235084164 l 5.590250628050206 15.636925941473205 a37.60615412982589,37.60615412982589 0 0,0 -0.609746591275761,0.21210151620017875 l -5.320998264729423 -15.730585890241974" fill="#ff870c" stroke="none" /><path d="M 105.3480935250658 120.30758222061773 l 3.529950220061367 13.403795949455057 a34.86081867750744,34.86081867750744 0 0,0 -0.580008834273824,0.1474359775655006 l -3.2993360925621453 -13.462417158855827" fill="#ff5d08" stroke="none" /><path d="M 104.9986988182912 120.39639698878246 l 6.586887666306202 26.876749459456946 a48.67212949223381,48.67212949223381 0 0,0 -0.8132135832301802,0.19191619137653604 l -6.124541929336143 -26.985861794479707" fill="#daff1c" stroke="none" /><path d="M 103.58742460773223 120.69131181640829 l 4.726372309295006 27.26045949544876 a48.66715104793179,48.66715104793179 0 0,0 -0.8243809757173136,0.1356515758405267 l -4.2577138305246205 -27.33757706978496" fill="#daff1c" stroke="none" /><path d="M 103.2317021107853 120.74984581791261 l 2.9813318130926496 19.14228890319282 a40.37306284078636,40.37306284078636 0 0,0 -0.685717044049131,0.10077679151194259 l -2.652289663435833 -19.190646768003646" fill="#ffb010" stroke="none" /><path d="M 101.08105385017728 120.97215588758144 l 0.7136800656786256 13.845202613003044 a34.86358447989745,34.86358447989745 0 0,0 -0.5979507153702756,0.025678576541575085 l -0.47590358970752056 -13.855413757970451" fill="#ff5d08" stroke="none" /><path d="M 100.72087961077811 120.9876233191556 l 0.6650212675805197 19.361368603756244 a40.37278626054736,40.37278626054736 0 0,0 -0.6928483162937557,0.017845314925553152 l -0.3325596372160202 -19.369931636031843" fill="#ffb010" stroke="none" /><line stroke="#e1ed5e" stroke-width="0.3" x1="101.45913802915013" x2="101.54496967792366" y1="184.9874750549273" y2="189.98673829345242" /><path d="M 101.47630435890484 185.9873277026323 a86.0,86.0 0 0,1 -42.54439059252881,-10.42667462771756" fill="none" id="id55" stroke="none" /><text fill="#e1ed5e" style="font-size:6.75px; font-family:Arial;" text-anchor="middle"><textPath startOffset="22.145653131862474" xlink:href="#id55">July</textPath></text><path d="M 99.63950707515114 120.99690560180557 l -0.33277803912498616 19.38265245230815 a40.38550895154138,40.38550895154138 0 0,0 -0.6930666538386812,-0.017850938526209364 l 0.6654580070344113 -19.374083796431893" fill="#ffb110" stroke="none" /><path d="M 98.91894614982273 120.97215588758144 l -0.711871838878792 13.81012349615813 a34.82845878954439,34.82845878954439 0 0,0 -0.5968198858066615,-0.0359032022956127 l 0.9488360768178998 -13.795868316037826" fill="#ff5d08" stroke="none" /><path d="M 98.55909050195518 120.95050786540614 l -0.9873983174694053 14.356554831862235 a35.3904698351933,35.3904698351933 0 0,0 -0.6057348642019148,-0.046887709424251106 l 1.2337021764465563 -14.33748935544293" fill="#ff6609" stroke="none" /><path d="M 98.19965949673042 120.92268563240118 l -1.660791232801647 19.300911578588 a40.372233100069366,40.372233100069366 0 0,0 -0.6899815279398492,-0.06534196806699395 l 1.9918723241265115 -19.269557855015822" fill="#ffb010" stroke="none" /><path d="M 97.12497278360702 120.80226474461374 l -2.6574015073156665 19.22763352385604 a40.410401173051426,40.410401173051426 0 0,0 -0.686351217654724,-0.10086999319299708 l 2.9870778305780754 -19.17918245736416" fill="#ffb110" stroke="none" /><path d="M 96.76829788921471 120.74984581791261 l -2.5571054702973735 16.418451463002626 a37.61638759866891,37.61638759866891 0 0,0 -0.6371902534629657,-0.10484941372800037 l 2.8385732268134025 -16.37213605077896" fill="#ff880c" stroke="none" /><path d="M 96.41257539226777 120.69131181640829 l -2.366091914716894 13.646989399628959 a34.85058520866443,34.85058520866443 0 0,0 -0.5885853375682168,-0.10725985531411951 l 2.600011985836168 -13.604361370383472" fill="#ff5d08" stroke="none" /><path d="M 96.05791012581884 120.62667999033965 l -5.195455078051311 27.184816358711064 a48.6768313562968,48.6768313562968 0 0,0 -0.8194014741746561,-0.16390324351161378 l 5.661353037756925 -27.09162371853659" fill="#daff1c" stroke="none" /><path d="M 95.70440661134978 120.55596938700252 l -5.661183312578915 27.090811522118603 a48.67600161557981,48.67600161557981 0 0,0 -0.816453198938802,-0.17794217466232437 l 6.125398928136853 -26.989637889322562" fill="#daff1c" stroke="none" /><line stroke="#e1ed5e" stroke-width="0.3" x1="58.13341422392154" x2="55.67067388415222" y1="173.97424548756322" y2="178.32567169271397" /><path d="M 57.64086615596768 174.84453072859336 a86.0,86.0 0 0,1 -31.369924170532247,-30.572349798747897" fill="none" id="id56" stroke="none" /><text fill="#e1ed5e" style="font-size:6.75px; font-family:Arial;" text-anchor="middle"><textPath startOffset="22.145653131862474" xlink:href="#id56">August</textPath></text><path d="M 89.03521579738668 117.91015095944536 l -7.233574743073216 11.815500718563595 a34.85390417153243,34.85390417153243 0 0,0 -0.5075987689228806,-0.31677917365050445 l 7.43533764078581 -11.689585748071542" fill="#ff5d08" stroke="none" /><path d="M 88.4268655584334 117.5232005979908 l -7.633842343604587 11.55861027933515 a34.85196810985943,34.85196810985943 0 0,0 -0.49639776327541624,-0.3339985686600014 l 7.831136394977008 -11.425862036618028" fill="#ff5d08" stroke="none" /><path d="M 88.1277618465304 117.32195027204791 l -10.953865164101975 15.982016634651261 a40.375552062937366,40.375552062937366 0 0,0 -0.5683433993511184,-0.3967478325198592 l 11.226603654626858 -15.791623986326274" fill="#ffb110" stroke="none" /><path d="M 87.2517909369889 116.68781488649013 l -20.176054804262705 26.41110339884002 a54.23581757996681,54.23581757996681 0 0,0 -0.7349987775160196,-0.5715394949968169 l 20.626463526413954 -26.06086285222241" fill="#93ff23" stroke="none" /><path d="M 86.40962598614128 116.0094264158162 l -12.571671719943385 14.809397675074413 a40.42588966643545,40.42588966643545 0 0,0 -0.525191059516478,-0.45364752858234586 l 12.824042259222725 -14.591406014027346" fill="#ffb110" stroke="none" /><path d="M 86.13680546590413 115.77377054828092 l -14.619583457143966 16.634402294310174 a43.14577973676585,43.14577973676585 0 0,0 -0.5521323790592628,-0.4937201779719914 l 14.902980863026599 -16.3809865864548" fill="#ffd814" stroke="none" /><path d="M 85.60350026404147 115.28858382429668 l -11.385826087810804 12.091352741637069 a37.60836677173789,37.60836677173789 0 0,0 -0.46621393487390644,-0.4466224034233348 l 11.591712508550025 -11.89411820790815" fill="#ff870c" stroke="none" /><path d="M 84.83555147118756 114.52719865689866 l -19.986298710322945 19.146422056121846 a48.67738451677481,48.67738451677481 0 0,0 -0.572872933918959,-0.608371203523495 l 20.31202747797816 -18.80050939265386" fill="#daff1c" stroke="none" /><path d="M 84.58840730492382 114.26474011684316 l -30.45687741651467 28.190431041947758 a62.50086486201719,62.50086486201719 0 0,0 -0.7220406435664921,-0.7936491501832229 l 30.936315760923037 -27.66344431620686" fill="#33ff2f" stroke="none" /><path d="M 83.64595745247003 113.17365903436017 l -32.32842306297954 26.041489210541496 a62.512481232055215,62.512481232055215 0 0,0 -0.6660066931190525,-0.8414777000338022 l 32.77069618674015 -25.48269156659301" fill="#33ff2f" stroke="none" /><path d="M 82.78059297857968 112.02048342749411 l -22.684695103975585 15.835678964780259 a48.66521498625879,48.66521498625879 0 0,0 -0.47230810829943776,-0.6891116451077032 l 22.95319294909035 -15.443932584602505" fill="#daff1c" stroke="none" /><path d="M 82.576782715395 111.72311816256416 l -23.567260734783734 15.857104795791564 a49.405343705823995,49.405343705823995 0 0,0 -0.4674111610032822,-0.7077200716326895 l 23.83599633470774 -15.450204845819814" fill="#d0ff1d" stroke="none" /><path d="M 82.18462484594161 111.11811171558189 l -23.550298823054746 14.697128238156292 a48.76008200823594,48.76008200823594 0 0,0 -0.43705759474912625,-0.7139007348693011 l 23.799124382259276 -14.290690387162435" fill="#d9ff1c" stroke="none" /><line stroke="#e1ed5e" stroke-width="0.3" x1="26.387840678322732" x2="22.057713659400548" y1="142.50000000000003" y2="145.00000000000006" /><path d="M 25.521815274538298 143.00000000000003 a86.0,86.0 0 0,1 -11.493303480769221,-40.785679425670985" fill="none" id="id57" stroke="none" /><text fill="#e1ed5e" style="font-size:6.75px; font-family:Arial;" text-anchor="middle"><textPath startOffset="21.40746469413373" xlink:href="#id57">September</textPath></text><path d="M 81.81346652052679 110.50000000000001 l -23.98536631121873 13.847957696393932 a48.69591539278784,48.69591539278784 0 0,0 -0.4117509444524287,-0.72752446563396 l 24.219550620692537 -13.43417646066085" fill="#daff1c" stroke="none" /><path d="M 81.4637452351635 109.86951160357371 l -12.344998217947252 6.573016216267028 a34.98583294553564,34.98583294553564 0 0,0 -0.27770743105767504,-0.5325406161504155 l 12.456013717979877 -6.36012935701211" fill="#ff5f08" stroke="none" /><path d="M 81.1358732173502 109.22738970284198 l -10.36681415738969 5.070928292061501 a32.540587052532686,32.540587052532686 0 0,0 -0.24114239540643892,-0.5038948611878931 l 10.452335810756042 -4.892220928808503" fill="#ff3905" stroke="none" /><path d="M 80.83023694016515 108.57439118712176 l -25.275032401467275 11.305200507743011 a48.688171146095826,48.688171146095826 0 0,0 -0.3347105838121583,-0.7658833182285956 l 25.4653768672964 -10.869655119738567" fill="#daff1c" stroke="none" /><path d="M 80.68587082218212 108.24405325689762 l -25.46385060830666 10.869003650532816 a48.68651166466182,48.68651166466182 0 0,0 -0.3215028994076916,-0.7714899195574905 l 25.646679352250835 -10.430281221534045" fill="#daff1c" stroke="none" /><path d="M 80.28708602549918 107.23885506374661 l -51.94339245046271 19.074333198764474 a76.3348552563416,76.3348552563416 0 0,0 -0.44114214541094393,-1.2339530937738117 l 52.2631747659176 -18.179845148609743" fill="#42ffd9" stroke="none" /><path d="M 80.05021161711548 106.5578916946017 l -23.67100695508073 7.781130152075226 a45.917113731550344,45.917113731550344 0 0,0 -0.23972075307841126,-0.7509218447108859 l 23.8010924239364 -7.373639273672949" fill="#ffff18" stroke="none" /><path d="M 79.94057633289273 106.21446072829308 l -27.309831556829053 8.46065562613882 a49.59037588571529,49.59037588571529 0 0,0 -0.24493791806045964,-0.8153186674828029 l 27.45104579489314 -7.990599355065294" fill="#ceff1d" stroke="none" /><path d="M 79.83685265289637 105.86919833188381 l -26.569657194674033 7.734039979036607 a48.67240607247281,48.67240607247281 0 0,0 -0.22663148857738102,-0.8042352015106562 l 26.698507175325986 -7.276796853622955" fill="#daff1c" stroke="none" /><path d="M 79.64726062577567 105.17358676015961 l -26.83718064643287 6.821906374344669 a48.690660368246824,48.690660368246824 0 0,0 -0.19896504770258752,-0.8118452916155653 l 26.95033322065175 -6.360205258121004" fill="#daff1c" stroke="none" /><path d="M 79.48165901384964 104.47187691870673 l -35.15074964789829 7.66094228240852 a56.97589800774424,56.97589800774424 0 0,0 -0.20007300699659328,-0.9574217657225418 l 35.27708036571924 -7.056404065400569" fill="#72ff27" stroke="none" /><path d="M 79.407916724674 104.11899336999214 l -35.29931940342078 7.060852495781452 a56.99857758734228,56.99857758734228 0 0,0 -0.1836811942846954,-0.9610976247822623 l 35.41532688998763 -6.453852305965875" fill="#72ff27" stroke="none" /><path d="M 79.34024301695615 103.76489593502545 l -35.39655205398 6.450430905422591 a56.97949355085125,56.97949355085125 0 0,0 -0.1670996433109158,-0.9637863376151677 l 35.50206651478315 -5.841851534886831" fill="#72ff27" stroke="none" /><path d="M 79.2786578344484 103.40968896794605 l -40.954811900297216 6.7390987130602 a62.505566726080204,62.505566726080204 0 0,0 -0.16512931309594686,-1.0602486458524807 l 41.06446270553143 -6.035061885276269" fill="#33ff2f" stroke="none" /><path d="M 79.13060592940153 102.33845913500099 l -35.75572520825099 4.006503588890334 a56.97949355085125,56.97949355085125 0 0,0 -0.10057588112078066,-0.9729804147592445 l 35.819233481853445 -3.392118651848158" fill="#72ff27" stroke="none" /><path d="M 79.0935383218832 101.97986365728391 l -41.32124308645955 3.9131646818221744 a62.506119886558196,62.506119886558196 0 0,0 -0.09199227261496261,-1.0690896511173942 l 41.382328981772254 -3.2032539833291183" fill="#33ff2f" stroke="none" /><path d="M 79.06263194458094 101.62068470465958 l -41.384810779884035 3.203446090198958 a62.5086091087092,62.5086091087092 0 0,0 -0.07362930392527309,-1.0705539196625227 l 41.43370404497437 -2.492548746382092" fill="#33ff2f" stroke="none" /><path d="M 79.01933749520258 100.90099992219065 l -38.735039940732776 1.6634492816740962 a59.77074132284377,59.77074132284377 0 0,0 -0.03522293487145786,-1.0254773171894809 l 38.75788756260108 -0.9982656999204954" fill="#51ff2b" stroke="none" /><path d="M 79.00696218219943 100.54070618675478 l -28.49601526442561 0.7339562708865517 a49.50546575234215,49.50546575234215 0 0,0 -0.014588950526107891,-0.8497332288961992 l 28.50441564655038 -0.2446761260213001" fill="#cfff1d" stroke="none" /><line stroke="#e1ed5e" stroke-width="0.3" x1="15.003131293944662" x2="10.003315487706104" y1="100.72959589197737" y2="100.7725132973878" /><path d="M 14.003168132696942 100.73817937305945 a86.0,86.0 0 0,1 10.791469493833604,-42.45332614584628" fill="none" id="id58" stroke="none" /><text fill="#e1ed5e" style="font-size:6.75px; font-family:Arial;" text-anchor="middle"><textPath startOffset="22.145653131862435" xlink:href="#id58">October</textPath></text><path d="M 79.00077361379809 100.18025310272382 l -41.50044230213723 0.3562313845183592 a62.50197118297319,62.50197118297319 0 0,0 0.0,-1.0729689744843383 l 41.50044230213723 0.3562313845183439" fill="#33ff2f" stroke="none" /><path d="M 79.00696218219943 99.45929381324524 l -41.483511626063674 -1.0684681073411086 a62.49726931891019,62.49726931891019 0 0,0 0.03682967950779275,-1.0722559341643434 l 41.45905725955903 1.7804303060695905" fill="#33ff2f" stroke="none" /><path d="M 79.01933749520258 99.09900007780938 l -27.648029707088504 -1.187325357772409 a48.67351239342881,48.67351239342881 0 0,0 0.04301442978990302,-0.8344684465267884 l 27.623573687842033 1.6617655976759096" fill="#daff1c" stroke="none" /><path d="M 79.03789590574601 98.7389718711861 l -58.41241754769883 -3.5139459888410083 a79.51801722699776,79.51801722699776 0 0,0 0.09366479820019742,-1.3618656092333052 l 58.34348878833357 4.516155022228639" fill="#47fffd" stroke="none" /><path d="M 79.06263194458094 98.37931529534042 l -51.35833012507016 -3.9754595644611403 a72.51196319287739,72.51196319287739 0 0,0 0.10671819492221102,-1.2402271901119475 l 51.282518307450204 4.856507801948768" fill="#3dffac" stroke="none" /><path d="M 79.13060592940154 97.66154086499901 l -35.74253192367993 -4.005025253835607 a56.96621769937923,56.96621769937923 0 0,0 0.11723624203070131,-0.9708842626839945 l 35.668513595389555 4.6180031934430374" fill="#72ff27" stroke="none" /><path d="M 79.22317932658666 96.9465228501225 l -35.797149821161284 -5.260948281154876 a57.18167370556058,57.18167370556058 0 0,0 0.1510644730581411,-0.9699422833743017 l 35.70156385596487 5.874678746460628" fill="#6fff27" stroke="none" /><path d="M 79.2786578344484 96.59031103205396 l -40.949353696708116 -6.738200567736687 a62.50003512130019,62.50003512130019 0 0,0 0.18328933665176367,-1.0571641865615942 l 40.82764954256412 7.440157787218874" fill="#33ff2f" stroke="none" /><path d="M 79.34024301695615 96.23510406497455 l -40.82764954256412 -7.440157787218874 a62.50003512130019,62.50003512130019 0 0,0 0.2014099575787453,-1.0538620057990549 l 40.69391329270321 8.139922358051244" fill="#33ff2f" stroke="none" /><path d="M 79.48165901384962 95.52812308129327 l -35.17561141095322 -7.6663607879513656 a57.00134338973229,57.00134338973229 0 0,0 0.2165756228153625,-0.9542721550086926 l 35.038824926580205 8.269067276899067" fill="#72ff27" stroke="none" /><path d="M 79.64726062577567 94.8264132398404 l -40.235666807076335 -10.227749162007655 a62.51524703444522,62.51524703444522 0 0,0 0.2733122518025358,-1.0378111376266221 l 40.05416507446907 10.916940804007062" fill="#33ff2f" stroke="none" /><path d="M 79.73907114497095 94.47779374421319 l -24.873812096118364 -6.779468095726332 a46.781150398187734,46.781150398187734 0 0,0 0.2178253061152649,-0.7729851666129783 l 24.753768297928517 7.2054611862423235" fill="#f3ff19" stroke="none" /><path d="M 79.83685265289637 94.1308016681162 l -26.59860306916149 -7.742465701238201 a48.702553318523854,48.702553318523854 0 0,0 0.24055276454365393,-0.8007219176192433 l 26.461773984614208 8.197925222448168" fill="#daff1c" stroke="none" /><path d="M 79.94057633289273 93.78553927170692 l -26.670750165181794 -8.262666577376299 a48.92132828757321,48.92132828757321 0 0,0 0.25540493958867605,-0.8000523355667581 l 26.52498050981586 8.719287946634449" fill="#d7ff1c" stroke="none" /><path d="M 80.05021161711548 93.44210830539832 l -52.578590318361705 -17.28362698114965 a76.34647162637961,76.34647162637961 0 0,0 0.41995859449326856,-1.2415329628673604 l 52.274146302296074 18.18366161849117" fill="#42ffd9" stroke="none" /><path d="M 80.28708602549916 92.7611449362534 l -35.088038364469504 -12.884813707406582 a58.378989560193524,58.378989560193524 0 0,0 0.3535245800939996,-0.937765949946102 l 34.86168310056107 13.485247937546829" fill="#61ff29" stroke="none" /><path d="M 80.41425534168474 92.42381321644754 l -25.50337695092211 -9.865254079553223 a48.344935069496266,48.344935069496266 0 0,0 0.3060495108007226,-0.7714446935554089 l 25.330268765155257 10.301599790322214" fill="#deff1b" stroke="none" /><path d="M 80.68587082218212 91.75594674310238 l -39.47999566407619 -16.851662523337396 a63.92608283358649,63.92608283358649 0 0,0 0.4394647817402871,-1.0055814233611167 l 39.18489700031893 17.526906016474378" fill="#31ff3e" stroke="none" /><path d="M 80.83023694016515 91.42560881287825 l -31.571004621701135 -14.12130880031994 a55.585252566049995,55.585252566049995 0 0,0 0.39707863856492265,-0.8676884865491142 l 31.323941518281167 14.661186269083725" fill="#83ff25" stroke="none" /><path d="M 80.9802524753101 91.09779779509293 l -50.15322603841488 -23.474242170817615 a76.37495939099665,76.37495939099665 0 0,0 0.5659775168432868,-1.182675330916132 l 49.74286926361168 24.331730003798835" fill="#42ffda" stroke="none" /><path d="M 81.29705330413844 90.45014215332179 l -33.27852151176387 -16.992250202760268 a58.36571370872149,58.36571370872149 0 0,0 0.46329016779821935,-0.8884199838514665 l 32.98192327499071 17.561016429716222" fill="#62ff29" stroke="none" /><path d="M 81.63589988554816 89.8137432299009 l -24.392725353752425 -13.530233565884995 a48.89394684391216,48.89394684391216 0 0,0 0.413425410090359,-0.7304830859719839 l 24.156866578640695 13.946973421956084" fill="#d7ff1c" stroke="none" /><line stroke="#e1ed5e" stroke-width="0.3" x1="26.387840678322718" x2="22.05771365940052" y1="57.49999999999999" y2="54.99999999999999" /><path d="M 25.521815274538284 56.99999999999999 a86.0,86.0 0 0,1 29.574782752854787,-30.34633250058573" fill="none" id="id59" stroke="none" /><text fill="#e1ed5e" style="font-size:6.75px; font-family:Arial;" text-anchor="middle"><textPath startOffset="21.40746469413373" xlink:href="#id59">November</textPath></text><path d="M 81.81346652052679 89.5 l -28.76797223246767 -16.609196512454893 a54.21839302490978,54.21839302490978 0 0,0 0.47228426089391407,-0.8020419261994345 l 28.478614261443976 17.1005896069479" fill="#93ff23" stroke="none" /><path d="M 81.99639281039701 89.18935116829357 l -36.77910692476999 -22.084796958749823 a63.90036087135945,63.90036087135945 0 0,0 0.5727664285167118,-0.9355709159138373 l 36.394572531797884 22.712904990788203" fill="#31ff3e" stroke="none" /><path d="M 82.18462484594161 88.88188828441811 l -42.26660252458219 -26.37748599974614 a70.82205793258466,70.82205793258466 0 0,0 0.6525150120286396,-1.0258619787717684 l 41.80756982092766 27.099161653196578" fill="#3bff97" stroke="none" /><path d="M 82.576782715395 88.27688183743585 l -31.00858739938196 -20.86396147159074 a58.37428769613051,58.37428769613051 0 0,0 0.5665370923127131,-0.8265945488503744 l 30.645860570253934 21.39319075551115" fill="#61ff29" stroke="none" /><path d="M 82.78059297857968 87.97951657250589 l -27.57129584183735 -19.246905792346308 a54.624689396001436,54.624689396001436 0 0,0 0.543346326776887,-0.7642846537363904 l 27.236834416530492 19.71736767279222" fill="#8eff24" stroke="none" /><path d="M 82.98947788004972 87.6856937992154 l -11.202515618844435 -8.109757394673403 a34.82984169073939,34.82984169073939 0 0,0 0.35476346646973655,-0.4813047765627084 l 11.061650132790879 8.300868480504974" fill="#ff5d08" stroke="none" /><path d="M 83.2033758604659 87.39550010848427 l -34.299455395452824 -25.738950768890962 a63.882936316302434,63.882936316302434 0 0,0 0.6657454425535017,-0.8714821550183366 l 33.85255797554501 26.32395383715018" fill="#31ff3e" stroke="none" /><path d="M 83.42222388311158 87.10902102172516 l -46.149320023070565 -35.88599038160637 a79.45993537680765,79.45993537680765 0 0,0 0.8465645220401916,-1.0696066185167457 l 45.52648907038881 36.672916944037794" fill="#47fffc" stroke="none" /><path d="M 83.64595745247003 86.82634096563983 l -28.015870184964886 -22.567601881613477 a56.974791686788244,56.974791686788244 0 0,0 0.62008427920152,-0.7564019963323924 l 27.624339086524735 23.045206159644362" fill="#72ff27" stroke="none" /><path d="M 84.10781606972428 86.27271002978789 l -28.688356490443237 -24.78031905752671 a58.90891729811837,58.90891729811837 0 0,0 0.6676033595776407,-0.759610072940951 l 28.258742066907004 25.269141408278962" fill="#5bff2a" stroke="none" /><path d="M 84.34580500576568 86.00192230759919 l -21.540582459644906 -19.26172166123731 a49.89655021028878,49.89655021028878 0 0,0 0.5764294190988257,-0.6335969071611746 l 21.206755339704216 19.628656143956142" fill="#caff1d" stroke="none" /><path d="M 84.83555147118756 85.47280134310135 l -24.960005083693332 -23.911120252020723 a55.56506220860296,55.56506220860296 0 0,0 0.6657572879314879,-0.6831256274336289 l 24.54586099461104 24.33606857152208" fill="#83ff25" stroke="none" /><path d="M 86.40962598614128 83.9905735841838 l -17.939995346353513 -21.13326940852779 a48.72108419453688,48.72108419453688 0 0,0 0.6422498367860172,-0.5357876562538894 l 17.574571175405584 21.438119248693564" fill="#d9ff1c" stroke="none" /><path d="M 86.68645165197937 83.75963576809568 l -22.810225091740698 -27.824765721203654 a56.97949355085125,56.97949355085125 0 0,0 0.7617594723785592,-0.6136195088244302 l 22.329214849006892 28.212233523821485" fill="#72ff27" stroke="none" /><path d="M 87.25179093698888 83.31218511350988 l -35.91652400000553 -47.01588285191656 a80.16493840601979,80.16493840601979 0 0,0 1.1007295420728305,-0.8260079691245721 l 35.104141469021954 47.62550984830513" fill="#48faff" stroke="none" /><path d="M 88.12776184653039 82.6780497279521 l -20.33831324064165 -29.674206835951175 a56.97506826702725,56.97506826702725 0 0,0 0.8114978287902516,-0.5460119552075081 l 19.825919123754407 30.018968465215792" fill="#72ff27" stroke="none" /><path d="M 88.4268655584334 82.4767994020092 l -19.837655758150458 -30.036739225583748 a56.99636494543027,56.99636494543027 0 0,0 0.8210580621483166,-0.5321999161424554 l 19.319112063745113 30.37285298343011" fill="#72ff27" stroke="none" /><path d="M 89.03521579738668 82.08984904055464 l -29.124344577441295 -47.57242808778264 a76.77959628065432,76.77959628065432 0 0,0 1.1300027702426145,-0.6785341959139777 l 28.303409050641246 48.06537628423254" fill="#43ffde" stroke="none" /><line stroke="#e1ed5e" stroke-width="0.3" x1="56.869717070023135" x2="54.33264160355391" y1="26.7553504044142" y2="22.446841604673864" /><path d="M 56.362301976729285 25.89364864446614 a86.0,86.0 0 0,1 42.16139366436587,-11.88097634709845" fill="none" id="id60" stroke="none" /><text fill="#e1ed5e" style="font-size:6.75px; font-family:Arial;" text-anchor="middle"><textPath startOffset="22.145653131862474" xlink:href="#id60">December</textPath></text><path d="M 89.34428304082924 81.90426304109057 l -18.262572739244852 -31.013841090993374 a56.99138650112827,56.99138650112827 0 0,0 0.8472923872729231,-0.4891844878743402 l 17.72748788411153 31.322772476143886" fill="#72ff27" stroke="none" /><path d="M 90.28995756902619 81.37971332152246 l -13.536220831525604 -25.95748826206812 a50.2749119772414,50.2749119772414 0 0,0 0.7686621746018092,-0.3924843832865205 l 13.088631435210212 26.186030597027475" fill="#c5ff1e" stroke="none" /><path d="M 90.61103034731259 81.2157712731953 l -19.180361405098168 -38.37357122493372 a63.90008429112046,63.90008429112046 0 0,0 0.9853993985223927,-0.4820082248108718 l 18.51880175731372 38.6971731998418" fill="#31ff3e" stroke="none" /><path d="M 91.26138138417902 80.90454125486306 l -23.02401307578787 -50.311623743393696 a76.32960023180058,76.32960023180058 0 0,0 1.196145161984487,-0.5350205166034298 l 22.156954510947763 50.69944801090697" fill="#42ffd9" stroke="none" /><path d="M 91.5904679813234 80.7573450057729 l -14.857140175922117 -33.996044247314764 a58.10074983975907,58.10074983975907 0 0,0 0.9173414644362523,-0.391558522672535 l 14.271363636315435 34.2460774196467" fill="#65ff29" stroke="none" /><path d="M 92.592206182469 80.34994680014964 l -10.563574733809524 -28.021137009606534 a50.946172217295484,50.946172217295484 0 0,0 0.8209874933347576,-0.3014779794142262 l 10.080998088820639 28.198345838029482" fill="#bcff1f" stroke="none" /><path d="M 93.27111125876988 80.10723608172694 l -8.866351199898714 -26.211791875137806 a48.67074659103881,48.67074659103881 0 0,0 0.7937440023399304,-0.2609194193283099 l 8.415084459911023 26.360132215868145" fill="#daff1c" stroke="none" /><path d="M 93.61358852112211 79.99465700312896 l -8.440570442272666 -26.439966692622914 a48.75455040345594,48.75455040345594 0 0,0 0.7994802915029989,-0.2476810379520827 l 7.98544951789805 26.58096431838164" fill="#d9ff1c" stroke="none" /><path d="M 93.95794788825049 79.88797359093562 l -16.813219169997247 -55.965738413742315 a79.43670263673161,79.43670263673161 0 0,0 1.3093437746248988,-0.3811308902126809 l 15.850015382990723 56.246112998257516" fill="#47fffc" stroke="none" /><path d="M 95.00130118170881 79.60360301121753 l -5.743076617750481 -23.433712430123315 a45.127200568965065,45.127200568965065 0 0,0 0.753984936732384,-0.17793839207429782 l 5.339959527278191 23.528846965843844" fill="#fff417" stroke="none" /><path d="M 95.35216902796891 79.52079915486377 l -5.134341029305755 -22.622853924618294 a44.19816754616256,44.19816754616256 0 0,0 0.7413455107773148,-0.16157280360384282 l 4.745233101909322 22.70765818635585" fill="#ffe715" stroke="none" /><path d="M 96.41257539226777 79.30868818359171 l -10.066403346740941 -58.060339461411154 a79.92652624000141,79.92652624000141 0 0,0 1.3538887374470188,-0.22278187653182116 l 9.068237106240849 58.224587336438645" fill="#47fdff" stroke="none" /><path d="M 97.48249496171623 79.15144685158666 l -2.6030052928085565 -21.556617908386144 a42.71320824296915,42.71320824296915 0 0,0 0.7286956686145072,-0.08165186958197049 l 2.23257372259325 21.598125538475085" fill="#ffd213" stroke="none" /><path d="M 97.84075906011542 79.11130261209362 l -2.912816805216624 -28.178860296077364 a49.32900755985987,49.32900755985987 0 0,0 0.8430572548103608,-0.07983839855386471 l 2.4286599870212475 28.224710450136413" fill="#d1ff1c" stroke="none" /><path d="M 98.5590905019552 79.04949213459386 l -2.5089557823885578 -36.479666435825685 a57.565843657532206,57.565843657532206 0 0,0 0.9864473316391144,-0.05934222190659291 l 1.8823640986169596 36.517360635556976" fill="#6bff28" stroke="none" /><path d="M 98.9189461498227 79.02784411241856 l -3.24316155053188 -62.91646766274432 a84.0,84.0 0 0,0 1.4406969575967197,-0.061869726296685634 l 2.1626388323343404 62.96286995746683" fill="#4dd2ff" stroke="none" /><path d="M 99.63950707515114 79.00309439819443 l -0.6176311028336979 -35.9739153504203 a56.979216970612256,56.979216970612256 0 0,0 0.9781240276825413,-0.00839601838638941 l 8.812366579777685e-15 35.979216970612256" fill="#72ff27" stroke="none" /></svg>