<?xml version="1.0" encoding="utf-8" ?>
<svg baseProfile="full" height="200mm" version="1.1" viewBox="0,0,200,200" width="200mm" xmlns="http://www.w3.org/2000/svg" xmlns:ev="http://www.w3.org/2001/xml-events" xmlns:xlink="http://www.w3.org/1999/xlink"><defs /><rect fill="#1a1a1a" height="200" width="200" x="0" y="0" /><text alignment-baseline="middle" fill="#e1ed5e" style="dominant-baseline: central; font-size:9.0px; font-family:Arial;" text-anchor="middle" x="100.0" y="100.0">2023</text><line stroke="#e1ed5e" stroke-width="0.3" x1="100.0" x2="100.0" y1="15.0" y2="10.0" /><path d="M 100.0 14.0 a86.0,86.0 0 0,1 42.46469731375804,11.215312516191453" fill="none" id="id37" stroke="none" /><text fill="#e1ed5e" style="font-size:6.75px; font-family:Arial;" text-anchor="middle"><textPath startOffset="22.20632615414155" xlink:href="#id37">January</textPath></text><path d="M 100.0 79.0 l 0.0 -29.921669906770163 a50.92166990677016,50.92166990677016 0 0,0 0.876532840155084,0.007544594886508608 l -0.5150523608825556 29.917236688492213" fill="#9aff23" stroke="none" /><path d="M 100.72285384407766 79.0124445844662 l 1.028608372667675 -29.864924146305768 a50.882632572263766,50.882632572263766 0 0,0 0.8750823440780128,0.037682886520607674 l -1.5425315491350193 29.842793533260966" fill="#9aff23" stroke="none" /><path d="M 101.08401301168833 79.027996857942 l 1.5443159073725334 -29.877314859260018 a50.917199982971724,50.917199982971724 0 0,0 0.8748980057466316,0.05277623694945386 l -2.058375961958777 29.846305352930262" fill="#9aff23" stroke="none" /><path d="M 101.80526077348638 79.07773832637324 l 2.568444621646699 -29.76726202527054 a50.87786465354543,50.87786465354543 0 0,0 0.8718888131483057,0.08279634860787505 l -3.0804585618852487 29.71864013214749" fill="#9aff23" stroke="none" /><path d="M 102.16513564639614 79.11191278185805 l 3.082301988809568 -29.736424543225635 a50.89574434873919,50.89574434873919 0 0,0 0.8706402866535167,0.0978265806209959 l -3.5937089789728103 29.67896200913404" fill="#9aff23" stroke="none" /><path d="M 103.2404852339499 79.25152402106235 l 4.605313918499112 -29.48732622273792 a50.844787217436966,50.844787217436966 0 0,0 0.8635643152639626,0.14249551132313182 l -5.112207439901949 29.40368444847516" fill="#9bff22" stroke="none" /><path d="M 104.66035177308747 79.52364482259891 l 5.32358442101775 -23.390424313274796 a44.98859105163827,44.98859105163827 0 0,0 0.7536152708998151,0.1783563862891249 l -5.725423378880088 23.295322014844803" fill="#dfff1b" stroke="none" /><path d="M 105.01212808612495 79.60689891045804 l 8.55755206145158 -34.818548382933244 a56.85474876190206,56.85474876190206 0 0,0 0.9483672917781127,0.24175993895283923 l -9.155628241914716 34.66608544781153" fill="#59ff2a" stroke="none" /><path d="M 105.71112130821622 79.79150937346287 l 8.120342324671945 -28.73338752520034 a50.85879297867208,50.85879297867208 0 0,0 0.8404046989703948,0.24533717704367577 l -8.613737241365767 28.589352019237957" fill="#9aff22" stroke="none" /><path d="M 108.09893153111575 80.62456947434976 l 6.901520289290105 -16.510810885702607 a38.89519092960225,38.89519092960225 0 0,0 0.615500175702554,0.2635250535924374 l -7.184704222782974 16.38956630414738" fill="#ffd213" stroke="none" /><path d="M 108.43124777332544 80.76684994638697 l 12.020130284662622 -27.4200184414354 a50.93895361212414,50.93895361212414 0 0,0 0.8000275127557017,0.3589490247312322 l -12.490339915885105 27.209049086187637" fill="#99ff23" stroke="none" /><path d="M 109.08828744355905 81.06846463323043 l 14.413120357198848 -30.02353297938395 a54.30391224759121,54.30391224759121 0 0,0 0.8391990399089271,0.41179132428189513 l -14.927790664118206 29.770986494967225" fill="#74ff27" stroke="none" /><path d="M 109.41281617654863 81.2277094730956 l 17.39790190921071 -34.69721102298645 a59.81473230123029,59.81473230123029 0 0,0 0.9164172764574737,0.4694245228416461 l -17.992579673256937 34.39259397483231" fill="#3aff2e" stroke="none" /><path d="M 109.73455568895987 81.39251694778311 l 21.054079548871275 -40.2446132009861 a66.41919371088818,66.41919371088818 0 0,0 1.008480424776778,0.5386953170269123 l -21.743705020176364 39.876239157457434" fill="#36ff73" stroke="none" /><path d="M 110.36928655335952 81.73862282372117 l 14.232074233381006 -25.064142478767398 a49.822962637113136,49.822962637113136 0 0,0 0.7421326433879454,0.429891128397895 l -14.661403609234279 24.815447192979452" fill="#a6ff21" stroke="none" /><line stroke="#e1ed5e" stroke-width="0.3" x1="143.23703022742887" x2="145.7803849466894" y1="26.81831364943548" y2="22.513508569990506" /><path d="M 143.74570117128098 25.957352633546492 a86.0,86.0 0 0,1 28.547481713284135,27.462654790039103" fill="none" id="id38" stroke="none" /><text fill="#e1ed5e" style="font-size:6.75px; font-family:Arial;" text-anchor="middle"><textPath startOffset="19.985693538727396" xlink:href="#id38">February</textPath></text><path d="M 110.68208982089419 81.91981866633111 l 14.953500884494503 -25.309842184252176 a50.397198847752975,50.397198847752975 0 0,0 0.7430897390303376,0.44770325327793903 l -15.386952689742477 25.04869232151562" fill="#a0ff22" stroke="none" /><path d="M 111.2981086023043 82.29822771554956 l 15.604218902275784 -24.448546160059617 a50.00384555349009,50.00384555349009 0 0,0 0.7215625733475047,0.4693243692739856 l -16.02274850140757 24.1763228666261" fill="#a4ff21" stroke="none" /><path d="M 111.60114157652 82.49532879139004 l 15.983732870103408 -24.117453160272554 a49.9332207574747,49.9332207574747 0 0,0 0.7123694539095828,0.4809950352284718 l -16.396507018419534 23.838746212745413" fill="#a5ff21" stroke="none" /><path d="M 111.90073688211348 82.69761687909136 l 25.726977899684897 -37.40424081071228 a66.39773807665564,66.39773807665564 0 0,0 0.9361096498370792,0.6558046325375501 l -26.367018689105628 36.9558513354108" fill="#36ff72" stroke="none" /><path d="M 112.48926042617603 83.11751280151076 l 18.2941054829933 -24.72924665556119 a51.76052560627776,51.76052560627776 0 0,0 0.7117167072524004,0.5360502684677717 l -18.717068344004083 24.410679797587573" fill="#90ff24" stroke="none" /><path d="M 112.77801427241765 83.33499621200491 l 27.250310807914733 -35.539679574330314 a65.78446453150943,65.78446453150943 0 0,0 0.8926871794166346,0.6967565031040958 l -27.8580305424908 35.065344682002994" fill="#36ff6b" stroke="none" /><path d="M 113.6212207817346 84.01681056812373 l 29.053553066425803 -34.09154361204163 a65.79221239942672,65.79221239942672 0 0,0 0.8556314860491758,0.7419951931691721 l -29.636078351121743 33.58638342545279" fill="#36ff6b" stroke="none" /><path d="M 113.89432698308785 84.25364557470407 l 29.79242920888718 -33.763574880934605 a66.02852237090434,66.02852237090434 0 0,0 0.8457593820497923,0.7593311239081914 l -30.369199578532964 33.24574474825712" fill="#36ff6e" stroke="none" /><path d="M 114.42810811169701 84.74124197986012 l 30.840334452317332 -32.615863218171015 a65.88786876871336,65.88786876871336 0 0,0 0.8173758979483741,0.7863149662202606 l -31.397193593878125 32.080165165188454" fill="#36ff6c" stroke="none" /><path d="M 114.68862486808459 84.99185889309783 l 31.32611724928225 -32.00754272308528 a65.7862525010288,65.7862525010288 0 0,0 0.8024801300912628,0.7990340253853053 l -31.872433179540835 31.463572847049853" fill="#36ff6b" stroke="none" /><path d="M 115.19652480421416 85.50635884689758 l 32.41706774088498 -30.917683689227896 a65.79698031814505,65.79698031814505 0 0,0 0.7746268404910354,0.8263179041413116 l -32.94446190334648 30.35509636820853" fill="#36ff6b" stroke="none" /><path d="M 115.4437574822437 85.77008943001954 l 33.06696705344474 -30.467972870721898 a65.96355947836699,65.96355947836699 0 0,0 0.7622131997632442,0.8416548525717978 l -33.58652389382402 29.89426523088055" fill="#36ff6d" stroke="none" /><path d="M 115.68641384162765 86.03803664274999 l 28.97972079941177 -25.793900632086064 a59.796256616196736,59.796256616196736 0 0,0 0.6777140762972261,0.7747443439316044 l -29.41942673928684 25.29124073195151" fill="#3aff2e" stroke="none" /><path d="M 116.15771136456269 86.58626213691792 l 34.4266487120814 -28.580164041120078 a65.74393722240355,65.74393722240355 0 0,0 0.7153613710549106,0.8769484556326884 l -34.913508575212724 27.983331415879288" fill="#36ff6b" stroke="none" /><path d="M 116.38621287248628 86.86637796730983 l 34.98047554470764 -28.03700573787578 a65.82975975933363,65.82975975933363 0 0,0 0.7010741497930779,0.8902929750426167 l -35.45790377509468 27.430720368880124" fill="#36ff6c" stroke="none" /><path d="M 116.82858285166822 87.43820079747576 l 33.482840584043124 -24.99347234726809 a62.78246370847583,62.78246370847583 0 0,0 0.6389980844289375,0.8715926690405797 l -33.90810128098569 24.413417234556015" fill="#32ff47" stroke="none" /><path d="M 117.04232023915458 87.72973835380427 l 36.326446449800464 -26.15459610901441 a65.76241290743711,65.76241290743711 0 0,0 0.6535136030965889,0.9243486459292318 l -36.77127267270093 25.525420962753383" fill="#36ff6b" stroke="none" /><path d="M 117.2510076193507 88.02491185347247 l 27.04822671574004 -18.77599884454976 a53.92635268408281,53.92635268408281 0 0,0 0.522766002961833,0.7670946034098305 l -27.367417184370606 18.307626217869522" fill="#78ff26" stroke="none" /><path d="M 117.65298651832404 88.62581576622439 l 15.674286904181459 -10.099267157778481 a39.646138127740485,39.646138127740485 0 0,0 0.3646923715095474,0.5768557506656478 l -15.845806871936963 9.827963759398628" fill="#ffdb14" stroke="none" /><line stroke="#e1ed5e" stroke-width="0.3" x1="172.23445277983987" x2="176.4835382374775" y1="55.19839476539836" y2="52.563006222186495" /><path d="M 173.08426987136738 54.67131705675599 a86.0,86.0 0 0,1 12.851231095245387,41.99856678651699" fill="none" id="id39" stroke="none" /><text fill="#e1ed5e" style="font-size:6.75px; font-family:Arial;" text-anchor="middle"><textPath startOffset="22.20632615414155" xlink:href="#id39">March</textPath></text><path d="M 117.84615892207809 88.93136811851018 l 25.406420993848307 -15.75769456245074 a50.896340338578995,50.896340338578995 0 0,0 0.45536277498412253,0.7484966724939808 l -25.673899567118653 15.318030116749677" fill="#9aff23" stroke="none" /><path d="M 118.03404312379186 89.2402003453031 l 33.34318534959539 -19.893819247762593 a59.826950092946035,59.826950092946035 0 0,0 0.520039568829231,0.8889161964321524 l -33.68068459289495 19.316923638976547" fill="#3aff2e" stroke="none" /><path d="M 118.21658344932153 89.55222093294921 l 13.00863256522054 -7.46085671794446 a35.99629634885272,35.99629634885272 0 0,0 0.3036413733320168,0.5401441219427362 l -13.13513157984499 7.23582908606693" fill="#ffab0f" stroke="none" /><path d="M 118.3937258080291 89.86733742301442 l 26.29766934393376 -14.48675558199868 a51.023882164294534,51.023882164294534 0 0,0 0.4171613006686095,0.7729365343174226 l -26.543138743820833 14.031938064348799" fill="#98ff23" stroke="none" /><path d="M 118.73160827565052 90.50648371742162 l 26.781008644760146 -13.573097295836629 a51.024180159214424,51.024180159214424 0 0,0 0.39031064951615124,0.7868424523458913 l -27.010679307229704 13.110095254991789" fill="#98ff23" stroke="none" /><path d="M 118.89224826269711 90.83032412892265 l 26.93400687455341 -13.072880978209453 a50.93895361212414,50.93895361212414 0 0,0 0.37607939865879636,0.7921191257797061 l -27.155044467053962 12.607319436789206" fill="#99ff23" stroke="none" /><path d="M 119.196687751892 91.48605970444005 l 27.36721821733523 -12.137659630109264 a50.93805962736445,50.93805962736445 0 0,0 0.3485843995733213,0.8045808548331154 l -27.57209332675123 11.664779630689546" fill="#99ff23" stroke="none" /><path d="M 119.34039704204932 91.81776055985345 l 31.710171495076064 -13.415454465423402 a55.43122702955826,55.43122702955826 0 0,0 0.36420510473174605,0.8819515495976965 l -31.936398286694008 12.8676283453724" fill="#68ff28" stroke="none" /><path d="M 119.47837535516314 92.15188598940014 l 31.009896403784637 -12.494327581036284 a54.432348058066445,54.432348058066445 0 0,0 0.34268130992193724,0.8720865557140701 l -31.220371263588273 11.95869202042643" fill="#73ff27" stroke="none" /><path d="M 119.61058180528143 92.48833698450437 l 47.897895041771086 -18.346872636306276 a72.29148160236126,72.29148160236126 0 0,0 0.4351100745217923,1.1658786765994942 l -48.20660970479451 17.51967082267745" fill="#3effb5" stroke="none" /><path d="M 119.85752413597 93.16781622104841 l 37.791598061894284 -13.002584888789297 a60.96588667678904,60.96588667678904 0 0,0 0.33288159780781995,0.9952736074758773 l -38.00981695347387 12.350138178391106" fill="#2fff30" stroke="none" /><path d="M 119.97218684219823 93.5106431181261 l 19.875827438665606 -6.458047813748895 a41.89868172723532,41.89868172723532 0 0,0 0.21696437500848118,0.6878363596388957 l -19.984047297442295 6.114961287683579" fill="#fff817" stroke="none" /><path d="M 120.37134235888165 94.90015583598534 l 15.648160300988797 -3.9174236818895847 a37.13106100381717,37.13106100381717 0 0,0 0.1498807649827747,0.6213525333760415 l -15.71327386623239 3.647485916854137" fill="#ffbb11" stroke="none" /><path d="M 120.45610955862082 95.25157060432595 l 18.622139554060567 -4.322714180594537 a40.11726809609627,40.11726809609627 0 0,0 0.15035496082413607,0.674011807729501 l -18.69378890188674 4.001524203315072" fill="#ffe215" stroke="none" /><path d="M 120.53481517161879 95.60439243477599 l 20.483529856096023 -4.384629617820413 a41.94755289409828,41.94755289409828 0 0,0 0.14506003932439648,0.707364268770149 l -20.555969191335418 4.031389692886852" fill="#fff917" stroke="none" /><path d="M 120.6074358757038 95.95851677861258 l 29.385429803942028 -5.763003326673403 a50.945211505441954,50.945211505441954 0 0,0 0.16136113635921806,0.8619976426757143 l -29.480276664211104 5.256327606535126" fill="#99ff23" stroke="none" /><path d="M 120.73433829027371 96.67025291283417 l 32.929675206076745 -5.288207830108836 a54.35159143477459,54.35159143477459 0 0,0 0.14039302464435943,0.9250146200805403 l -33.0158241241604 4.720594097636213" fill="#73ff27" stroke="none" /><path d="M 120.83666639777658 97.38593545837742 l 62.50999919332973 -7.84219362486773 a84.0,84.0 0 0,0 0.16763858798564435,1.436225046700589 l -62.63572813431897 6.7650248398422885" fill="#4dd2ff" stroke="none" /><path d="M 120.94382443527127 98.46500227214037 l 15.493811628669908 -1.1355598266876628 a36.53536915894482,36.53536915894482 0 0,0 0.040570629343909426,0.6276096789646929 l -15.511062849018233 0.8686910834699346" fill="#ffb310" stroke="none" /><line stroke="#e1ed5e" stroke-width="0.3" x1="184.98032266829074" x2="189.97916517819016" y1="98.17113171792111" y2="98.06355123074" /><path d="M 185.9800911702706 98.14961562048488 a86.0,86.0 0 0,1 -9.607161424134198,41.387399972396054" fill="none" id="id40" stroke="none" /><text fill="#e1ed5e" style="font-size:6.75px; font-family:Arial;" text-anchor="middle"><textPath startOffset="21.466115282336823" xlink:href="#id40">April</textPath></text><path d="M 120.99980553446 99.90962569577887 l 17.963861404462136 -0.07730888140316416 a38.96402775609825,38.96402775609825 0 0,0 -0.0028864973139067556,0.6707203202303842 l -17.962530609858728 -0.2319209170309047" fill="#ffd313" stroke="none" /><path d="M 120.9764740272857 100.99374915477107 l 30.035491361315497 1.422915219908533 a51.069177392118746,51.069177392118746 0 0,0 -0.04915687772699094,0.8777290735380582 l -30.006548132700978 -1.9397160097820147" fill="#98ff23" stroke="none" /><path d="M 120.92983693683757 101.71520430193887 l 29.77744577378315 2.4402676067700635 a50.87726866370564,50.87726866370564 0 0,0 -0.07904244907014764,0.87222683898803 l -29.731028728435927 -2.952475834306664" fill="#9aff23" stroke="none" /><path d="M 120.89721153311464 102.0752229133903 l 27.050636864437642 2.686296272300521 a48.18369258276455,48.18369258276455 0 0,0 -0.0890657167258932,0.8246379209246701 l -27.000388846210697 -3.1515305151099824" fill="#b9ff1f" stroke="none" /><path d="M 120.8583938346157 102.4346265915055 l 2.9684385316990096 0.3464811069263775 a23.988591051638263,23.988591051638263 0 0,0 -0.05140239964848982,0.409727700470615 l -2.9620346228036714 -0.39752656168438744" fill="#ff0000" stroke="none" /><path d="M 120.81339534386255 102.79330883721812 l 5.547206529613973 0.7444754094681586 a26.596940585489065,26.596940585489065 0 0,0 -0.06480274786245803,0.4532302676183469 l -5.533569730734913 -0.8398511490669148" fill="#ff2703" stroke="none" /><path d="M 120.70491114924044 103.5080841355445 l 14.707417835828608 2.491914059075173 a35.91702970016035,35.91702970016035 0 0,0 -0.10852682452781887,0.6086760666497698 l -14.6623445689616 -2.7447088764581613" fill="#ffaa0f" stroke="none" /><path d="M 120.64145759157962 103.86396538481128 l 38.1669692499495 7.14464312273771 a59.829930042144994,59.829930042144994 0 0,0 -0.1982082020520645,1.0106593520445766 l -38.038331114921775 -7.8005662018502315" fill="#3aff2e" stroke="none" /><path d="M 120.5718875245553 104.21870165774334 l 46.82628789202459 9.602723042319436 a68.80076911069801,68.80076911069801 0 0,0 -0.24789887291707657,1.158101004484317 l -46.65405498038307 -10.407337866219923" fill="#39ff8e" stroke="none" /><path d="M 120.49622156327973 104.57218783832717 l 29.160529439854546 6.504975448887063 a50.87726866370564,50.87726866370564 0 0,0 -0.19803234036050085,0.8531181392851644 l -29.04423653356349 -7.0059622455207915" fill="#9aff23" stroke="none" /><path d="M 120.41448212921028 104.9243191809786 l 32.047703927465264 7.7304494994037505 a53.966879993188684,53.966879993188684 0 0,0 -0.22560387934277187,0.9011753527710915 l -31.90988873382743 -8.280952691572239" fill="#78ff26" stroke="none" /><path d="M 120.23288151984713 105.62410040840565 l 31.66729765427734 8.802506034339217 a53.867945679783176,53.867945679783176 0 0,0 -0.2560198864124758,0.8912388112555196 l -31.511085130978767 -9.346302321099317" fill="#79ff26" stroke="none" /><path d="M 119.67450827220406 107.3425965602758 l 28.04450100681373 10.46630765955164 a50.933887698485904,50.933887698485904 0 0,0 -0.31362109723600684,0.8187657207893373 l -27.860185629984215 -10.947496947174121" fill="#99ff23" stroke="none" /><path d="M 119.54520255179757 107.68017299344265 l 11.328956430776847 4.4516471493685605 a33.17219849299712,33.17219849299712 0 0,0 -0.21340368074946556,0.5296504345116954 l -11.25065013576999 -4.6459969517230695" fill="#ff850c" stroke="none" /><path d="M 119.41010516605496 108.01547362559984 l 46.90639993442919 19.370168699743893 a71.7485348583105,71.7485348583105 0 0,0 -0.48122432074678356,1.137472142879087 l -46.5660246324901 -20.174715368289142" fill="#3dffaf" stroke="none" /><path d="M 119.26925614724726 108.34839909993367 l 41.30977864593487 17.897448465619608 a66.02017851314726,66.02017851314726 0 0,0 -0.46075455946355176,1.0388798959390109 l -40.995583001740044 -18.605876698051308" fill="#36ff6e" stroke="none" /><path d="M 118.81262510543309 109.33194174019688 l 30.42145448680789 15.09046394811505 a54.958607086603,54.958607086603 0 0,0 -0.42768612746602114,0.8438653040838855 l -30.157189689555597 -15.611883463901629" fill="#6dff28" stroke="none" /><line stroke="#e1ed5e" stroke-width="0.3" x1="174.80103733775053" x2="179.2010983576182" y1="140.37084112569926" y2="142.7455964860345" /><path d="M 175.68104954172406 140.8457921977663 a86.0,86.0 0 0,1 -30.038265399797805,32.042727171017184" fill="none" id="id41" stroke="none" /><text fill="#e1ed5e" style="font-size:6.75px; font-family:Arial;" text-anchor="middle"><textPath startOffset="22.206326154141568" xlink:href="#id41">May</textPath></text><path d="M 117.94076556474637 110.91462005526583 l 17.862608379118562 10.8670715834552 a41.90851555959189,41.90851555959189 0 0,0 -0.3802406720536964,0.6130690346162927 l -17.672903067396902 -11.172936949436766" fill="#fff817" stroke="none" /><path d="M 117.55443506779139 111.5257021239791 l 25.012535363369334 16.42246138086398 a50.92196790169006,50.92196790169006 0 0,0 -0.48738844831498296,0.7285796004978404 l -24.72614380964363 -16.850577895567625" fill="#9aff23" stroke="none" /><path d="M 115.80600337817218 113.82643327865902 l 21.420004379373378 18.737327475773235 a49.458812845000075,49.458812845000075 0 0,0 -0.5660470463902314,0.6359598572429639 l -21.094298483334807 -19.103261502757064" fill="#aaff21" stroke="none" /><path d="M 115.32070863581623 114.36230785411682 l 16.248590806605122 15.232145516720879 a43.27184231811667,43.27184231811667 0 0,0 -0.5140971984825043,0.5390288572753918 l -15.983987056743652 -15.509581490578778" fill="#f5ff19" stroke="none" /><path d="M 115.07121518719521 114.62390073753431 l 25.69619626756933 24.933531827506684 a56.80468561535952,56.80468561535952 0 0,0 -0.6869563072758815,0.6958831124281445 l -25.263199335237914 -25.37215543391549" fill="#59ff2a" stroke="none" /><path d="M 114.55890576462653 115.13401014063108 l 27.319614884174808 28.398791459987404 a60.4062522172241,60.4062522172241 0 0,0 -0.7555503731531236,0.7144200368927787 l -26.82672867663088 -28.864846133626102" fill="#34ff2f" stroke="none" /><path d="M 114.0293411484842 115.62618273729858 l 24.566825451678675 27.363060012602617 a57.77316910502193,57.77316910502193 0 0,0 -0.7457075848922411,0.6580002417332101 l -24.092175513879845 -27.781883396108114" fill="#4fff2b" stroke="none" /><path d="M 113.48314897796784 116.09983520530334 l 24.92328643649164 29.760169902280854 a59.81801024534915,59.81801024534915 0 0,0 -0.7950949290712694,0.6543089968384768 l -24.40732137887568 -30.18477401797651" fill="#3aff2e" stroke="none" /><path d="M 113.20401910651253 116.32954008644616 l 24.445357108163222 30.231813177879857 a59.87850321408807,59.87850321408807 0 0,0 -0.8070553181927447,0.6411735549039747 l -23.921344297253125 -30.64812064678896" fill="#39ff2e" stroke="none" /><path d="M 112.34349029814194 116.9893568818739 l 35.27679881846553 48.5543481058348 a81.01647486199997,81.01647486199997 0 0,0 -1.135282597424019,0.8099939896395455 l -34.43578889319262 -49.15438635731856" fill="#49eeff" stroke="none" /><path d="M 112.04921762599082 117.19931262002967 l 5.189622020179557 7.407778187384041 a30.044741808687263,30.044741808687263 0 0,0 -0.42612473814288204,0.293092480507487 l -5.061340397413791 -7.496011457256623" fill="#ff5908" stroke="none" /><path d="M 111.7513745106137 117.40417183066458 l 16.71633065823489 24.757435046543556 a50.8725007449873,50.8725007449873 0 0,0 -0.7299605529921285,0.48377805099082577 l -16.2876954065028 -25.0415111186257" fill="#9aff22" stroke="none" /><path d="M 111.45004920935366 117.60387380957326 l 24.407577474835158 37.525420721631534 a65.76479686679627,65.76479686679627 0 0,0 -0.9542728757142779,0.6090620991392885 l -23.758022797073952 -37.939997249594626" fill="#36ff6b" stroke="none" /><line stroke="#e1ed5e" stroke-width="0.3" x1="143.8653032363475" x2="146.44561519142675" y1="172.8068346515853" y2="177.08958963109032" /><path d="M 144.38136562736335 173.6633856474863 a86.0,86.0 0 0,1 -40.68145358897372,12.25698825130547" fill="none" id="id42" stroke="none" /><text fill="#e1ed5e" style="font-size:6.75px; font-family:Arial;" text-anchor="middle"><textPath startOffset="21.466115282336833" xlink:href="#id42">June</textPath></text><path d="M 110.8373102113329 117.98757091392108 l 14.619473190963136 24.265136423946124 a49.328887059925364,49.328887059925364 0 0,0 -0.7310825971171935,0.43193648474949814 l -14.19962272281756 -24.51319148098937" fill="#acff21" stroke="none" /><path d="M 110.5260780823613 118.17145234162733 l 13.467572536476329 23.24943351067086 a47.868413957514434,47.868413957514434 0 0,0 -0.7165473787176737,0.40687430237374034 l -13.065376390837455 -23.477810978839226" fill="#bdff1f" stroke="none" /><path d="M 109.89434966115114 118.52300852407294 l 14.063340089675792 26.327689770334473 a50.84836315647571,50.84836315647571 0 0,0 -0.7755806338407489,0.40574713142098523 l -13.608068553308547 -26.565866320700174" fill="#9aff22" stroke="none" /><path d="M 109.2508944713604 118.85261126421891 l 19.712513917665902 40.17258688668292 a65.74840714620198,65.74840714620198 0 0,0 -1.020312999433819,0.4898122440470984 l -19.018088250231852 -40.50595340722958" fill="#36ff6b" stroke="none" /><path d="M 107.2578585660854 119.70592522655815 l 6.198908050603998 16.830752131533654 a38.93601623362802,38.93601623362802 0 0,0 -0.63091260530032,0.22622281346538023 l -5.908275884673944 -16.934962486038994" fill="#ffd213" stroke="none" /><path d="M 106.91757812671514 119.82793768551818 l 9.829162818524503 28.173448032897323 a50.83882731903904,50.83882731903904 0 0,0 -0.8287461587278493,0.2811556930683475 l -9.342746926859428 -28.33846671286379" fill="#9bff22" stroke="none" /><path d="M 106.57524785965236 119.94407469862006 l 12.139823459570168 36.82257324342576 a59.77211902768515,59.77211902768515 0 0,0 -0.979917368567412,0.31373859664471054 l -11.504184745911816 -37.02608468673017" fill="#3bff2e" stroke="none" /><path d="M 105.88484417918355 120.15858648285463 l 8.361838234084752 28.64355181972276 a50.83912531395893,50.83912531395893 0 0,0 -0.8421593875024029,0.2380026550109307 l -7.8675476784777425 -28.78324326807221" fill="#9bff22" stroke="none" /><path d="M 104.48393922423573 120.51570834832081 l 7.644222083700474 34.97519100422747 a56.80081168140086,56.80081168140086 0 0,0 -0.9569815319343595,0.20054478457399477 l -7.041049090336736 -35.10159176952801" fill="#59ff2a" stroke="none" /><line stroke="#e1ed5e" stroke-width="0.3" x1="102.19456741930631" x2="102.32365962044197" y1="184.97166512339345" y2="189.96999836594603" /><path d="M 102.22038585953345 185.97133177190398 a86.0,86.0 0 0,1 -42.740103519485714,-10.115201625700543" fill="none" id="id43" stroke="none" /><text fill="#e1ed5e" style="font-size:6.75px; font-family:Arial;" text-anchor="middle"><textPath startOffset="22.20632615414155" xlink:href="#id43">July</textPath></text><line stroke="#e1ed5e" stroke-width="0.3" x1="58.666819895761336" x2="56.23545636021788" y1="174.27360380694188" y2="178.64263932499728" /><path d="M 58.180547188652646 175.14741091055294 a86.0,86.0 0 0,1 -31.652253787137756,-30.449443065178592" fill="none" id="id44" stroke="none" /><text fill="#e1ed5e" style="font-size:6.75px; font-family:Arial;" text-anchor="middle"><textPath startOffset="22.20632615414155" xlink:href="#id44">August</textPath></text><line stroke="#e1ed5e" stroke-width="0.3" x1="26.63291911575756" x2="22.317208475507996" y1="142.92168965132927" y2="145.44649492493687" /><path d="M 25.769776987707644 143.4266507060508 a86.0,86.0 0 0,1 -11.730757126820373,-40.83630448921669" fill="none" id="id45" stroke="none" /><text fill="#e1ed5e" style="font-size:6.75px; font-family:Arial;" text-anchor="middle"><textPath startOffset="21.46611528233685" xlink:href="#id45">September</textPath></text><line stroke="#e1ed5e" stroke-width="0.3" x1="15.007084014347285" x2="10.007500721073583" y1="101.09737516637583" y2="101.16192664675087" /><path d="M 14.007167355692545 101.11028546245083 a86.0,86.0 0 0,1 10.666146001902534,-42.60595125391555" fill="none" id="id46" stroke="none" /><text fill="#e1ed5e" style="font-size:6.75px; font-family:Arial;" text-anchor="middle"><textPath startOffset="22.20632615414155" xlink:href="#id46">October</textPath></text><line stroke="#e1ed5e" stroke-width="0.3" x1="26.266209847984243" x2="21.928928074336255" y1="57.711370442889674" y2="55.22380399835377" /><path d="M 25.398753493254645 57.213857153982495 a86.0,86.0 0 0,1 29.58750427330803,-30.492523968695096" fill="none" id="id47" stroke="none" /><text fill="#e1ed5e" style="font-size:6.75px; font-family:Arial;" text-anchor="middle"><textPath startOffset="21.46611528233685" xlink:href="#id47">November</textPath></text><line stroke="#e1ed5e" stroke-width="0.3" x1="56.762969772571076" x2="54.21961505331055" y1="26.818313649435495" y2="22.513508569990535" /><path d="M 56.25429882871897 25.957352633546506 a86.0,86.0 0 0,1 42.265352541879196,-11.944610805530505" fill="none" id="id48" stroke="none" /><text fill="#e1ed5e" style="font-size:6.75px; font-family:Arial;" text-anchor="middle"><textPath startOffset="22.20632615414155" xlink:href="#id48">December</textPath></text></svg>