<?xml version="1.0" encoding="utf-8" ?>
<svg baseProfile="full" height="200mm" version="1.1" viewBox="0,0,200,200" width="200mm" xmlns="http://www.w3.org/2000/svg" xmlns:ev="http://www.w3.org/2001/xml-events" xmlns:xlink="http://www.w3.org/1999/xlink"><defs /><rect fill="#1a1a1a" height="200" width="200" x="0" y="0" /><text alignment-baseline="middle" fill="#e1ed5e" style="dominant-baseline: central; font-size:9.0px; font-family:Arial;" text-anchor="middle" x="100.0" y="100.0">2024</text><line stroke="#e1ed5e" stroke-width="0.3" x1="100.0" x2="100.0" y1="15.0" y2="10.0" /><path d="M 100.0 14.0 a86.0,86.0 0 0,1 42.35913384403234,11.155469271406648" fill="none" id="id49" stroke="none" /><text fill="#e1ed5e" style="font-size:6.75px; font-family:Arial;" text-anchor="middle"><textPath startOffset="22.145653131862478" xlink:href="#id49">January</textPath></text><path d="M 100.0 79.0 l 0.0 -38.19248866093002 a59.19248866093002,59.19248866093002 0 0,0 1.0161177793553016,0.008722149049356703 l -0.6556248545064468 38.1868609100751" fill="#69ff28" stroke="none" /><path d="M 100.72087961077811 79.0123766808444 l 1.937085936197833 -56.39614348624928 a77.42940104277054,77.42940104277054 0 0,0 1.3280036013196521,0.05703018868847377 l -2.904915298118321 56.35458072913497" fill="#43ffe1" stroke="none" /><path d="M 101.44090949804482 79.04949213459386 l 4.0597843464051016 -59.02837339654169 a80.16781823576788,80.16781823576788 0 0,0 1.372133309293258,0.10621179611684387 l -5.072486650473594 58.94998383342979" fill="#47fdff" stroke="none" /><path d="M 101.80034050326958 79.07731436759882 l 3.7666873215581225 -43.77461628030207 a64.93637404094783,64.93637404094783 0 0,0 1.1097949045471565,0.10509873131002748 l -4.517581789490292 43.70350579348686" fill="#31ff3d" stroke="none" /><path d="M 102.15924093988457 79.11130261209362 l 6.477722819653705 -62.666092163719114 a84.0,84.0 0 0,0 1.4330563935968135,0.16057695797211657 l -7.552515114851315 62.54565944524002" fill="#4dd2ff" stroke="none" /><path d="M 102.87502721639298 79.19773525538626 l 6.515778934450615 -47.144930538039084 a68.59306515196474,68.59306515196474 0 0,0 1.1650202032915433,0.17121785020980107 l -7.32412424334984 47.0261316145304" fill="#36ff70" stroke="none" /><path d="M 103.23170211078529 79.25015418208739 l 7.930358267147696 -50.91858893025791 a72.53244881522613,72.53244881522613 0 0,0 1.2286392286775045,0.20217211752682399 l -8.80327499887827 50.77495081423542" fill="#3cffa4" stroke="none" /><path d="M 103.58742460773223 79.30868818359171 l 10.107036650313441 -58.29470155853708 a80.16438472298756,80.16438472298756 0 0,0 1.353882041309249,0.24672240811024745 l -11.106253425173744 58.11261097649546" fill="#47fdff" stroke="none" /><path d="M 104.29559338865022 79.4440306129975 l 2.263694502467021 -10.83259766093914 a32.066593192319104,32.066593192319104 0 0,0 0.5378599663485623,0.11722407628540753 l -2.449316885434717 10.792142126520012" fill="#ff0000" stroke="none" /><path d="M 104.9986988182912 79.60360301121754 l 7.274973380846407 -29.684373984606843 a51.56284176168877,51.56284176168877 0 0,0 0.8578944751328874,0.21807342080853173 l -7.7834731492046885 29.555115331963044" fill="#cdff1d" stroke="none" /><path d="M 105.3480935250658 79.69241777938227 l 9.757711395557788 -37.05161952041783 a59.31495061676063,59.31495061676063 0 0,0 0.9824210965309316,0.2677632384920726 l -10.392313893023413 36.87865578778162" fill="#67ff28" stroke="none" /><path d="M 106.04205211174951 79.88797359093562 l 14.098792376253241 -46.93029443683762 a70.00233139756688,70.00233139756688 0 0,0 1.147902787503645,0.3556232178563022 l -14.902335796628517 46.68135463117467" fill="#38ff83" stroke="none" /><path d="M 106.38641147887787 79.99465700312896 l 17.995899486282553 -56.37189882784596 a80.17468526132848,80.17468526132848 0 0,0 1.3075241294406512,0.4298091520763468 l -18.96094635337095 56.05466875436759" fill="#47fdff" stroke="none" /><path d="M 106.72888874123014 80.10723608172694 l 7.694274039844157 -22.746754015899416 a45.01284388114111,45.01284388114111 0 0,0 0.729838739303203,0.2538757992298898 l -8.083618551192378 22.611319784100935" fill="#ffd213" stroke="none" /><path d="M 107.06938296918511 80.22567764915836 l 19.368038226439342 -54.175849980466104 a78.53384765376626,78.53384765376626 0 0,0 1.2655574289703224,0.4647302177148529 l -20.29518480706379 53.835388913742534" fill="#45ffee" stroke="none" /><path d="M 109.71004243097381 81.37971332152246 l 17.7020687919682 -33.94605101385961 a59.284430503157985,59.284430503157985 0 0,0 0.8983318493252055,0.47831111102303214 l -18.282189457079962 33.637169435114004" fill="#68ff28" stroke="none" /><path d="M 110.34350942703115 81.72400993836675 l 17.54532592127905 -31.000909742241067 a56.62155059132721,56.62155059132721 0 0,0 0.8417940274302821,0.48601000833909264 l -18.07491241656973 30.6951528366258" fill="#89ff24" stroke="none" /><line stroke="#e1ed5e" stroke-width="0.3" x1="143.13028292997686" x2="145.6673583964461" y1="26.7553504044142" y2="22.446841604673864" /><path d="M 143.63769802327073 25.89364864446614 a86.0,86.0 0 0,1 29.32050498858742,28.57503671076993" fill="none" id="id50" stroke="none" /><text fill="#e1ed5e" style="font-size:6.75px; font-family:Arial;" text-anchor="middle"><textPath startOffset="20.669276256404974" xlink:href="#id50">February</textPath></text><path d="M 110.65571695917076 81.90426304109057 l 20.213386021781627 -34.32674853326081 a60.835996778432445,60.835996778432445 0 0,0 0.8953530393519489,0.5376337745485177 l -20.79967181769101 33.974700758176375" fill="#55ff2b" stroke="none" /><path d="M 111.27062007382361 82.28071324371311 l 20.524380850205933 -32.26773570557092 a59.24208384553432,59.24208384553432 0 0,0 0.8534086446813892,0.5531691728917422 l -21.07527512714433 31.910652690975287" fill="#68ff28" stroke="none" /><path d="M 111.5731344415666 82.4767994020092 l 21.445097943643034 -32.4706115709089 a59.91314484337247,59.91314484337247 0 0,0 0.8533449530683205,0.5741685679996076 l -21.999339184808356 32.09769332885217" fill="#60ff29" stroke="none" /><path d="M 112.16784306229584 82.88440491214696 l 31.59710401365465 -44.44528380894895 a75.53219448094612,75.53219448094612 0 0,0 1.0503254817410879,0.7603546499890911 l -32.355410505769704 43.896328387586784" fill="#40ffca" stroke="none" /><path d="M 113.31354834802062 83.75963576809568 l 23.107173717698526 -28.18699476170105 a57.44788266711881,57.44788266711881 0 0,0 0.75728801763403,0.6317565981919783 l -23.587636069494447 27.7861759795972" fill="#7fff26" stroke="none" /><path d="M 114.13192950727249 84.46653392183569 l 15.981248537242505 -17.56619164511254 a44.748081895638165,44.748081895638165 0 0,0 0.5637623933519246,0.5218100548027116 l -16.280440701908397 17.28926384417745" fill="#ffce13" stroke="none" /><line stroke="#e1ed5e" stroke-width="0.3" x1="172.87174338648825" x2="177.1583165268699" y1="56.24261187166439" y2="53.66864786411523" /><path d="M 173.72905801456457 55.72781907015455 a86.0,86.0 0 0,1 12.242430191666344,42.057860355516425" fill="none" id="id51" stroke="none" /><text fill="#e1ed5e" style="font-size:6.75px; font-family:Arial;" text-anchor="middle"><textPath startOffset="22.145653131862474" xlink:href="#id51">March</textPath></text><path d="M 120.05942366710727 93.78553927170692 l 18.23382989773423 -5.648887111928986 a40.08880505277436,40.08880505277436 0 0,0 0.19800754222528263,0.659102709605009 l -18.328113759963138 5.335046798733253" fill="#ff860c" stroke="none" /><path d="M 120.26092885502905 94.47779374421319 l 18.451227209657763 -5.028964024955105 a40.124284684837434,40.124284684837434 0 0,0 0.17542054329779688,0.6661003756776319 l -18.53483723376029 4.711483144904674" fill="#ff870c" stroke="none" /><path d="M 120.592083275326 95.88100663000786 l 28.096845623208182 -5.620156022696296 a49.6534271544233,49.6534271544233 0 0,0 0.16001102459226932,0.8372452948898313 l -28.18918294008261 5.13700816277315" fill="#e8ff1a" stroke="none" /><path d="M 120.7213421655516 96.59031103205396 l 38.32263144806404 -6.305974421307358 a59.837989063625955,59.837989063625955 0 0,0 0.15808201650937018,1.014999946377178 l -38.42523495671167 5.647186292998739" fill="#61ff29" stroke="none" /><path d="M 120.77682067341334 96.94652285012252 l 37.7945210522819 -5.554493068873706 a59.20050019075072,59.20050019075072 0 0,0 0.13913663367084447,1.006723370405721 l -37.88430220250795 4.904881390267899" fill="#69ff28" stroke="none" /><path d="M 120.86939407059847 97.66154086499901 l 38.974813273553345 -4.367209120982628 a60.218727480818956,60.218727480818956 0 0,0 0.10629353121488129,1.0282934927856304 l -39.044039197249894 3.697511105914067" fill="#5cff2a" stroke="none" /><path d="M 120.9064616781168 98.02013634271609 l 39.312559306124854 -3.72294023940383 a60.48844898478232,60.48844898478232 0 0,0 0.08902280127391143,1.0345798929630865 l -39.37067573009651 3.0475392990650816" fill="#59ff2a" stroke="none" /><path d="M 120.96210409425399 98.7389718711861 l 28.600958501104166 -1.7205626409811636 a49.65266415158323,49.65266415158323 0 0,0 0.04387973932857135,0.8512552204077146 l -28.62627982988931 1.2293356271967184" fill="#e8ff1a" stroke="none" /><path d="M 120.98066250479742 99.09900007780936 l 57.25903921183385 -2.4589495142384847 a78.31181382730702,78.31181382730702 0 0,0 0.046149200378927654,1.3435836158380785 l -57.292813099209624 1.4756596338362862" fill="#45ffec" stroke="none" /><path d="M 120.99303781780057 99.45929381324524 l 19.085146118365852 -0.4915656643351013 a40.09147556271459,40.09147556271459 0 0,0 0.011814706610965172,0.6881474290443469 l -19.090772256575484 0.163871319321688" fill="#ff860c" stroke="none" /><line stroke="#e1ed5e" stroke-width="0.3" x1="184.99686870605535" x2="189.99668451229388" y1="99.2704041080226" y2="99.22748670261217" /><path d="M 185.99683186730306 99.26182062694052 a86.0,86.0 0 0,1 -10.086455211305974,41.156179273409016" fill="none" id="id52" stroke="none" /><text fill="#e1ed5e" style="font-size:6.75px; font-family:Arial;" text-anchor="middle"><textPath startOffset="21.40746469413373" xlink:href="#id52">April</textPath></text><path d="M 120.99922638620191 100.18025310272382 l 22.928535158502815 0.19681389815141526 a43.92937984824721,43.92937984824721 0 0,0 -0.012945712953283695,0.7540228783746118 l -22.92177801395086 -0.5903836924950981" fill="#ffc212" stroke="none" /><path d="M 120.99303781780057 100.54070618675476 l 27.59400240289837 0.7107236192334881 a48.60315374507227,48.60315374507227 0 0,0 -0.028641868596937882,0.8338767531798533 l -27.577735847304584 -1.1843066369774522" fill="#f7ff19" stroke="none" /><path d="M 120.96210409425399 101.26102812881392 l 38.09653003728727 2.2917926450137256 a59.16540206010767,59.16540206010767 0 0,0 -0.06969131824015726,1.0132964720699942 l -38.05157475788205 -2.9454325412380635" fill="#69ff28" stroke="none" /><path d="M 120.82617615685814 102.69636545807757 l 18.95274472229091 2.4538122514688636 a40.11093213513628,40.11093213513628 0 0,0 -0.09427116414051455,0.6820991825928615 l -18.907829041595182 -2.7787997422618105" fill="#ff860c" stroke="none" /><path d="M 120.77682067341334 103.0534771498775 l 19.8446524472174 2.916480521602526 a41.057818659658345,41.057818659658345 0 0,0 -0.10846792929978294,0.6964419157469387 l -19.79166302577935 -3.2567106192809154" fill="#ff950d" stroke="none" /><path d="M 120.65975698304385 103.76489593502545 l 37.554550774024605 6.843690158934335 a59.17303208850833,59.17303208850833 0 0,0 -0.1906884989683869,0.9977628038924843 l -37.43153598277406 -7.487355527860133" fill="#69ff28" stroke="none" /><path d="M 120.592083275326 104.11899336999214 l 37.42629871010007 7.486307926646961 a59.16769106862787,59.16769106862787 0 0,0 -0.20776957069702015,0.9942526092164765 l -37.29227142857869 -8.127676987148847" fill="#69ff28" stroke="none" /><path d="M 120.51834098615036 104.47187691870673 l 55.926106351660565 12.188834580531601 a78.23894705608072,78.23894705608072 0 0,0 -0.29726753229715314,1.3098155968419527 l -55.708627957805746 -13.14708451131257" fill="#44ffeb" stroke="none" /><line stroke="#e1ed5e" stroke-width="0.3" x1="174.33088141563837" x2="178.70328620479359" y1="141.23008692659167" y2="143.65538615756765" /><path d="M 175.20536237346943 141.71514677278685 a86.0,86.0 0 0,1 -30.301960400862466,31.631185727798858" fill="none" id="id53" stroke="none" /><text fill="#e1ed5e" style="font-size:6.75px; font-family:Arial;" text-anchor="middle"><textPath startOffset="22.145653131862474" xlink:href="#id53">May</textPath></text><line stroke="#e1ed5e" stroke-width="0.3" x1="143.1302829299769" x2="145.66735839644613" y1="173.24464959558577" y2="177.55315839532614" /><path d="M 143.63769802327073 174.10635135553383 a86.0,86.0 0 0,1 -40.68552437913181,11.842963189579606" fill="none" id="id54" stroke="none" /><text fill="#e1ed5e" style="font-size:6.75px; font-family:Arial;" text-anchor="middle"><textPath startOffset="21.407464694133747" xlink:href="#id54">June</textPath></text><line stroke="#e1ed5e" stroke-width="0.3" x1="101.45913802915013" x2="101.54496967792366" y1="184.9874750549273" y2="189.98673829345242" /><path d="M 101.47630435890484 185.9873277026323 a86.0,86.0 0 0,1 -42.54439059252881,-10.42667462771756" fill="none" id="id55" stroke="none" /><text fill="#e1ed5e" style="font-size:6.75px; font-family:Arial;" text-anchor="middle"><textPath startOffset="22.145653131862474" xlink:href="#id55">July</textPath></text><line stroke="#e1ed5e" stroke-width="0.3" x1="58.13341422392154" x2="55.67067388415222" y1="173.97424548756322" y2="178.32567169271397" /><path d="M 57.64086615596768 174.84453072859336 a86.0,86.0 0 0,1 -31.369924170532247,-30.572349798747897" fill="none" id="id56" stroke="none" /><text fill="#e1ed5e" style="font-size:6.75px; font-family:Arial;" text-anchor="middle"><textPath startOffset="22.145653131862474" xlink:href="#id56">August</textPath></text><line stroke="#e1ed5e" stroke-width="0.3" x1="26.387840678322732" x2="22.057713659400548" y1="142.50000000000003" y2="145.00000000000006" /><path d="M 25.521815274538298 143.00000000000003 a86.0,86.0 0 0,1 -11.493303480769221,-40.785679425670985" fill="none" id="id57" stroke="none" /><text fill="#e1ed5e" style="font-size:6.75px; font-family:Arial;" text-anchor="middle"><textPath startOffset="21.40746469413373" xlink:href="#id57">September</textPath></text><line stroke="#e1ed5e" stroke-width="0.3" x1="15.003131293944662" x2="10.003315487706104" y1="100.72959589197737" y2="100.7725132973878" /><path d="M 14.003168132696942 100.73817937305945 a86.0,86.0 0 0,1 10.791469493833604,-42.45332614584628" fill="none" id="id58" stroke="none" /><text fill="#e1ed5e" style="font-size:6.75px; font-family:Arial;" text-anchor="middle"><textPath startOffset="22.145653131862435" xlink:href="#id58">October</textPath></text><line stroke="#e1ed5e" stroke-width="0.3" x1="26.387840678322718" x2="22.05771365940052" y1="57.49999999999999" y2="54.99999999999999" /><path d="M 25.521815274538284 56.99999999999999 a86.0,86.0 0 0,1 29.574782752854787,-30.34633250058573" fill="none" id="id59" stroke="none" /><text fill="#e1ed5e" style="font-size:6.75px; font-family:Arial;" text-anchor="middle"><textPath startOffset="21.40746469413373" xlink:href="#id59">November</textPath></text><line stroke="#e1ed5e" stroke-width="0.3" x1="56.869717070023135" x2="54.33264160355391" y1="26.7553504044142" y2="22.446841604673864" /><path d="M 56.362301976729285 25.89364864446614 a86.0,86.0 0 0,1 42.16139366436587,-11.88097634709845" fill="none" id="id60" stroke="none" /><text fill="#e1ed5e" style="font-size:6.75px; font-family:Arial;" text-anchor="middle"><textPath startOffset="22.145653131862474" xlink:href="#id60">December</textPath></text></svg>