<?xml version="1.0" encoding="utf-8" ?>
<svg baseProfile="full" height="200mm" version="1.1" viewBox="0,0,200,200" width="200mm" xmlns="http://www.w3.org/2000/svg" xmlns:ev="http://www.w3.org/2001/xml-events" xmlns:xlink="http://www.w3.org/1999/xlink"><defs /><rect fill="#1a1a1a" height="200" width="200" x="0" y="0" /><text alignment-baseline="middle" fill="#e1ed5e" style="dominant-baseline: central; font-size:9.0px; font-family:Arial;" text-anchor="middle" x="100.0" y="100.0">2020</text><line stroke="#e1ed5e" stroke-width="0.3" x1="100.0" x2="100.0" y1="15.0" y2="10.0" /><path d="M 100.0 14.0 a86.0,86.0 0 0,1 42.35913384403234,11.155469271406648" fill="none" id="id1" stroke="none" /><text fill="#e1ed5e" style="font-size:6.75px; font-family:Arial;" text-anchor="middle"><textPath startOffset="22.145653131862478" xlink:href="#id1">January</textPath></text><line stroke="#e1ed5e" stroke-width="0.3" x1="143.13028292997686" x2="145.6673583964461" y1="26.7553504044142" y2="22.446841604673864" /><path d="M 143.63769802327073 25.89364864446614 a86.0,86.0 0 0,1 29.32050498858742,28.57503671076993" fill="none" id="id2" stroke="none" /><text fill="#e1ed5e" style="font-size:6.75px; font-family:Arial;" text-anchor="middle"><textPath startOffset="20.669276256404974" xlink:href="#id2">February</textPath></text><line stroke="#e1ed5e" stroke-width="0.3" x1="172.87174338648825" x2="177.1583165268699" y1="56.24261187166439" y2="53.66864786411523" /><path d="M 173.72905801456457 55.72781907015455 a86.0,86.0 0 0,1 12.242430191666344,42.057860355516425" fill="none" id="id3" stroke="none" /><text fill="#e1ed5e" style="font-size:6.75px; font-family:Arial;" text-anchor="middle"><textPath startOffset="22.145653131862474" xlink:href="#id3">March</textPath></text><line stroke="#e1ed5e" stroke-width="0.3" x1="184.99686870605535" x2="189.99668451229388" y1="99.2704041080226" y2="99.22748670261217" /><path d="M 185.99683186730306 99.26182062694052 a86.0,86.0 0 0,1 -10.086455211305974,41.156179273409016" fill="none" id="id4" stroke="none" /><text fill="#e1ed5e" style="font-size:6.75px; font-family:Arial;" text-anchor="middle"><textPath startOffset="21.40746469413373" xlink:href="#id4">April</textPath></text><line stroke="#e1ed5e" stroke-width="0.3" x1="174.33088141563837" x2="178.70328620479359" y1="141.23008692659167" y2="143.65538615756765" /><path d="M 175.20536237346943 141.71514677278685 a86.0,86.0 0 0,1 -30.301960400862466,31.631185727798858" fill="none" id="id5" stroke="none" /><text fill="#e1ed5e" style="font-size:6.75px; font-family:Arial;" text-anchor="middle"><textPath startOffset="22.145653131862474" xlink:href="#id5">May</textPath></text><line stroke="#e1ed5e" stroke-width="0.3" x1="143.1302829299769" x2="145.66735839644613" y1="173.24464959558577" y2="177.55315839532614" /><path d="M 143.63769802327073 174.10635135553383 a86.0,86.0 0 0,1 -40.68552437913181,11.842963189579606" fill="none" id="id6" stroke="none" /><text fill="#e1ed5e" style="font-size:6.75px; font-family:Arial;" text-anchor="middle"><textPath startOffset="21.407464694133747" xlink:href="#id6">June</textPath></text><line stroke="#e1ed5e" stroke-width="0.3" x1="101.45913802915013" x2="101.54496967792366" y1="184.9874750549273" y2="189.98673829345242" /><path d="M 101.47630435890484 185.9873277026323 a86.0,86.0 0 0,1 -42.54439059252881,-10.42667462771756" fill="none" id="id7" stroke="none" /><text fill="#e1ed5e" style="font-size:6.75px; font-family:Arial;" text-anchor="middle"><textPath startOffset="22.145653131862474" xlink:href="#id7">July</textPath></text><line stroke="#e1ed5e" stroke-width="0.3" x1="58.13341422392154" x2="55.67067388415222" y1="173.97424548756322" y2="178.32567169271397" /><path d="M 57.64086615596768 174.84453072859336 a86.0,86.0 0 0,1 -31.369924170532247,-30.572349798747897" fill="none" id="id8" stroke="none" /><text fill="#e1ed5e" style="font-size:6.75px; font-family:Arial;" text-anchor="middle"><textPath startOffset="22.145653131862474" xlink:href="#id8">August</textPath></text><line stroke="#e1ed5e" stroke-width="0.3" x1="26.387840678322732" x2="22.057713659400548" y1="142.50000000000003" y2="145.00000000000006" /><path d="M 25.521815274538298 143.00000000000003 a86.0,86.0 0 0,1 -11.493303480769221,-40.785679425670985" fill="none" id="id9" stroke="none" /><text fill="#e1ed5e" style="font-size:6.75px; font-family:Arial;" text-anchor="middle"><textPath startOffset="21.40746469413373" xlink:href="#id9">September</textPath></text><path d="M 79.13060592940153 102.33845913500099 l -25.197350644062915 2.823415696311209 a46.35504201680672,46.35504201680672 0 0,0 -0.0818224049511843,-0.791557544600552 l 25.242105441495763 -2.3904536294277254" fill="#ff7e0b" stroke="none" /><path d="M 79.00696218219943 100.54070618675478 l -19.213795957132245 0.4948792278293349 a40.22016806722689,40.22016806722689 0 0,0 -0.011852631485580094,-0.6903563628607129 l 19.21946002021649 -0.16497594899956958" fill="#ff0500" stroke="none" /><line stroke="#e1ed5e" stroke-width="0.3" x1="15.003131293944662" x2="10.003315487706104" y1="100.72959589197737" y2="100.7725132973878" /><path d="M 14.003168132696942 100.73817937305945 a86.0,86.0 0 0,1 10.791469493833604,-42.45332614584628" fill="none" id="id10" stroke="none" /><text fill="#e1ed5e" style="font-size:6.75px; font-family:Arial;" text-anchor="middle"><textPath startOffset="22.145653131862435" xlink:href="#id10">October</textPath></text><path d="M 79.22317932658666 96.9465228501225 l -18.803895685097615 -2.7635251179983653 a40.00588235294117,40.00588235294117 0 0,0 0.10568888850634243,-0.6785984803036998 l 18.753685304453004 3.0859117802335154" fill="#ff0100" stroke="none" /><path d="M 79.34024301695615 96.23510406497455 l -37.107577315853085 -6.762236705386191 a58.718697478991594,58.718697478991594 0 0,0 0.1892243795602662,-0.990101912471224 l 36.98602664401066 7.39824118289073" fill="#a9ff21" stroke="none" /><path d="M 79.73907114497095 94.47779374421319 l -30.353692874710095 -8.273033969878934 a52.4609243697479,52.4609243697479 0 0,0 0.2442718234302503,-0.866834526715516 l 30.207202559205264 8.792876420497464" fill="#ffed16" stroke="none" /><path d="M 79.94057633289273 93.78553927170692 l -33.57605572514725 -10.401947891307364 a56.15042016806722,56.15042016806722 0 0,0 0.29314606068345145,-0.9182758598549379 l 33.39254494868654 10.976792784853693" fill="#d3ff1c" stroke="none" /><path d="M 80.05021161711548 93.44210830539832 l -35.842560976980764 -11.782161716855798 a58.72941176470588,58.72941176470588 0 0,0 0.3230525353001423,-0.9550474179411681 l 35.63502302010826 12.395710809271128" fill="#a9ff21" stroke="none" /><path d="M 80.28708602549916 92.7611449362534 l -48.736215920691926 -17.896613553008816 a72.91827731092437,72.91827731092437 0 0,0 0.4415698791933134,-1.1713165662178275 l 48.421815357684174 18.73059839942079" fill="#3aff8f" stroke="none" /><path d="M 80.5471966667186 92.08871423366112 l -58.3584099998442 -23.73385729901662 a84.0,84.0 0 0,0 0.5546966218540859,-1.3310699622349447 l 57.94238753345363 24.732159770692828" fill="#4dd2ff" stroke="none" /><path d="M 80.9802524753101 91.09779779509293 l -28.491947117268058 -13.335669893629397 a52.45840336134454,52.45840336134454 0 0,0 0.3887436027300501,-0.8123246159398119 l 28.258824256578105 13.822807011634296" fill="#ffed16" stroke="none" /><line stroke="#e1ed5e" stroke-width="0.3" x1="26.387840678322718" x2="22.05771365940052" y1="57.49999999999999" y2="54.99999999999999" /><path d="M 25.521815274538284 56.99999999999999 a86.0,86.0 0 0,1 29.574782752854787,-30.34633250058573" fill="none" id="id11" stroke="none" /><text fill="#e1ed5e" style="font-size:6.75px; font-family:Arial;" text-anchor="middle"><textPath startOffset="21.40746469413373" xlink:href="#id11">November</textPath></text><line stroke="#e1ed5e" stroke-width="0.3" x1="56.869717070023135" x2="54.33264160355391" y1="26.7553504044142" y2="22.446841604673864" /><path d="M 56.362301976729285 25.89364864446614 a86.0,86.0 0 0,1 42.16139366436587,-11.88097634709845" fill="none" id="id12" stroke="none" /><text fill="#e1ed5e" style="font-size:6.75px; font-family:Arial;" text-anchor="middle"><textPath startOffset="22.145653131862474" xlink:href="#id12">December</textPath></text><path d="M 96.05791012581881 79.37332000966035 l -3.559830198806655 -18.62653584121638 a39.963655462184875,39.963655462184875 0 0,0 0.6749390720366807,-0.12299638232852077 l 3.239556393218936 18.684900397476262" fill="#ff0000" stroke="none" /><path d="M 97.48249496171623 79.15144685158666 l -3.781848655049705 -31.319132031533044 a52.546638655462175,52.546638655462175 0 0,0 0.8964559105622736,-0.10044975460659697 l 3.2436568428866317 31.379437546646614" fill="#ffef16" stroke="none" /><path d="M 98.5590905019552 79.04949213459386 l -1.306851291444002 -19.001330963162467 a40.04621848739496,40.04621848739496 0 0,0 0.686231328496458,-0.04128197265963201 l 0.9804756108150603 19.020964913646793" fill="#ff0200" stroke="none" /></svg>