<?xml version="1.0" encoding="utf-8" ?>
<svg baseProfile="full" height="200mm" version="1.1" viewBox="0,0,200,200" width="200mm" xmlns="http://www.w3.org/2000/svg" xmlns:ev="http://www.w3.org/2001/xml-events" xmlns:xlink="http://www.w3.org/1999/xlink"><defs /><rect fill="#1a1a1a" height="200" width="200" x="0" y="0" /><text alignment-baseline="middle" fill="#e1ed5e" style="dominant-baseline: central; font-size:9.0px; font-family:Arial;" text-anchor="middle" x="100.0" y="100.0">2024</text><line stroke="#e1ed5e" stroke-width="0.3" x1="100.0" x2="100.0" y1="15.0" y2="10.0" /><path d="M 100.0 14.0 a86.0,86.0 0 0,1 42.35913384403234,11.155469271406648" fill="none" id="id49" stroke="none" /><text fill="#e1ed5e" style="font-size:6.75px; font-family:Arial;" text-anchor="middle"><textPath startOffset="22.145653131862478" xlink:href="#id49">January</textPath></text><path d="M 100.0 79.0 l 0.0 -38.19248866093002 a59.19248866093002,59.19248866093002 0 0,0 1.0161177793553016,0.008722149049356703 l -0.6556248545064468 38.1868609100751" fill="#69ff28" stroke="none" /><path d="M 100.72087961077811 79.0123766808444 l 1.937085936197833 -56.39614348624928 a77.42940104277054,77.42940104277054 0 0,0 1.3280036013196521,0.05703018868847377 l -2.904915298118321 56.35458072913497" fill="#43ffe1" stroke="none" /><path d="M 101.44090949804482 79.04949213459386 l 4.0597843464051016 -59.02837339654169 a80.16781823576788,80.16781823576788 0 0,0 1.372133309293258,0.10621179611684387 l -5.072486650473594 58.94998383342979" fill="#47fdff" stroke="none" /><path d="M 101.80034050326958 79.07731436759882 l 3.7666873215581225 -43.77461628030207 a64.93637404094783,64.93637404094783 0 0,0 1.1097949045471565,0.10509873131002748 l -4.517581789490292 43.70350579348686" fill="#31ff3d" stroke="none" /><path d="M 102.15924093988457 79.11130261209362 l 6.477722819653705 -62.666092163719114 a84.0,84.0 0 0,0 1.4330563935968135,0.16057695797211657 l -7.552515114851315 62.54565944524002" fill="#4dd2ff" stroke="none" /><path d="M 102.87502721639298 79.19773525538626 l 6.515778934450615 -47.144930538039084 a68.59306515196474,68.59306515196474 0 0,0 1.1650202032915433,0.17121785020980107 l -7.32412424334984 47.0261316145304" fill="#36ff70" stroke="none" /><path d="M 103.23170211078529 79.25015418208739 l 7.930358267147696 -50.91858893025791 a72.53244881522613,72.53244881522613 0 0,0 1.2286392286775045,0.20217211752682399 l -8.80327499887827 50.77495081423542" fill="#3cffa4" stroke="none" /><path d="M 103.58742460773223 79.30868818359171 l 10.107036650313441 -58.29470155853708 a80.16438472298756,80.16438472298756 0 0,0 1.353882041309249,0.24672240811024745 l -11.106253425173744 58.11261097649546" fill="#47fdff" stroke="none" /><path d="M 104.29559338865022 79.4440306129975 l 2.263694502467021 -10.83259766093914 a32.066593192319104,32.066593192319104 0 0,0 0.5378599663485623,0.11722407628540753 l -2.449316885434717 10.792142126520012" fill="#ff0000" stroke="none" /><path d="M 104.9986988182912 79.60360301121754 l 7.274973380846407 -29.684373984606843 a51.56284176168877,51.56284176168877 0 0,0 0.8578944751328874,0.21807342080853173 l -7.7834731492046885 29.555115331963044" fill="#cdff1d" stroke="none" /><path d="M 105.3480935250658 79.69241777938227 l 9.757711395557788 -37.05161952041783 a59.31495061676063,59.31495061676063 0 0,0 0.9824210965309316,0.2677632384920726 l -10.392313893023413 36.87865578778162" fill="#67ff28" stroke="none" /><path d="M 106.04205211174951 79.88797359093562 l 14.098792376253241 -46.93029443683762 a70.00233139756688,70.00233139756688 0 0,0 1.147902787503645,0.3556232178563022 l -14.902335796628517 46.68135463117467" fill="#38ff83" stroke="none" /><path d="M 106.38641147887787 79.99465700312896 l 17.995899486282553 -56.37189882784596 a80.17468526132848,80.17468526132848 0 0,0 1.3075241294406512,0.4298091520763468 l -18.96094635337095 56.05466875436759" fill="#47fdff" stroke="none" /><path d="M 106.72888874123014 80.10723608172694 l 7.694274039844157 -22.746754015899416 a45.01284388114111,45.01284388114111 0 0,0 0.729838739303203,0.2538757992298898 l -8.083618551192378 22.611319784100935" fill="#ffd213" stroke="none" /><path d="M 107.06938296918511 80.22567764915836 l 19.368038226439342 -54.175849980466104 a78.53384765376626,78.53384765376626 0 0,0 1.2655574289703224,0.4647302177148529 l -20.29518480706379 53.835388913742534" fill="#45ffee" stroke="none" /><path d="M 109.71004243097381 81.37971332152246 l 17.7020687919682 -33.94605101385961 a59.284430503157985,59.284430503157985 0 0,0 0.8983318493252055,0.47831111102303214 l -18.282189457079962 33.637169435114004" fill="#68ff28" stroke="none" /><path d="M 110.34350942703115 81.72400993836675 l 17.54532592127905 -31.000909742241067 a56.62155059132721,56.62155059132721 0 0,0 0.8417940274302821,0.48601000833909264 l -18.07491241656973 30.6951528366258" fill="#89ff24" stroke="none" /><line stroke="#e1ed5e" stroke-width="0.3" x1="143.13028292997686" x2="145.6673583964461" y1="26.7553504044142" y2="22.446841604673864" /><path d="M 143.63769802327073 25.89364864446614 a86.0,86.0 0 0,1 29.32050498858742,28.57503671076993" fill="none" id="id50" stroke="none" /><text fill="#e1ed5e" style="font-size:6.75px; font-family:Arial;" text-anchor="middle"><textPath startOffset="20.669276256404974" xlink:href="#id50">February</textPath></text><path d="M 110.65571695917076 81.90426304109057 l 20.213386021781627 -34.32674853326081 a60.835996778432445,60.835996778432445 0 0,0 0.8953530393519489,0.5376337745485177 l -20.79967181769101 33.974700758176375" fill="#55ff2b" stroke="none" /><path d="M 111.27062007382361 82.28071324371311 l 20.524380850205933 -32.26773570557092 a59.24208384553432,59.24208384553432 0 0,0 0.8534086446813892,0.5531691728917422 l -21.07527512714433 31.910652690975287" fill="#68ff28" stroke="none" /><path d="M 111.5731344415666 82.4767994020092 l 21.445097943643034 -32.4706115709089 a59.91314484337247,59.91314484337247 0 0,0 0.8533449530683205,0.5741685679996076 l -21.999339184808356 32.09769332885217" fill="#60ff29" stroke="none" /><path d="M 112.16784306229584 82.88440491214696 l 31.59710401365465 -44.44528380894895 a75.53219448094612,75.53219448094612 0 0,0 1.0503254817410879,0.7603546499890911 l -32.355410505769704 43.896328387586784" fill="#40ffca" stroke="none" /><path d="M 113.31354834802062 83.75963576809568 l 23.107173717698526 -28.18699476170105 a57.44788266711881,57.44788266711881 0 0,0 0.75728801763403,0.6317565981919783 l -23.587636069494447 27.7861759795972" fill="#7fff26" stroke="none" /><path d="M 114.13192950727249 84.46653392183569 l 15.981248537242505 -17.56619164511254 a44.748081895638165,44.748081895638165 0 0,0 0.5637623933519246,0.5218100548027116 l -16.280440701908397 17.28926384417745" fill="#ffce13" stroke="none" /><line stroke="#e1ed5e" stroke-width="0.3" x1="172.87174338648825" x2="177.1583165268699" y1="56.24261187166439" y2="53.66864786411523" /><path d="M 173.72905801456457 55.72781907015455 a86.0,86.0 0 0,1 12.242430191666344,42.057860355516425" fill="none" id="id51" stroke="none" /><text fill="#e1ed5e" style="font-size:6.75px; font-family:Arial;" text-anchor="middle"><textPath startOffset="22.145653131862474" xlink:href="#id51">March</textPath></text><path d="M 120.05942366710727 93.78553927170692 l 18.23382989773423 -5.648887111928986 a40.08880505277436,40.08880505277436 0 0,0 0.19800754222528263,0.659102709605009 l -18.328113759963138 5.335046798733253" fill="#ff860c" stroke="none" /><path d="M 120.26092885502905 94.47779374421319 l 18.451227209657763 -5.028964024955105 a40.124284684837434,40.124284684837434 0 0,0 0.17542054329779688,0.6661003756776319 l -18.53483723376029 4.711483144904674" fill="#ff870c" stroke="none" /><path d="M 120.592083275326 95.88100663000786 l 28.096845623208182 -5.620156022696296 a49.6534271544233,49.6534271544233 0 0,0 0.16001102459226932,0.8372452948898313 l -28.18918294008261 5.13700816277315" fill="#e8ff1a" stroke="none" /><path d="M 120.7213421655516 96.59031103205396 l 38.32263144806404 -6.305974421307358 a59.837989063625955,59.837989063625955 0 0,0 0.15808201650937018,1.014999946377178 l -38.42523495671167 5.647186292998739" fill="#61ff29" stroke="none" /><path d="M 120.77682067341334 96.94652285012252 l 37.7945210522819 -5.554493068873706 a59.20050019075072,59.20050019075072 0 0,0 0.13913663367084447,1.006723370405721 l -37.88430220250795 4.904881390267899" fill="#69ff28" stroke="none" /><path d="M 120.86939407059847 97.66154086499901 l 38.974813273553345 -4.367209120982628 a60.218727480818956,60.218727480818956 0 0,0 0.10629353121488129,1.0282934927856304 l -39.044039197249894 3.697511105914067" fill="#5cff2a" stroke="none" /><path d="M 120.9064616781168 98.02013634271609 l 39.312559306124854 -3.72294023940383 a60.48844898478232,60.48844898478232 0 0,0 0.08902280127391143,1.0345798929630865 l -39.37067573009651 3.0475392990650816" fill="#59ff2a" stroke="none" /><path d="M 120.96210409425399 98.7389718711861 l 28.600958501104166 -1.7205626409811636 a49.65266415158323,49.65266415158323 0 0,0 0.04387973932857135,0.8512552204077146 l -28.62627982988931 1.2293356271967184" fill="#e8ff1a" stroke="none" /><path d="M 120.98066250479742 99.09900007780936 l 57.25903921183385 -2.4589495142384847 a78.31181382730702,78.31181382730702 0 0,0 0.046149200378927654,1.3435836158380785 l -57.292813099209624 1.4756596338362862" fill="#45ffec" stroke="none" /><path d="M 120.99303781780057 99.45929381324524 l 19.085146118365852 -0.4915656643351013 a40.09147556271459,40.09147556271459 0 0,0 0.011814706610965172,0.6881474290443469 l -19.090772256575484 0.163871319321688" fill="#ff860c" stroke="none" /><line stroke="#e1ed5e" stroke-width="0.3" x1="184.99686870605535" x2="189.99668451229388" y1="99.2704041080226" y2="99.22748670261217" /><path d="M 185.99683186730306 99.26182062694052 a86.0,86.0 0 0,1 -10.086455211305974,41.156179273409016" fill="none" id="id52" stroke="none" /><text fill="#e1ed5e" style="font-size:6.75px; font-family:Arial;" text-anchor="middle"><textPath startOffset="21.40746469413373" xlink:href="#id52">April</textPath></text><path d="M 120.99922638620191 100.18025310272382 l 22.928535158502815 0.19681389815141526 a43.92937984824721,43.92937984824721 0 0,0 -0.012945712953283695,0.7540228783746118 l -22.92177801395086 -0.5903836924950981" fill="#ffc212" stroke="none" /><path d="M 120.99303781780057 100.54070618675476 l 27.59400240289837 0.7107236192334881 a48.60315374507227,48.60315374507227 0 0,0 -0.028641868596937882,0.8338767531798533 l -27.577735847304584 -1.1843066369774522" fill="#f7ff19" stroke="none" /><path d="M 120.96210409425399 101.26102812881392 l 38.09653003728727 2.2917926450137256 a59.16540206010767,59.16540206010767 0 0,0 -0.06969131824015726,1.0132964720699942 l -38.05157475788205 -2.9454325412380635" fill="#69ff28" stroke="none" /><path d="M 120.82617615685814 102.69636545807757 l 18.95274472229091 2.4538122514688636 a40.11093213513628,40.11093213513628 0 0,0 -0.09427116414051455,0.6820991825928615 l -18.907829041595182 -2.7787997422618105" fill="#ff860c" stroke="none" /><path d="M 120.77682067341334 103.0534771498775 l 19.8446524472174 2.916480521602526 a41.057818659658345,41.057818659658345 0 0,0 -0.10846792929978294,0.6964419157469387 l -19.79166302577935 -3.2567106192809154" fill="#ff950d" stroke="none" /><path d="M 120.65975698304385 103.76489593502545 l 37.554550774024605 6.843690158934335 a59.17303208850833,59.17303208850833 0 0,0 -0.1906884989683869,0.9977628038924843 l -37.43153598277406 -7.487355527860133" fill="#69ff28" stroke="none" /><path d="M 120.592083275326 104.11899336999214 l 37.42629871010007 7.486307926646961 a59.16769106862787,59.16769106862787 0 0,0 -0.20776957069702015,0.9942526092164765 l -37.29227142857869 -8.127676987148847" fill="#69ff28" stroke="none" /><path d="M 120.51834098615036 104.47187691870673 l 55.926106351660565 12.188834580531601 a78.23894705608072,78.23894705608072 0 0,0 -0.29726753229715314,1.3098155968419527 l -55.708627957805746 -13.14708451131257" fill="#44ffeb" stroke="none" /><path d="M 120.35273937422433 105.17358676015961 l 37.15175737094764 9.443831442877805 a59.33326268492221,59.33326268492221 0 0,0 -0.2594008406024777,0.9849872433873121 l -36.98416704954043 -10.080199190637922" fill="#67ff28" stroke="none" /><path d="M 120.26092885502905 105.52220625578681 l 36.98195860007489 10.079597267915549 a59.33097367640201,59.33097367640201 0 0,0 -0.2762605748934288,0.9803513206109851 l -36.80347953310688 -10.712956512429542" fill="#67ff28" stroke="none" /><path d="M 120.05942366710727 106.21446072829308 l 29.18593485709358 9.04187722428636 a51.55444873044805,51.55444873044805 0 0,0 -0.2691517447385531,0.8431140069050381 l -29.026418396577775 -9.541560264882783" fill="#cdff1d" stroke="none" /><path d="M 119.71291397450082 107.23885506374661 l 17.94714722622021 6.590441055359996 a40.11894366495697,40.11894366495697 0 0,0 -0.24294755390283607,0.6444472506330281 l -17.831368988502934 -6.897556586187183" fill="#ff870c" stroke="none" /><path d="M 119.4528033332814 107.91128576633889 l 35.382151592885904 14.38961302818173 a59.196303675130345,59.196303675130345 0 0,0 -0.39090463898621136,0.9380288297297709 l -35.12992110936321 -14.994874367352779" fill="#69ff28" stroke="none" /><path d="M 118.5362547648365 109.86951160357373 l 16.85063047831349 8.972011614165735 a40.090331058454495,40.090331058454495 0 0,0 -0.3286541393892168,0.604686599388974 l -16.694130989308935 -9.259953047029313" fill="#ff860c" stroke="none" /><line stroke="#e1ed5e" stroke-width="0.3" x1="174.33088141563837" x2="178.70328620479359" y1="141.23008692659167" y2="143.65538615756765" /><path d="M 175.20536237346943 141.71514677278685 a86.0,86.0 0 0,1 -30.301960400862466,31.631185727798858" fill="none" id="id53" stroke="none" /><text fill="#e1ed5e" style="font-size:6.75px; font-family:Arial;" text-anchor="middle"><textPath startOffset="22.145653131862474" xlink:href="#id53">May</textPath></text><path d="M 118.36410011445183 110.18625677009912 l 33.811286720713056 18.75455078757647 a59.664405917510905,59.664405917510905 0 0,0 -0.5044956088938559,0.8913954010798517 l -33.48435774679782 -19.332202958755445" fill="#63ff29" stroke="none" /><path d="M 118.18653347947321 110.5 l 33.0918545202596 19.10559111525581 a59.21118223051163,59.21118223051163 0 0,0 -0.5157753278218027,0.8758992658983896 l -32.75900548230804 -19.670841549447747" fill="#69ff28" stroke="none" /><path d="M 117.62189284568427 111.42229804090321 l 32.05772287871241 20.779428659561585 a59.20317070069094,59.20317070069094 0 0,0 -0.5601058646015127,0.8480716672807231 l -31.696292575190174 -21.32668020518137" fill="#69ff28" stroke="none" /><path d="M 117.21940702142032 112.02048342749411 l 15.703896495921356 10.962539380217008 a40.15175278707982,40.15175278707982 0 0,0 -0.3993854726085022,0.5617856836368664 l -15.513395924782893 -11.23050229056338" fill="#ff870c" stroke="none" /><path d="M 116.57777611688842 112.89097897827486 l 30.15706252622891 23.450314223757587 a59.201644695010806,59.201644695010806 0 0,0 -0.6307331085478488,0.7969106782251748 l -29.7500629870395 -23.964544845897446" fill="#69ff28" stroke="none" /><path d="M 116.1254893667686 113.45245675266167 l 29.308809536926276 24.450451319636944 a59.16845407146793,59.16845407146793 0 0,0 -0.6573486668453844,0.7743550766641504 l -28.884766306573777 -24.94997317875065" fill="#69ff28" stroke="none" /><path d="M 114.39649973595853 115.28858382429668 l 13.088115376079966 13.899124974765412 a40.09147556271459,40.09147556271459 0 0,0 -0.5050957551422807,0.4675090903179131 l -12.847589849623718 -14.121751811215706" fill="#ff860c" stroke="none" /><path d="M 113.86319453409587 115.77377054828091 l 25.23501509271463 28.712814847681603 a59.22606078589292,59.22606078589292 0 0,0 -0.7694326054859069,0.6646175588189029 l -24.73840300746587 -29.141776538965225" fill="#68ff28" stroke="none" /><path d="M 113.59037401385872 116.0094264158162 l 24.696678138871757 29.09262474867705 a59.16158704590734,59.16158704590734 0 0,0 -0.7798783679058241,0.6506022718423634 l -24.19362543680404 -29.512289204431283" fill="#69ff28" stroke="none" /><path d="M 113.03279911837588 116.46651593811092 l 23.70901320932177 29.955563677623147 a59.2027891992709,59.2027891992709 0 0,0 -0.8023107169509178,0.6238816662340245 l -23.191292547735625 -30.358146395477966" fill="#69ff28" stroke="none" /><line stroke="#e1ed5e" stroke-width="0.3" x1="143.1302829299769" x2="145.66735839644613" y1="173.24464959558577" y2="177.55315839532614" /><path d="M 143.63769802327073 174.10635135553383 a86.0,86.0 0 0,1 -40.68552437913181,11.842963189579606" fill="none" id="id54" stroke="none" /><text fill="#e1ed5e" style="font-size:6.75px; font-family:Arial;" text-anchor="middle"><textPath startOffset="21.407464694133747" xlink:href="#id54">June</textPath></text><path d="M 110.02825361518725 118.45085714620011 l 7.4114719337225665 13.636273586568354 a36.52024076978508,36.52024076978508 0 0,0 -0.5533880506244521,0.29464796725161296 l -7.17629506731156 -13.761492021542535" fill="#ff4c07" stroke="none" /><path d="M 108.4095320186766 119.2426549942271 l 7.871666627024438 18.011913718504356 a40.656860667203595,40.656860667203595 0 0,0 -0.6419232833775055,0.2739988785559424 l -7.561308268476501 -18.144387246719702" fill="#ff8f0d" stroke="none" /><path d="M 108.07796709384702 119.3841803445677 l 14.684420195571711 35.237262793901216 a59.174558094188455,59.174558094188455 0 0,0 -0.9410037945991105,0.3826980512133256 l -14.07736193978216 -35.48414810169383" fill="#69ff28" stroke="none" /><path d="M 107.407793817531 119.65005319985036 l 6.732539208719558 17.85886012490442 a40.085753041414094,40.085753041414094 0 0,0 -0.6459739853965762,0.23721059510964637 l -6.424976071668855 -17.971801569022787" fill="#ff860c" stroke="none" /><path d="M 107.06938296918513 119.77432235084164 l 7.710921650257254 21.568820220790315 a43.90572676020517,43.90572676020517 0 0,0 -0.711887930286585,0.24763157603304206 l -7.339527947925647 -21.698010229391947" fill="#ffc212" stroke="none" /><path d="M 105.3480935250658 120.30758222061773 l 4.869042800983537 18.48854859273677 a40.11894366495697,40.11894366495697 0 0,0 -0.6674926932344973,0.16967403241033413 l -4.550944814523642 -18.569407856982373" fill="#ff870c" stroke="none" /><path d="M 104.9986988182912 120.39639698878246 l 9.085634633101964 37.072489783476875 a59.16959857572803,59.16959857572803 0 0,0 -0.9886052198257909,0.23330814004643358 l -8.447897259536294 -37.22299406716954" fill="#69ff28" stroke="none" /><path d="M 103.58742460773223 120.69131181640829 l 6.519329631492852 37.60176087001889 a59.16273155016743,59.16273155016743 0 0,0 -1.0021673615822067,0.16490625797893957 l -5.872884766857573 -37.7081331264935" fill="#69ff28" stroke="none" /><path d="M 103.2317021107853 120.74984581791261 l 4.1123050742708775 26.40394854543238 a47.722266966215926,47.722266966215926 0 0,0 -0.8105397395398526,0.11912142924348751 l -3.65844022912334 -26.47065104797475" fill="#fffa17" stroke="none" /><path d="M 101.08105385017728 120.97215588758144 l 0.9844158045768583 19.09740361999466 a40.1227586791573,40.1227586791573 0 0,0 -0.6881516233267593,0.029552191639845904 l -0.6564384206492694 -19.111488380060337" fill="#ff870c" stroke="none" /><path d="M 100.72087961077811 120.9876233191556 l 0.9172982091961581 26.706136500607407 a47.72188546479589,47.72188546479589 0 0,0 -0.8189681975692062,0.02109371568919094 l -0.4587166975562081 -26.717947933646645" fill="#fffa17" stroke="none" /><line stroke="#e1ed5e" stroke-width="0.3" x1="101.45913802915013" x2="101.54496967792366" y1="184.9874750549273" y2="189.98673829345242" /><path d="M 101.47630435890484 185.9873277026323 a86.0,86.0 0 0,1 -42.54439059252881,-10.42667462771756" fill="none" id="id55" stroke="none" /><text fill="#e1ed5e" style="font-size:6.75px; font-family:Arial;" text-anchor="middle"><textPath startOffset="22.145653131862474" xlink:href="#id55">July</textPath></text><path d="M 99.63950707515114 120.99690560180557 l -0.4590179505983978 26.735494413073127 a47.73943453011742,47.73943453011742 0 0,0 -0.819269361830748,-0.02110147261225978 l 0.9179006264998898 -26.723675223110817" fill="#fffb17" stroke="none" /><path d="M 98.91894614982273 120.97215588758144 l -0.9819216238849502 19.04901718089763 a40.07430799881311,40.07430799881311 0 0,0 -0.68671266989318,-0.04131092896278282 l 1.3087786459105766 -19.02935427411015" fill="#ff860c" stroke="none" /><path d="M 98.55909050195518 120.95050786540614 l -1.3619695377160541 19.802738167165703 a40.84951888432029,40.84951888432029 0 0,0 -0.6991706493113913,-0.05412023012092929 l 1.7017091818026815 -19.77644017004972" fill="#ff920d" stroke="none" /><path d="M 98.19965949673042 120.92268563240118 l -2.2908151933850363 26.622745000780753 a47.72112246195583,47.72112246195583 0 0,0 -0.8155776993977668,-0.07723605608590593 l 2.747492456167818 -26.579497189189667" fill="#fffa17" stroke="none" /><path d="M 97.12497278360702 120.80226474461374 l -3.6654912596170286 26.52166879216031 a47.7737696579204,47.7737696579204 0 0,0 -0.8114144879743592,-0.11924998713974308 l 4.120230853199073 -26.454837731721685" fill="#fffb17" stroke="none" /><path d="M 96.76829788921471 120.74984581791261 l -3.527147751474691 22.646818769540822 a43.91984231274638,43.91984231274638 0 0,0 -0.7439655225240884,-0.12241924361925262 l 3.915390777051843 -22.5829335274259" fill="#ffc212" stroke="none" /><path d="M 96.41257539226777 120.69131181640829 l -3.2636728808083197 18.823997889184636 a40.10482811241575,40.10482811241575 0 0,0 -0.6773233118275708,-0.12343087024162476 l 3.586330926186948 -18.765198845011643" fill="#ff860c" stroke="none" /><path d="M 96.05791012581884 120.62667999033965 l -7.166359741237178 37.4974223815373 a59.17608409986859,59.17608409986859 0 0,0 -0.9961406524675779,-0.1992560290395694 l 7.808996879235714 -37.36887695583487" fill="#69ff28" stroke="none" /><path d="M 95.70440661134978 120.55596938700252 l -7.8087627685246215 37.36775665133326 a59.17493959560849,59.17493959560849 0 0,0 -0.9925541771364624,-0.21632256322762541 l 8.44907936228022 -37.22820262997191" fill="#69ff28" stroke="none" /><line stroke="#e1ed5e" stroke-width="0.3" x1="58.13341422392154" x2="55.67067388415222" y1="173.97424548756322" y2="178.32567169271397" /><path d="M 57.64086615596768 174.84453072859336 a86.0,86.0 0 0,1 -31.369924170532247,-30.572349798747897" fill="none" id="id56" stroke="none" /><text fill="#e1ed5e" style="font-size:6.75px; font-family:Arial;" text-anchor="middle"><textPath startOffset="22.145653131862474" xlink:href="#id56">August</textPath></text><path d="M 89.03521579738668 117.91015095944536 l -9.977643545218235 16.29773088209095 a40.10940612945615,40.10940612945615 0 0,0 -0.5841378651109268,-0.36454523047892334 l 10.255945539118875 -16.124049854770476" fill="#ff860c" stroke="none" /><path d="M 88.4268655584334 117.5232005979908 l -10.529753336387 15.943388620645397 a40.106735619515916,40.106735619515916 0 0,0 -0.5712415950528215,-0.384356838853926 l 10.801891219536826 -15.76028210773435" fill="#ff860c" stroke="none" /><path d="M 88.1277618465304 117.32195027204791 l -15.109232424044741 22.044821651562845 a47.725700478996224,47.725700478996224 0 0,0 -0.6718072066077075,-0.46897360538916705 l 15.485434721826213 -21.78220323036855" fill="#fffb17" stroke="none" /><path d="M 87.2517909369889 116.68781488649013 l -27.829875287940123 36.430200102911996 a66.84388114111314,66.84388114111314 0 0,0 -0.9058620873688384,-0.7044038381958588 l 28.45114731994419 -35.947095213095345" fill="#34ff58" stroke="none" /><path d="M 86.40962598614128 116.0094264158162 l -17.340756630628775 20.427367708168365 a47.79513373744224,47.79513373744224 0 0,0 -0.6209282500501215,-0.5363430335648367 l 17.68886436044176 -20.126680542138807" fill="#fffc17" stroke="none" /><path d="M 86.13680546590413 115.77377054828092 l -20.16554714591622 22.94469091362057 a51.54681870204739,51.54681870204739 0 0,0 -0.659639663868346,-0.5898538549710884 l 20.556451836607938 -22.5951415287661" fill="#cdff1d" stroke="none" /><path d="M 85.60350026404147 115.28858382429668 l -15.705058454093992 16.67822783625459 a43.90877877156542,43.90877877156542 0 0,0 -0.5443172964900704,-0.521443657082103 l 15.989048236449378 -16.406172048866903" fill="#ffc212" stroke="none" /><path d="M 84.83555147118756 114.52719865689866 l -27.568134899112746 26.409649616909274 a59.176847102708656,59.176847102708656 0 0,0 -0.6964386923483887,-0.7395937569364305 l 28.01742942519739 -25.932514400028353" fill="#69ff28" stroke="none" /><path d="M 84.58840730492382 114.26474011684316 l -42.01074533077715 38.88451869415664 a78.24428807596118,78.24428807596118 0 0,0 -0.9039163896770699,-0.99356245509998 l 42.6720594212961 -38.15761866349899" fill="#44ffeb" stroke="none" /><path d="M 83.64595745247003 113.17365903436017 l -44.59226498078326 35.92037214770501 a78.26031113560256,78.26031113560256 0 0,0 -0.8337837499747762,-1.0534585305269848 l 45.202315161399596 -35.14959367326335" fill="#44ffeb" stroke="none" /><path d="M 82.78059297857968 112.02048342749411 l -31.29017252447221 21.84297053934356 a59.160061040227205,59.160061040227205 0 0,0 -0.5741632195538163,-0.8377212964047198 l 31.66052548084135 -21.30261450786879" fill="#69ff28" stroke="none" /><path d="M 82.576782715395 111.72311816256416 l -32.50754091869483 21.872524295554562 a60.18095884023569,60.18095884023569 0 0,0 -0.5693564649463085,-0.8620782552376981 l 32.87822182256186 -21.311266161977805" fill="#5dff2a" stroke="none" /><path d="M 82.18462484594161 111.11811171558189 l -32.48414447708906 20.27250867064145 a59.29091602729854,59.29091602729854 0 0,0 -0.5314499911010513,-0.8680836204461873 l 32.827362432645515 -19.711887934070706" fill="#68ff28" stroke="none" /><line stroke="#e1ed5e" stroke-width="0.3" x1="26.387840678322732" x2="22.057713659400548" y1="142.50000000000003" y2="145.00000000000006" /><path d="M 25.521815274538298 143.00000000000003 a86.0,86.0 0 0,1 -11.493303480769221,-40.785679425670985" fill="none" id="id57" stroke="none" /><text fill="#e1ed5e" style="font-size:6.75px; font-family:Arial;" text-anchor="middle"><textPath startOffset="21.40746469413373" xlink:href="#id57">September</textPath></text><path d="M 81.81346652052679 110.50000000000001 l -33.084255552069045 19.101203848925458 a59.20240769785088,59.20240769785088 0 0,0 -0.5005891579780871,-0.8844930766205887 l 33.40727807506851 -18.530454002205747" fill="#69ff28" stroke="none" /><path d="M 81.4637452351635 109.86951160357371 l -17.028094152615473 9.06650102505033 a40.29138230681192,40.29138230681192 0 0,0 -0.3198213485900496,-0.6132996059469139 l 17.18122357018047 -8.772855175998915" fill="#ff890c" stroke="none" /><path d="M 81.1358732173502 109.22738970284198 l -14.299482625932036 6.99459350855564 a36.91852825229961,36.91852825229961 0 0,0 -0.2735851791262295,-0.5716878014192407 l 14.417447063018177 -6.748093205071295" fill="#ff5307" stroke="none" /><line stroke="#e1ed5e" stroke-width="0.3" x1="15.003131293944662" x2="10.003315487706104" y1="100.72959589197737" y2="100.7725132973878" /><path d="M 14.003168132696942 100.73817937305945 a86.0,86.0 0 0,1 10.791469493833604,-42.45332614584628" fill="none" id="id58" stroke="none" /><text fill="#e1ed5e" style="font-size:6.75px; font-family:Arial;" text-anchor="middle"><textPath startOffset="22.145653131862435" xlink:href="#id58">October</textPath></text><line stroke="#e1ed5e" stroke-width="0.3" x1="26.387840678322718" x2="22.05771365940052" y1="57.49999999999999" y2="54.99999999999999" /><path d="M 25.521815274538284 56.99999999999999 a86.0,86.0 0 0,1 29.574782752854787,-30.34633250058573" fill="none" id="id59" stroke="none" /><text fill="#e1ed5e" style="font-size:6.75px; font-family:Arial;" text-anchor="middle"><textPath startOffset="21.40746469413373" xlink:href="#id59">November</textPath></text><line stroke="#e1ed5e" stroke-width="0.3" x1="56.869717070023135" x2="54.33264160355391" y1="26.7553504044142" y2="22.446841604673864" /><path d="M 56.362301976729285 25.89364864446614 a86.0,86.0 0 0,1 42.16139366436587,-11.88097634709845" fill="none" id="id60" stroke="none" /><text fill="#e1ed5e" style="font-size:6.75px; font-family:Arial;" text-anchor="middle"><textPath startOffset="22.145653131862474" xlink:href="#id60">December</textPath></text></svg>