<?xml version="1.0" encoding="utf-8" ?>
<svg baseProfile="full" height="200mm" version="1.1" viewBox="0,0,200,200" width="200mm" xmlns="http://www.w3.org/2000/svg" xmlns:ev="http://www.w3.org/2001/xml-events" xmlns:xlink="http://www.w3.org/1999/xlink"><defs /><rect fill="#1a1a1a" height="200" width="200" x="0" y="0" /><text alignment-baseline="middle" fill="#e1ed5e" style="dominant-baseline: central; font-size:9.0px; font-family:Arial;" text-anchor="middle" x="100.0" y="100.0">2023</text><line stroke="#e1ed5e" stroke-width="0.3" x1="100.0" x2="100.0" y1="15.0" y2="10.0" /><path d="M 100.0 14.0 a86.0,86.0 0 0,1 42.46469731375804,11.215312516191453" fill="none" id="id37" stroke="none" /><text fill="#e1ed5e" style="font-size:6.75px; font-family:Arial;" text-anchor="middle"><textPath startOffset="22.20632615414155" xlink:href="#id37">January</textPath></text><path d="M 100.0 79.0 l 0.0 -48.56571441732629 a69.56571441732629,69.56571441732629 0 0,0 1.1974594185005212,0.010306911266464547 l -0.8359789392279928 48.55851888266839" fill="#48ff2c" stroke="none" /><path d="M 100.72285384407766 79.0124445844662 l 1.669529161637668 -48.47361065421097 a69.50235311278819,69.50235311278819 0 0,0 1.195305333199873,0.05147236203914595 l -2.5036753272268726 48.43769056564763" fill="#49ff2c" stroke="none" /><path d="M 101.08401301168833 79.027996857942 l 2.5065715102558053 -48.49372195911601 a69.55845930611963,69.55845930611963 0 0,0 1.1952062829473065,0.07209810695416127 l -3.3409398420427237 48.44339058278155" fill="#48ff2c" stroke="none" /><path d="M 101.80526077348638 79.07773832637324 l 4.16882976051372 -48.315095748647025 a69.4946143275011,69.4946143275011 0 0,0 1.1909221666200929,0.11309240970333545 l -4.999877054224057 48.236177794428514" fill="#49ff2c" stroke="none" /><path d="M 102.16513564639614 79.11191278185805 l 5.002869111346359 -48.265043584078384 a69.5236347723277,69.5236347723277 0 0,0 1.1892954525356747,0.13363120137348522 l -5.832931267391759 48.1717764292343" fill="#48ff2c" stroke="none" /><path d="M 103.2404852339499 79.25152402106235 l 7.4748622408056065 -47.86073333226636 a69.44092650457188,69.44092650457188 0 0,0 1.1794071610875083,0.19461228712994866 l -8.29759860803199 47.72497478219679" fill="#4aff2c" stroke="none" /><path d="M 104.66035177308747 79.52364482259891 l 8.64068354049907 -37.964882001507554 a59.9357634756973,59.9357634756973 0 0,0 1.0039991378365258,0.23761415801475327 l -9.29290636529812 37.810521931351936" fill="#fff316" stroke="none" /><path d="M 105.01212808612495 79.60689891045804 l 13.889720420778506 -56.51381364944428 a79.19566535895527,79.19566535895527 0 0,0 1.3210256014246335,0.336758839665128 l -14.860454910888164 56.266351813610285" fill="#42ffd8" stroke="none" /><path d="M 105.71112130821622 79.79150937346287 l 13.180087459681312 -46.637019161671354 a69.46365918635271,69.46365918635271 0 0,0 1.1478366309709673,0.3350849883332944 l -13.980914308375706 46.403235844419356" fill="#4aff2c" stroke="none" /><path d="M 108.09893153111575 80.62456947434976 l 11.201823442989326 -26.79861547740969 a50.04559587878974,50.04559587878974 0 0,0 0.7919506838849473,0.3390719526198864 l -11.661457884664589 26.601823996827015" fill="#ff0000" stroke="none" /><path d="M 108.43124777332544 80.76684994638697 l 19.50981400713518 -44.5052962984283 a69.59376751399199,69.59376751399199 0 0,0 1.0930128080657262,0.4904029864204714 l -20.273008933667686 44.16287298149129" fill="#47ff2c" stroke="none" /><path d="M 109.08828744355905 81.06846463323043 l 23.393864356878385 -48.73104786661728 a75.05541523035939,75.05541523035939 0 0,0 1.1598875623197367,0.5691517894939178 l -24.229223186208554 48.32114091698853" fill="#39ff87" stroke="none" /><path d="M 109.41281617654863 81.2277094730956 l 28.23844852964587 -56.31687158071319 a84.0,84.0 0 0,0 1.2869580496449777,0.6592298987499978 l -29.203667066879603 55.82244915665069" fill="#4dd2ff" stroke="none" /><line stroke="#e1ed5e" stroke-width="0.3" x1="143.23703022742887" x2="145.7803849466894" y1="26.81831364943548" y2="22.513508569990506" /><path d="M 143.74570117128098 25.957352633546492 a86.0,86.0 0 0,1 28.547481713284135,27.462654790039103" fill="none" id="id38" stroke="none" /><text fill="#e1ed5e" style="font-size:6.75px; font-family:Arial;" text-anchor="middle"><textPath startOffset="19.985693538727396" xlink:href="#id38">February</textPath></text><line stroke="#e1ed5e" stroke-width="0.3" x1="172.23445277983987" x2="176.4835382374775" y1="55.19839476539836" y2="52.563006222186495" /><path d="M 173.08426987136738 54.67131705675599 a86.0,86.0 0 0,1 12.851231095245387,41.99856678651699" fill="none" id="id39" stroke="none" /><text fill="#e1ed5e" style="font-size:6.75px; font-family:Arial;" text-anchor="middle"><textPath startOffset="22.20632615414155" xlink:href="#id39">March</textPath></text><line stroke="#e1ed5e" stroke-width="0.3" x1="184.98032266829074" x2="189.97916517819016" y1="98.17113171792111" y2="98.06355123074" /><path d="M 185.9800911702706 98.14961562048488 a86.0,86.0 0 0,1 -9.607161424134198,41.387399972396054" fill="none" id="id40" stroke="none" /><text fill="#e1ed5e" style="font-size:6.75px; font-family:Arial;" text-anchor="middle"><textPath startOffset="21.466115282336823" xlink:href="#id40">April</textPath></text><line stroke="#e1ed5e" stroke-width="0.3" x1="174.80103733775053" x2="179.2010983576182" y1="140.37084112569926" y2="142.7455964860345" /><path d="M 175.68104954172406 140.8457921977663 a86.0,86.0 0 0,1 -30.038265399797805,32.042727171017184" fill="none" id="id41" stroke="none" /><text fill="#e1ed5e" style="font-size:6.75px; font-family:Arial;" text-anchor="middle"><textPath startOffset="22.206326154141568" xlink:href="#id41">May</textPath></text><line stroke="#e1ed5e" stroke-width="0.3" x1="143.8653032363475" x2="146.44561519142675" y1="172.8068346515853" y2="177.08958963109032" /><path d="M 144.38136562736335 173.6633856474863 a86.0,86.0 0 0,1 -40.68145358897372,12.25698825130547" fill="none" id="id42" stroke="none" /><text fill="#e1ed5e" style="font-size:6.75px; font-family:Arial;" text-anchor="middle"><textPath startOffset="21.466115282336833" xlink:href="#id42">June</textPath></text><line stroke="#e1ed5e" stroke-width="0.3" x1="102.19456741930631" x2="102.32365962044197" y1="184.97166512339345" y2="189.96999836594603" /><path d="M 102.22038585953345 185.97133177190398 a86.0,86.0 0 0,1 -42.740103519485714,-10.115201625700543" fill="none" id="id43" stroke="none" /><text fill="#e1ed5e" style="font-size:6.75px; font-family:Arial;" text-anchor="middle"><textPath startOffset="22.20632615414155" xlink:href="#id43">July</textPath></text><line stroke="#e1ed5e" stroke-width="0.3" x1="58.666819895761336" x2="56.23545636021788" y1="174.27360380694188" y2="178.64263932499728" /><path d="M 58.180547188652646 175.14741091055294 a86.0,86.0 0 0,1 -31.652253787137756,-30.449443065178592" fill="none" id="id44" stroke="none" /><text fill="#e1ed5e" style="font-size:6.75px; font-family:Arial;" text-anchor="middle"><textPath startOffset="22.20632615414155" xlink:href="#id44">August</textPath></text><line stroke="#e1ed5e" stroke-width="0.3" x1="26.63291911575756" x2="22.317208475507996" y1="142.92168965132927" y2="145.44649492493687" /><path d="M 25.769776987707644 143.4266507060508 a86.0,86.0 0 0,1 -11.730757126820373,-40.83630448921669" fill="none" id="id45" stroke="none" /><text fill="#e1ed5e" style="font-size:6.75px; font-family:Arial;" text-anchor="middle"><textPath startOffset="21.46611528233685" xlink:href="#id45">September</textPath></text><line stroke="#e1ed5e" stroke-width="0.3" x1="15.007084014347285" x2="10.007500721073583" y1="101.09737516637583" y2="101.16192664675087" /><path d="M 14.007167355692545 101.11028546245083 a86.0,86.0 0 0,1 10.666146001902534,-42.60595125391555" fill="none" id="id46" stroke="none" /><text fill="#e1ed5e" style="font-size:6.75px; font-family:Arial;" text-anchor="middle"><textPath startOffset="22.20632615414155" xlink:href="#id46">October</textPath></text><line stroke="#e1ed5e" stroke-width="0.3" x1="26.266209847984243" x2="21.928928074336255" y1="57.711370442889674" y2="55.22380399835377" /><path d="M 25.398753493254645 57.213857153982495 a86.0,86.0 0 0,1 29.58750427330803,-30.492523968695096" fill="none" id="id47" stroke="none" /><text fill="#e1ed5e" style="font-size:6.75px; font-family:Arial;" text-anchor="middle"><textPath startOffset="21.46611528233685" xlink:href="#id47">November</textPath></text><line stroke="#e1ed5e" stroke-width="0.3" x1="56.762969772571076" x2="54.21961505331055" y1="26.818313649435495" y2="22.513508569990535" /><path d="M 56.25429882871897 25.957352633546506 a86.0,86.0 0 0,1 42.265352541879196,-11.944610805530505" fill="none" id="id48" stroke="none" /><text fill="#e1ed5e" style="font-size:6.75px; font-family:Arial;" text-anchor="middle"><textPath startOffset="22.20632615414155" xlink:href="#id48">December</textPath></text></svg>