<?xml version="1.0" encoding="utf-8" ?>
<svg baseProfile="full" height="200mm" version="1.1" viewBox="0,0,200,200" width="200mm" xmlns="http://www.w3.org/2000/svg" xmlns:ev="http://www.w3.org/2001/xml-events" xmlns:xlink="http://www.w3.org/1999/xlink"><defs /><rect fill="#1a1a1a" height="200" width="200" x="0" y="0" /><text alignment-baseline="middle" fill="#e1ed5e" style="dominant-baseline: central; font-size:9.0px; font-family:Arial;" text-anchor="middle" x="100.0" y="100.0">2023</text><line stroke="#e1ed5e" stroke-width="0.3" x1="100.0" x2="100.0" y1="15.0" y2="10.0" /><path d="M 100.0 14.0 a86.0,86.0 0 0,1 42.46469731375804,11.215312516191453" fill="none" id="id37" stroke="none" /><text fill="#e1ed5e" style="font-size:6.75px; font-family:Arial;" text-anchor="middle"><textPath startOffset="22.20632615414155" xlink:href="#id37">January</textPath></text><path d="M 100.0 79.0 l 0.0 -29.921669906770163 a50.92166990677016,50.92166990677016 0 0,0 0.876532840155084,0.007544594886508608 l -0.5150523608825556 29.917236688492213" fill="#9aff23" stroke="none" /><path d="M 100.72285384407766 79.0124445844662 l 1.028608372667675 -29.864924146305768 a50.882632572263766,50.882632572263766 0 0,0 0.8750823440780128,0.037682886520607674 l -1.5425315491350193 29.842793533260966" fill="#9aff23" stroke="none" /><path d="M 101.08401301168833 79.027996857942 l 1.5443159073725334 -29.877314859260018 a50.917199982971724,50.917199982971724 0 0,0 0.8748980057466316,0.05277623694945386 l -2.058375961958777 29.846305352930262" fill="#9aff23" stroke="none" /><path d="M 101.80526077348638 79.07773832637324 l 2.568444621646699 -29.76726202527054 a50.87786465354543,50.87786465354543 0 0,0 0.8718888131483057,0.08279634860787505 l -3.0804585618852487 29.71864013214749" fill="#9aff23" stroke="none" /><path d="M 102.16513564639614 79.11191278185805 l 3.082301988809568 -29.736424543225635 a50.89574434873919,50.89574434873919 0 0,0 0.8706402866535167,0.0978265806209959 l -3.5937089789728103 29.67896200913404" fill="#9aff23" stroke="none" /><path d="M 103.2404852339499 79.25152402106235 l 4.605313918499112 -29.48732622273792 a50.844787217436966,50.844787217436966 0 0,0 0.8635643152639626,0.14249551132313182 l -5.112207439901949 29.40368444847516" fill="#9bff22" stroke="none" /><path d="M 104.66035177308747 79.52364482259891 l 5.32358442101775 -23.390424313274796 a44.98859105163827,44.98859105163827 0 0,0 0.7536152708998151,0.1783563862891249 l -5.725423378880088 23.295322014844803" fill="#dfff1b" stroke="none" /><path d="M 105.01212808612495 79.60689891045804 l 8.55755206145158 -34.818548382933244 a56.85474876190206,56.85474876190206 0 0,0 0.9483672917781127,0.24175993895283923 l -9.155628241914716 34.66608544781153" fill="#59ff2a" stroke="none" /><path d="M 105.71112130821622 79.79150937346287 l 8.120342324671945 -28.73338752520034 a50.85879297867208,50.85879297867208 0 0,0 0.8404046989703948,0.24533717704367577 l -8.613737241365767 28.589352019237957" fill="#9aff22" stroke="none" /><path d="M 108.09893153111575 80.62456947434976 l 6.901520289290105 -16.510810885702607 a38.89519092960225,38.89519092960225 0 0,0 0.615500175702554,0.2635250535924374 l -7.184704222782974 16.38956630414738" fill="#ffd213" stroke="none" /><path d="M 108.43124777332544 80.76684994638697 l 12.020130284662622 -27.4200184414354 a50.93895361212414,50.93895361212414 0 0,0 0.8000275127557017,0.3589490247312322 l -12.490339915885105 27.209049086187637" fill="#99ff23" stroke="none" /><path d="M 109.08828744355905 81.06846463323043 l 14.413120357198848 -30.02353297938395 a54.30391224759121,54.30391224759121 0 0,0 0.8391990399089271,0.41179132428189513 l -14.927790664118206 29.770986494967225" fill="#74ff27" stroke="none" /><path d="M 109.41281617654863 81.2277094730956 l 17.39790190921071 -34.69721102298645 a59.81473230123029,59.81473230123029 0 0,0 0.9164172764574737,0.4694245228416461 l -17.992579673256937 34.39259397483231" fill="#3aff2e" stroke="none" /><path d="M 109.73455568895987 81.39251694778311 l 21.054079548871275 -40.2446132009861 a66.41919371088818,66.41919371088818 0 0,0 1.008480424776778,0.5386953170269123 l -21.743705020176364 39.876239157457434" fill="#36ff73" stroke="none" /><path d="M 110.36928655335952 81.73862282372117 l 14.232074233381006 -25.064142478767398 a49.822962637113136,49.822962637113136 0 0,0 0.7421326433879454,0.429891128397895 l -14.661403609234279 24.815447192979452" fill="#a6ff21" stroke="none" /><line stroke="#e1ed5e" stroke-width="0.3" x1="143.23703022742887" x2="145.7803849466894" y1="26.81831364943548" y2="22.513508569990506" /><path d="M 143.74570117128098 25.957352633546492 a86.0,86.0 0 0,1 28.547481713284135,27.462654790039103" fill="none" id="id38" stroke="none" /><text fill="#e1ed5e" style="font-size:6.75px; font-family:Arial;" text-anchor="middle"><textPath startOffset="19.985693538727396" xlink:href="#id38">February</textPath></text><path d="M 110.68208982089419 81.91981866633111 l 14.953500884494503 -25.309842184252176 a50.397198847752975,50.397198847752975 0 0,0 0.7430897390303376,0.44770325327793903 l -15.386952689742477 25.04869232151562" fill="#a0ff22" stroke="none" /><path d="M 111.2981086023043 82.29822771554956 l 15.604218902275784 -24.448546160059617 a50.00384555349009,50.00384555349009 0 0,0 0.7215625733475047,0.4693243692739856 l -16.02274850140757 24.1763228666261" fill="#a4ff21" stroke="none" /><path d="M 111.60114157652 82.49532879139004 l 15.983732870103408 -24.117453160272554 a49.9332207574747,49.9332207574747 0 0,0 0.7123694539095828,0.4809950352284718 l -16.396507018419534 23.838746212745413" fill="#a5ff21" stroke="none" /><path d="M 111.90073688211348 82.69761687909136 l 25.726977899684897 -37.40424081071228 a66.39773807665564,66.39773807665564 0 0,0 0.9361096498370792,0.6558046325375501 l -26.367018689105628 36.9558513354108" fill="#36ff72" stroke="none" /><path d="M 112.48926042617603 83.11751280151076 l 18.2941054829933 -24.72924665556119 a51.76052560627776,51.76052560627776 0 0,0 0.7117167072524004,0.5360502684677717 l -18.717068344004083 24.410679797587573" fill="#90ff24" stroke="none" /><path d="M 112.77801427241765 83.33499621200491 l 27.250310807914733 -35.539679574330314 a65.78446453150943,65.78446453150943 0 0,0 0.8926871794166346,0.6967565031040958 l -27.8580305424908 35.065344682002994" fill="#36ff6b" stroke="none" /><path d="M 113.6212207817346 84.01681056812373 l 29.053553066425803 -34.09154361204163 a65.79221239942672,65.79221239942672 0 0,0 0.8556314860491758,0.7419951931691721 l -29.636078351121743 33.58638342545279" fill="#36ff6b" stroke="none" /><path d="M 113.89432698308785 84.25364557470407 l 29.79242920888718 -33.763574880934605 a66.02852237090434,66.02852237090434 0 0,0 0.8457593820497923,0.7593311239081914 l -30.369199578532964 33.24574474825712" fill="#36ff6e" stroke="none" /><path d="M 114.42810811169701 84.74124197986012 l 30.840334452317332 -32.615863218171015 a65.88786876871336,65.88786876871336 0 0,0 0.8173758979483741,0.7863149662202606 l -31.397193593878125 32.080165165188454" fill="#36ff6c" stroke="none" /><path d="M 114.68862486808459 84.99185889309783 l 31.32611724928225 -32.00754272308528 a65.7862525010288,65.7862525010288 0 0,0 0.8024801300912628,0.7990340253853053 l -31.872433179540835 31.463572847049853" fill="#36ff6b" stroke="none" /><path d="M 115.19652480421416 85.50635884689758 l 32.41706774088498 -30.917683689227896 a65.79698031814505,65.79698031814505 0 0,0 0.7746268404910354,0.8263179041413116 l -32.94446190334648 30.35509636820853" fill="#36ff6b" stroke="none" /><path d="M 115.4437574822437 85.77008943001954 l 33.06696705344474 -30.467972870721898 a65.96355947836699,65.96355947836699 0 0,0 0.7622131997632442,0.8416548525717978 l -33.58652389382402 29.89426523088055" fill="#36ff6d" stroke="none" /><path d="M 115.68641384162765 86.03803664274999 l 28.97972079941177 -25.793900632086064 a59.796256616196736,59.796256616196736 0 0,0 0.6777140762972261,0.7747443439316044 l -29.41942673928684 25.29124073195151" fill="#3aff2e" stroke="none" /><path d="M 116.15771136456269 86.58626213691792 l 34.4266487120814 -28.580164041120078 a65.74393722240355,65.74393722240355 0 0,0 0.7153613710549106,0.8769484556326884 l -34.913508575212724 27.983331415879288" fill="#36ff6b" stroke="none" /><path d="M 116.38621287248628 86.86637796730983 l 34.98047554470764 -28.03700573787578 a65.82975975933363,65.82975975933363 0 0,0 0.7010741497930779,0.8902929750426167 l -35.45790377509468 27.430720368880124" fill="#36ff6c" stroke="none" /><path d="M 116.82858285166822 87.43820079747576 l 33.482840584043124 -24.99347234726809 a62.78246370847583,62.78246370847583 0 0,0 0.6389980844289375,0.8715926690405797 l -33.90810128098569 24.413417234556015" fill="#32ff47" stroke="none" /><path d="M 117.04232023915458 87.72973835380427 l 36.326446449800464 -26.15459610901441 a65.76241290743711,65.76241290743711 0 0,0 0.6535136030965889,0.9243486459292318 l -36.77127267270093 25.525420962753383" fill="#36ff6b" stroke="none" /><path d="M 117.2510076193507 88.02491185347247 l 27.04822671574004 -18.77599884454976 a53.92635268408281,53.92635268408281 0 0,0 0.522766002961833,0.7670946034098305 l -27.367417184370606 18.307626217869522" fill="#78ff26" stroke="none" /><path d="M 117.65298651832404 88.62581576622439 l 15.674286904181459 -10.099267157778481 a39.646138127740485,39.646138127740485 0 0,0 0.3646923715095474,0.5768557506656478 l -15.845806871936963 9.827963759398628" fill="#ffdb14" stroke="none" /><line stroke="#e1ed5e" stroke-width="0.3" x1="172.23445277983987" x2="176.4835382374775" y1="55.19839476539836" y2="52.563006222186495" /><path d="M 173.08426987136738 54.67131705675599 a86.0,86.0 0 0,1 12.851231095245387,41.99856678651699" fill="none" id="id39" stroke="none" /><text fill="#e1ed5e" style="font-size:6.75px; font-family:Arial;" text-anchor="middle"><textPath startOffset="22.20632615414155" xlink:href="#id39">March</textPath></text><path d="M 117.84615892207809 88.93136811851018 l 25.406420993848307 -15.75769456245074 a50.896340338578995,50.896340338578995 0 0,0 0.45536277498412253,0.7484966724939808 l -25.673899567118653 15.318030116749677" fill="#9aff23" stroke="none" /><path d="M 118.03404312379186 89.2402003453031 l 33.34318534959539 -19.893819247762593 a59.826950092946035,59.826950092946035 0 0,0 0.520039568829231,0.8889161964321524 l -33.68068459289495 19.316923638976547" fill="#3aff2e" stroke="none" /><path d="M 118.21658344932153 89.55222093294921 l 13.00863256522054 -7.46085671794446 a35.99629634885272,35.99629634885272 0 0,0 0.3036413733320168,0.5401441219427362 l -13.13513157984499 7.23582908606693" fill="#ffab0f" stroke="none" /><path d="M 118.3937258080291 89.86733742301442 l 26.29766934393376 -14.48675558199868 a51.023882164294534,51.023882164294534 0 0,0 0.4171613006686095,0.7729365343174226 l -26.543138743820833 14.031938064348799" fill="#98ff23" stroke="none" /><path d="M 118.73160827565052 90.50648371742162 l 26.781008644760146 -13.573097295836629 a51.024180159214424,51.024180159214424 0 0,0 0.39031064951615124,0.7868424523458913 l -27.010679307229704 13.110095254991789" fill="#98ff23" stroke="none" /><path d="M 118.89224826269711 90.83032412892265 l 26.93400687455341 -13.072880978209453 a50.93895361212414,50.93895361212414 0 0,0 0.37607939865879636,0.7921191257797061 l -27.155044467053962 12.607319436789206" fill="#99ff23" stroke="none" /><path d="M 119.196687751892 91.48605970444005 l 27.36721821733523 -12.137659630109264 a50.93805962736445,50.93805962736445 0 0,0 0.3485843995733213,0.8045808548331154 l -27.57209332675123 11.664779630689546" fill="#99ff23" stroke="none" /><path d="M 119.34039704204932 91.81776055985345 l 31.710171495076064 -13.415454465423402 a55.43122702955826,55.43122702955826 0 0,0 0.36420510473174605,0.8819515495976965 l -31.936398286694008 12.8676283453724" fill="#68ff28" stroke="none" /><path d="M 119.47837535516314 92.15188598940014 l 31.009896403784637 -12.494327581036284 a54.432348058066445,54.432348058066445 0 0,0 0.34268130992193724,0.8720865557140701 l -31.220371263588273 11.95869202042643" fill="#73ff27" stroke="none" /><path d="M 119.61058180528143 92.48833698450437 l 47.897895041771086 -18.346872636306276 a72.29148160236126,72.29148160236126 0 0,0 0.4351100745217923,1.1658786765994942 l -48.20660970479451 17.51967082267745" fill="#3effb5" stroke="none" /><path d="M 119.85752413597 93.16781622104841 l 37.791598061894284 -13.002584888789297 a60.96588667678904,60.96588667678904 0 0,0 0.33288159780781995,0.9952736074758773 l -38.00981695347387 12.350138178391106" fill="#2fff30" stroke="none" /><path d="M 119.97218684219823 93.5106431181261 l 19.875827438665606 -6.458047813748895 a41.89868172723532,41.89868172723532 0 0,0 0.21696437500848118,0.6878363596388957 l -19.984047297442295 6.114961287683579" fill="#fff817" stroke="none" /><path d="M 120.37134235888165 94.90015583598534 l 15.648160300988797 -3.9174236818895847 a37.13106100381717,37.13106100381717 0 0,0 0.1498807649827747,0.6213525333760415 l -15.71327386623239 3.647485916854137" fill="#ffbb11" stroke="none" /><path d="M 120.45610955862082 95.25157060432595 l 18.622139554060567 -4.322714180594537 a40.11726809609627,40.11726809609627 0 0,0 0.15035496082413607,0.674011807729501 l -18.69378890188674 4.001524203315072" fill="#ffe215" stroke="none" /><path d="M 120.53481517161879 95.60439243477599 l 20.483529856096023 -4.384629617820413 a41.94755289409828,41.94755289409828 0 0,0 0.14506003932439648,0.707364268770149 l -20.555969191335418 4.031389692886852" fill="#fff917" stroke="none" /><path d="M 120.6074358757038 95.95851677861258 l 29.385429803942028 -5.763003326673403 a50.945211505441954,50.945211505441954 0 0,0 0.16136113635921806,0.8619976426757143 l -29.480276664211104 5.256327606535126" fill="#99ff23" stroke="none" /><path d="M 120.73433829027371 96.67025291283417 l 32.929675206076745 -5.288207830108836 a54.35159143477459,54.35159143477459 0 0,0 0.14039302464435943,0.9250146200805403 l -33.0158241241604 4.720594097636213" fill="#73ff27" stroke="none" /><path d="M 120.83666639777658 97.38593545837742 l 62.50999919332973 -7.84219362486773 a84.0,84.0 0 0,0 0.16763858798564435,1.436225046700589 l -62.63572813431897 6.7650248398422885" fill="#4dd2ff" stroke="none" /><path d="M 120.94382443527127 98.46500227214037 l 15.493811628669908 -1.1355598266876628 a36.53536915894482,36.53536915894482 0 0,0 0.040570629343909426,0.6276096789646929 l -15.511062849018233 0.8686910834699346" fill="#ffb310" stroke="none" /><line stroke="#e1ed5e" stroke-width="0.3" x1="184.98032266829074" x2="189.97916517819016" y1="98.17113171792111" y2="98.06355123074" /><path d="M 185.9800911702706 98.14961562048488 a86.0,86.0 0 0,1 -9.607161424134198,41.387399972396054" fill="none" id="id40" stroke="none" /><text fill="#e1ed5e" style="font-size:6.75px; font-family:Arial;" text-anchor="middle"><textPath startOffset="21.466115282336823" xlink:href="#id40">April</textPath></text><path d="M 120.99980553446 99.90962569577887 l 17.963861404462136 -0.07730888140316416 a38.96402775609825,38.96402775609825 0 0,0 -0.0028864973139067556,0.6707203202303842 l -17.962530609858728 -0.2319209170309047" fill="#ffd313" stroke="none" /><path d="M 120.9764740272857 100.99374915477107 l 30.035491361315497 1.422915219908533 a51.069177392118746,51.069177392118746 0 0,0 -0.04915687772699094,0.8777290735380582 l -30.006548132700978 -1.9397160097820147" fill="#98ff23" stroke="none" /><path d="M 120.92983693683757 101.71520430193887 l 29.77744577378315 2.4402676067700635 a50.87726866370564,50.87726866370564 0 0,0 -0.07904244907014764,0.87222683898803 l -29.731028728435927 -2.952475834306664" fill="#9aff23" stroke="none" /><path d="M 120.89721153311464 102.0752229133903 l 27.050636864437642 2.686296272300521 a48.18369258276455,48.18369258276455 0 0,0 -0.0890657167258932,0.8246379209246701 l -27.000388846210697 -3.1515305151099824" fill="#b9ff1f" stroke="none" /><path d="M 120.8583938346157 102.4346265915055 l 2.9684385316990096 0.3464811069263775 a23.988591051638263,23.988591051638263 0 0,0 -0.05140239964848982,0.409727700470615 l -2.9620346228036714 -0.39752656168438744" fill="#ff0000" stroke="none" /><path d="M 120.81339534386255 102.79330883721812 l 5.547206529613973 0.7444754094681586 a26.596940585489065,26.596940585489065 0 0,0 -0.06480274786245803,0.4532302676183469 l -5.533569730734913 -0.8398511490669148" fill="#ff2703" stroke="none" /><path d="M 120.70491114924044 103.5080841355445 l 14.707417835828608 2.491914059075173 a35.91702970016035,35.91702970016035 0 0,0 -0.10852682452781887,0.6086760666497698 l -14.6623445689616 -2.7447088764581613" fill="#ffaa0f" stroke="none" /><path d="M 120.64145759157962 103.86396538481128 l 38.1669692499495 7.14464312273771 a59.829930042144994,59.829930042144994 0 0,0 -0.1982082020520645,1.0106593520445766 l -38.038331114921775 -7.8005662018502315" fill="#3aff2e" stroke="none" /><path d="M 120.5718875245553 104.21870165774334 l 46.82628789202459 9.602723042319436 a68.80076911069801,68.80076911069801 0 0,0 -0.24789887291707657,1.158101004484317 l -46.65405498038307 -10.407337866219923" fill="#39ff8e" stroke="none" /><path d="M 120.49622156327973 104.57218783832717 l 29.160529439854546 6.504975448887063 a50.87726866370564,50.87726866370564 0 0,0 -0.19803234036050085,0.8531181392851644 l -29.04423653356349 -7.0059622455207915" fill="#9aff23" stroke="none" /><path d="M 120.41448212921028 104.9243191809786 l 32.047703927465264 7.7304494994037505 a53.966879993188684,53.966879993188684 0 0,0 -0.22560387934277187,0.9011753527710915 l -31.90988873382743 -8.280952691572239" fill="#78ff26" stroke="none" /><path d="M 120.23288151984713 105.62410040840565 l 31.66729765427734 8.802506034339217 a53.867945679783176,53.867945679783176 0 0,0 -0.2560198864124758,0.8912388112555196 l -31.511085130978767 -9.346302321099317" fill="#79ff26" stroke="none" /><path d="M 119.67450827220406 107.3425965602758 l 28.04450100681373 10.46630765955164 a50.933887698485904,50.933887698485904 0 0,0 -0.31362109723600684,0.8187657207893373 l -27.860185629984215 -10.947496947174121" fill="#99ff23" stroke="none" /><path d="M 119.54520255179757 107.68017299344265 l 11.328956430776847 4.4516471493685605 a33.17219849299712,33.17219849299712 0 0,0 -0.21340368074946556,0.5296504345116954 l -11.25065013576999 -4.6459969517230695" fill="#ff850c" stroke="none" /><path d="M 119.41010516605496 108.01547362559984 l 46.90639993442919 19.370168699743893 a71.7485348583105,71.7485348583105 0 0,0 -0.48122432074678356,1.137472142879087 l -46.5660246324901 -20.174715368289142" fill="#3dffaf" stroke="none" /><path d="M 119.26925614724726 108.34839909993367 l 41.30977864593487 17.897448465619608 a66.02017851314726,66.02017851314726 0 0,0 -0.46075455946355176,1.0388798959390109 l -40.995583001740044 -18.605876698051308" fill="#36ff6e" stroke="none" /><path d="M 118.81262510543309 109.33194174019688 l 30.42145448680789 15.09046394811505 a54.958607086603,54.958607086603 0 0,0 -0.42768612746602114,0.8438653040838855 l -30.157189689555597 -15.611883463901629" fill="#6dff28" stroke="none" /><line stroke="#e1ed5e" stroke-width="0.3" x1="174.80103733775053" x2="179.2010983576182" y1="140.37084112569926" y2="142.7455964860345" /><path d="M 175.68104954172406 140.8457921977663 a86.0,86.0 0 0,1 -30.038265399797805,32.042727171017184" fill="none" id="id41" stroke="none" /><text fill="#e1ed5e" style="font-size:6.75px; font-family:Arial;" text-anchor="middle"><textPath startOffset="22.206326154141568" xlink:href="#id41">May</textPath></text><path d="M 117.94076556474637 110.91462005526583 l 17.862608379118562 10.8670715834552 a41.90851555959189,41.90851555959189 0 0,0 -0.3802406720536964,0.6130690346162927 l -17.672903067396902 -11.172936949436766" fill="#fff817" stroke="none" /><path d="M 117.55443506779139 111.5257021239791 l 25.012535363369334 16.42246138086398 a50.92196790169006,50.92196790169006 0 0,0 -0.48738844831498296,0.7285796004978404 l -24.72614380964363 -16.850577895567625" fill="#9aff23" stroke="none" /><path d="M 115.80600337817218 113.82643327865902 l 21.420004379373378 18.737327475773235 a49.458812845000075,49.458812845000075 0 0,0 -0.5660470463902314,0.6359598572429639 l -21.094298483334807 -19.103261502757064" fill="#aaff21" stroke="none" /><path d="M 115.32070863581623 114.36230785411682 l 16.248590806605122 15.232145516720879 a43.27184231811667,43.27184231811667 0 0,0 -0.5140971984825043,0.5390288572753918 l -15.983987056743652 -15.509581490578778" fill="#f5ff19" stroke="none" /><path d="M 115.07121518719521 114.62390073753431 l 25.69619626756933 24.933531827506684 a56.80468561535952,56.80468561535952 0 0,0 -0.6869563072758815,0.6958831124281445 l -25.263199335237914 -25.37215543391549" fill="#59ff2a" stroke="none" /><path d="M 114.55890576462653 115.13401014063108 l 27.319614884174808 28.398791459987404 a60.4062522172241,60.4062522172241 0 0,0 -0.7555503731531236,0.7144200368927787 l -26.82672867663088 -28.864846133626102" fill="#34ff2f" stroke="none" /><path d="M 114.0293411484842 115.62618273729858 l 24.566825451678675 27.363060012602617 a57.77316910502193,57.77316910502193 0 0,0 -0.7457075848922411,0.6580002417332101 l -24.092175513879845 -27.781883396108114" fill="#4fff2b" stroke="none" /><path d="M 113.48314897796784 116.09983520530334 l 24.92328643649164 29.760169902280854 a59.81801024534915,59.81801024534915 0 0,0 -0.7950949290712694,0.6543089968384768 l -24.40732137887568 -30.18477401797651" fill="#3aff2e" stroke="none" /><path d="M 113.20401910651253 116.32954008644616 l 24.445357108163222 30.231813177879857 a59.87850321408807,59.87850321408807 0 0,0 -0.8070553181927447,0.6411735549039747 l -23.921344297253125 -30.64812064678896" fill="#39ff2e" stroke="none" /><path d="M 112.34349029814194 116.9893568818739 l 35.27679881846553 48.5543481058348 a81.01647486199997,81.01647486199997 0 0,0 -1.135282597424019,0.8099939896395455 l -34.43578889319262 -49.15438635731856" fill="#49eeff" stroke="none" /><path d="M 112.04921762599082 117.19931262002967 l 5.189622020179557 7.407778187384041 a30.044741808687263,30.044741808687263 0 0,0 -0.42612473814288204,0.293092480507487 l -5.061340397413791 -7.496011457256623" fill="#ff5908" stroke="none" /><path d="M 111.7513745106137 117.40417183066458 l 16.71633065823489 24.757435046543556 a50.8725007449873,50.8725007449873 0 0,0 -0.7299605529921285,0.48377805099082577 l -16.2876954065028 -25.0415111186257" fill="#9aff22" stroke="none" /><path d="M 111.45004920935366 117.60387380957326 l 24.407577474835158 37.525420721631534 a65.76479686679627,65.76479686679627 0 0,0 -0.9542728757142779,0.6090620991392885 l -23.758022797073952 -37.939997249594626" fill="#36ff6b" stroke="none" /><line stroke="#e1ed5e" stroke-width="0.3" x1="143.8653032363475" x2="146.44561519142675" y1="172.8068346515853" y2="177.08958963109032" /><path d="M 144.38136562736335 173.6633856474863 a86.0,86.0 0 0,1 -40.68145358897372,12.25698825130547" fill="none" id="id42" stroke="none" /><text fill="#e1ed5e" style="font-size:6.75px; font-family:Arial;" text-anchor="middle"><textPath startOffset="21.466115282336833" xlink:href="#id42">June</textPath></text><path d="M 110.8373102113329 117.98757091392108 l 14.619473190963136 24.265136423946124 a49.328887059925364,49.328887059925364 0 0,0 -0.7310825971171935,0.43193648474949814 l -14.19962272281756 -24.51319148098937" fill="#acff21" stroke="none" /><path d="M 110.5260780823613 118.17145234162733 l 13.467572536476329 23.24943351067086 a47.868413957514434,47.868413957514434 0 0,0 -0.7165473787176737,0.40687430237374034 l -13.065376390837455 -23.477810978839226" fill="#bdff1f" stroke="none" /><path d="M 109.89434966115114 118.52300852407294 l 14.063340089675792 26.327689770334473 a50.84836315647571,50.84836315647571 0 0,0 -0.7755806338407489,0.40574713142098523 l -13.608068553308547 -26.565866320700174" fill="#9aff22" stroke="none" /><path d="M 109.2508944713604 118.85261126421891 l 19.712513917665902 40.17258688668292 a65.74840714620198,65.74840714620198 0 0,0 -1.020312999433819,0.4898122440470984 l -19.018088250231852 -40.50595340722958" fill="#36ff6b" stroke="none" /><path d="M 107.2578585660854 119.70592522655815 l 6.198908050603998 16.830752131533654 a38.93601623362802,38.93601623362802 0 0,0 -0.63091260530032,0.22622281346538023 l -5.908275884673944 -16.934962486038994" fill="#ffd213" stroke="none" /><path d="M 106.91757812671514 119.82793768551818 l 9.829162818524503 28.173448032897323 a50.83882731903904,50.83882731903904 0 0,0 -0.8287461587278493,0.2811556930683475 l -9.342746926859428 -28.33846671286379" fill="#9bff22" stroke="none" /><path d="M 106.57524785965236 119.94407469862006 l 12.139823459570168 36.82257324342576 a59.77211902768515,59.77211902768515 0 0,0 -0.979917368567412,0.31373859664471054 l -11.504184745911816 -37.02608468673017" fill="#3bff2e" stroke="none" /><path d="M 105.88484417918355 120.15858648285463 l 8.361838234084752 28.64355181972276 a50.83912531395893,50.83912531395893 0 0,0 -0.8421593875024029,0.2380026550109307 l -7.8675476784777425 -28.78324326807221" fill="#9bff22" stroke="none" /><path d="M 104.48393922423573 120.51570834832081 l 7.644222083700474 34.97519100422747 a56.80081168140086,56.80081168140086 0 0,0 -0.9569815319343595,0.20054478457399477 l -7.041049090336736 -35.10159176952801" fill="#59ff2a" stroke="none" /><path d="M 104.13013068566511 120.58985236759428 l 5.892634695967311 29.376425997181794 a50.96160122603624,50.96160122603624 0 0,0 -0.8615723261202476,0.16512238686036415 l -5.386094755275359 -29.473505582390626" fill="#99ff23" stroke="none" /><path d="M 103.7750983002368 120.6578951692458 l 9.114908982185487 49.87812747005637 a71.70413361524598,71.70413361524598 0 0,0 -1.2160714731797815,0.21142961330360643 l -8.254988537533654 -50.02763566188098" fill="#3dffaf" stroke="none" /><path d="M 102.70371172650421 120.8252237178851 l 2.112295168429789 16.269863021837086 a37.40640830980119,37.40640830980119 0 0,0 -0.6392444830728865,0.07740360454219287 l -1.8319232623055222 -16.30381215510463" fill="#ffbe11" stroke="none" /><path d="M 102.34483914955558 120.86867818915974 l 5.022616110841579 44.700447493256576 a65.98173716848065,65.98173716848065 0 0,0 -1.1297562811962945,0.1171038578407349 l -4.252427233039682 -44.78028071955307" fill="#36ff6d" stroke="none" /><path d="M 101.62511606390274 120.93702456842531 l 2.347794714845444 30.247584599151608 a51.33856479970484,51.33856479970484 0 0,0 -0.8816475369017877,0.060803576034601355 l -1.8267844171647258 -30.283516519702495" fill="#95ff23" stroke="none" /><path d="M 101.26447882468166 120.96189622390904 l 1.9879506955386772 32.95525030924927 a54.01515517021186,54.01515517021186 0 0,0 -0.9285769287116099,0.047996820630752515 l -1.4203856984135876 -32.98458693664223" fill="#77ff27" stroke="none" /><path d="M 100.90346689309514 120.98055641714683 l 1.3098225094982539 30.417058186639053 a51.445246981027665,51.445246981027665 0 0,0 -0.8850533684436348,0.030483027533538924 l -0.7860487893799667 -30.435098012598687" fill="#94ff23" stroke="none" /><line stroke="#e1ed5e" stroke-width="0.3" x1="102.19456741930631" x2="102.32365962044197" y1="184.97166512339345" y2="189.96999836594603" /><path d="M 102.22038585953345 185.97133177190398 a86.0,86.0 0 0,1 -42.740103519485714,-10.115201625700543" fill="none" id="id43" stroke="none" /><text fill="#e1ed5e" style="font-size:6.75px; font-family:Arial;" text-anchor="middle"><textPath startOffset="22.20632615414155" xlink:href="#id43">July</textPath></text><path d="M 99.45781275523022 120.99299961872073 l -0.775762226875409 30.036811618333953 a51.04682777312654,51.04682777312654 0 0,0 -0.8781990469523915,-0.030246950842356554 l 1.2926816255024434 -30.019007869065504" fill="#98ff23" stroke="none" /><path d="M 99.09653310690486 120.98055641714683 l -1.7964595137709995 41.717876402388214 a62.75653815044487,62.75653815044487 0 0,0 -1.078850431303556,-0.055764244229645245 l 2.5142980134880446 -41.680772351396364" fill="#32ff47" stroke="none" /><path d="M 98.73552117531835 120.96189622390904 l -1.7948813173039968 29.754642919411452 a50.80872983212953,50.80872983212953 0 0,0 -0.8725485740470671,-0.06017605828332715 l 2.306792652129994 -29.71933851661184" fill="#9bff22" stroke="none" /><path d="M 98.37488393609728 120.93702456842531 l -3.23169126255054 41.63517970470104 a62.76041208440351,62.76041208440351 0 0,0 -1.076358049194302,-0.09287270156295466 l 3.9478936294863836 -41.57338275085942" fill="#32ff47" stroke="none" /><path d="M 97.65516085044442 120.86867818915974 l -5.223190679011754 46.48552776917513 a67.77805054561452,67.77805054561452 0 0,0 -1.1582706504694225,-0.1402504452612513 l 6.022588752532566 -46.38873179518853" fill="#38ff82" stroke="none" /><path d="M 96.93821686468263 120.77559828337769 l -4.356820383467731 29.563018045161105 a50.88233457734387,50.88233457734387 0 0,0 -0.8653973850904528,-0.13515727375500614 l 4.865053632166701 -29.483642464058992" fill="#9aff23" stroke="none" /><path d="M 96.58105272829116 120.7198165907248 l -4.865441757468936 29.485994616472418 a50.88471853670305,50.88471853670305 0 0,0 -0.8629830877715255,-0.15004067158815043 l 5.372273816712511 -29.397875366363262" fill="#9aff23" stroke="none" /><path d="M 96.22490169976321 120.6578951692458 l -6.89932681931713 37.75413481627203 a59.37936172326206,59.37936172326206 0 0,0 -1.003885544658091,-0.19239705390145162 l 7.548179978546917 -37.62978056402211" fill="#3fff2d" stroke="none" /><path d="M 95.16358092515715 120.4354850818985 l -4.362460849035573 18.43285336139516 a39.942047083197345,39.942047083197345 0 0,0 -0.6676916394851646,-0.1641023601285732 l 4.679105773263948 -18.355029742952556" fill="#ffdf14" stroke="none" /><path d="M 94.11515582081647 120.15858648285463 l -8.363257858484074 28.6484147558271 a50.844191227597165,50.844191227597165 0 0,0 -0.8380212851531951,-0.2524889388232322 l 8.855154118077516 -28.50021044789814" fill="#9bff22" stroke="none" /><path d="M 93.76903079525671 120.05430185196036 l -8.84401333506326 28.464353967454457 a50.806643867690255,50.806643867690255 0 0,0 -0.8329353814862869,-0.26667960591950346 l 9.332670061640487 -28.307901514875248" fill="#9bff22" stroke="none" /><path d="M 93.08242187328487 119.8279376855182 l -15.799771607662159 45.28707607541069 a68.9640703268011,68.9640703268011 0 0,0 -1.1174821024555386,-0.40068932383172784 l 16.576973270747423 -45.008399210539004" fill="#3aff90" stroke="none" /><path d="M 92.06813273071674 119.44442032107085 l -10.227765277809315 25.072654427429534 a48.078500376041205,48.078500376041205 0 0,0 -0.7635977171415111,-0.31918390769476135 l 10.657834454448288 -24.8928854767148" fill="#baff1f" stroke="none" /><path d="M 91.40352486487194 119.15986991738527 l -9.024523995640381 20.1139075149801 a43.04566417391551,43.04566417391551 0 0,0 -0.6734227773609073,-0.30913536778494166 l 9.369414768768708 -19.955585076861084" fill="#f7ff18" stroke="none" /><line stroke="#e1ed5e" stroke-width="0.3" x1="58.666819895761336" x2="56.23545636021788" y1="174.27360380694188" y2="178.64263932499728" /><path d="M 58.180547188652646 175.14741091055294 a86.0,86.0 0 0,1 -31.652253787137756,-30.449443065178592" fill="none" id="id44" stroke="none" /><text fill="#e1ed5e" style="font-size:6.75px; font-family:Arial;" text-anchor="middle"><textPath startOffset="22.20632615414155" xlink:href="#id44">August</textPath></text><path d="M 89.1626897886671 117.98757091392108 l -15.491274521837477 25.712136459578065 a51.018220260816506,51.018220260816506 0 0,0 -0.7483177629888761,-0.4596778892969806 l 15.931571484758662 -25.441670103452704" fill="#99ff23" stroke="none" /><path d="M 88.24862548938628 117.40417183066458 l -17.868439277295654 26.46374577263034 a52.93134764654965,52.93134764654965 0 0,0 -0.7507255944836759,-0.516355909367313 l 18.32132175640222 -26.152249073897927" fill="#83ff25" stroke="none" /><path d="M 87.65650970185807 116.9893568818739 l -15.591426904667253 21.459758105931847 a47.52571979963389,47.52571979963389 0 0,0 -0.6576994507356966,-0.4865503302810845 l 15.958511325821513 -21.188197826910994" fill="#c1ff1e" stroke="none" /><path d="M 87.36589467227662 116.77436683061367 l -12.94802620906241 17.191161204475318 a42.52178910473812,42.52178910473812 0 0,0 -0.5808704622480012,-0.4453867008645762 l 13.242025399803898 -16.965735161783375" fill="#feff18" stroke="none" /><path d="M 86.24171649860922 115.8653595955263 l -21.315372768916916 24.579814324757212 a53.534787359339305,53.534787359339305 0 0,0 -0.6910006428223172,-0.6097277260235886 l 21.735315764645822 -24.209263456961335" fill="#7cff26" stroke="none" /><path d="M 85.70375840098266 115.38237550388516 l -25.65091144247918 27.599698080944613 a58.67907366150616,58.67907366150616 0 0,0 -0.7339471391437764,-0.6939928307310601 l 26.122194416013777 -27.15407061346762" fill="#46ff2d" stroke="none" /><path d="M 85.18274418774928 114.88116024355367 l -19.46632199925923 19.5502771021936 a48.58896567382328,48.58896567382328 0 0,0 -0.5876011119867767,-0.5952368241542009 l 19.79996373630154 -19.212299784058736" fill="#b5ff20" stroke="none" /><path d="M 83.95833913139862 113.55231037782056 l -23.017533175199702 19.44566440328226 a51.13205432021683,51.13205432021683 0 0,0 -0.5622188512475739,-0.6772288242769517 l 23.348848026340814 -19.04657432189155" fill="#97ff23" stroke="none" /><path d="M 83.50135304334701 112.99209946851258 l -25.59349360740434 20.153968720450376 a53.57620865320486,53.57620865320486 0 0,0 -0.5643186720662497,-0.7294579545681544 l 25.93661909668866 -19.710432771768968" fill="#7cff26" stroke="none" /><path d="M 83.28015986056508 112.70617746262583 l -23.763806223351477 18.05921208236869 a50.84717117679613,50.84717117679613 0 0,0 -0.5235775184480275,-0.7014176477763515 l 24.07114500849459 -17.64748155508303" fill="#9aff22" stroke="none" /><path d="M 82.44556493220864 111.52570212397912 l -27.130645811375306 17.813147551915847 a53.455818705566834,53.455818705566834 0 0,0 -0.49839949174992076,-0.7735270791969889 l 27.433250166502273 -17.34349887279741" fill="#7dff26" stroke="none" /><path d="M 82.05923443525364 110.91462005526583 l -23.57801169294348 14.34415038524201 a48.598501511259954,48.598501511259954 0 0,0 -0.4286367567758916,-0.7184198594965812 l 23.821429325417604 -13.936168431859317" fill="#b4ff20" stroke="none" /><line stroke="#e1ed5e" stroke-width="0.3" x1="26.63291911575756" x2="22.317208475507996" y1="142.92168965132927" y2="145.44649492493687" /><path d="M 25.769776987707644 143.4266507060508 a86.0,86.0 0 0,1 -11.730757126820373,-40.83630448921669" fill="none" id="id45" stroke="none" /><text fill="#e1ed5e" style="font-size:6.75px; font-family:Arial;" text-anchor="middle"><textPath startOffset="21.46611528233685" xlink:href="#id45">September</textPath></text><path d="M 81.51974371655577 109.97397251340807 l -34.82772142793413 18.796857083526735 a60.5764073164848,60.5764073164848 0 0,0 -0.48734438461275076,-0.9218719151607366 l 35.14611832077177 -18.19457015327987" fill="#32ff2f" stroke="none" /><path d="M 81.35079622478065 109.6543875284942 l -11.40874720031618 5.9061216775824565 a33.84685899164195,33.84685899164195 0 0,0 -0.26339517714146604,-0.5197036728070502 l 11.508721047243913 -5.708863793072721" fill="#ff8e0d" stroke="none" /><path d="M 81.18737489456691 109.33194174019688 l -4.4223857685658565 2.193710134212677 a25.936583842999248,25.936583842999248 0 0,0 -0.19495263305508231,-0.4016601671559863 l 4.459491658235658 -2.1172610110914056" fill="#ff1d02" stroke="none" /><path d="M 80.73074385275274 108.34839909993369 l -27.511962034190386 11.919548805025162 a50.98305686026877,50.98305686026877 0 0,0 -0.3419482635516999,-0.8082646851521036 l 27.713061278934394 -11.4442095942069" fill="#99ff23" stroke="none" /><path d="M 80.58989483394504 108.01547362559985 l -27.590768609698422 11.393708391020253 a50.85074711583489,50.85074711583489 0 0,0 -0.3271334761146653,-0.81191845969548 l 27.782804700070475 -10.917090563481967" fill="#9aff22" stroke="none" /><path d="M 80.45479744820244 107.68017299344265 l -30.211290084746988 11.871349687527085 a53.45999063444537,53.45999063444537 0 0,0 -0.3291753619957722,-0.859372997881374 l 30.41115972633627 -11.349553122812551" fill="#7dff26" stroke="none" /><path d="M 80.32549172779594 107.34259656027581 l -11.20680047898487 4.182417853103138 a32.96181407955045,32.96181407955045 0 0,0 -0.1938087786705186,-0.5332785213429548 l 11.277133518660614 -3.988891534754066" fill="#ff820c" stroke="none" /><path d="M 80.20201598880116 107.00284435728193 l -42.162336939289744 14.913451953396434 a65.72218359325113,65.72218359325113 0 0,0 -0.36807292385708806,-1.069792207845238 l 42.41280069409006 -14.185487042461899" fill="#36ff6a" stroke="none" /><path d="M 80.0844068197444 106.66101706037122 l -28.485365818618487 9.52728377063072 a51.036397950930166,51.036397950930166 0 0,0 -0.27148386339701497,-0.835541416985732 l 28.645141933031752 -9.035543453667186" fill="#98ff23" stroke="none" /><path d="M 79.86692584326677 105.97154293290107 l -28.616157566020444 8.487656288843686 a50.84836315647571,50.84836315647571 0 0,0 -0.24166862120502947,-0.8412801743592863 l 28.758018824111577 -7.993818638979803" fill="#9aff22" stroke="none" /><path d="M 79.76711848015287 105.62410040840567 l -28.73935671773037 7.9886311643229035 a50.828993486682464,50.828993486682464 0 0,0 -0.22706503126652744,-0.8449934516077298 l 28.87260982533867 -7.492746779539635" fill="#9bff22" stroke="none" /><path d="M 79.67330655649465 105.27499134158121 l -43.292617847378416 11.234890954301871 a65.72665351704957,65.72665351704957 0 0,0 -0.27476459657361196,-1.0975479808572755 l 43.47959375824709 -10.488015134047204" fill="#36ff6a" stroke="none" /><path d="M 79.58551787078972 104.9243191809786 l -12.174935149585643 2.936800762557204 a33.524130493394445,33.524130493394445 0 0,0 -0.1304877835333467,-0.5621379562790757 l 12.223683499049546 -2.7267941489295535" fill="#ff8a0c" stroke="none" /><path d="M 79.50377843672027 104.57218783832718 l -41.956889078849564 9.359519138105062 a63.98815115437556,63.98815115437556 0 0,0 -0.23055833177817203,-1.0770917692467337 l 42.11178144935217 -8.635913549442165" fill="#33ff56" stroke="none" /><path d="M 79.4281124754447 104.21870165774334 l -42.993379558136745 8.816703931391976 a64.88809581246187,64.88809581246187 0 0,0 -0.21496519879782616,-1.0961029174366748 l 43.138774689910235 -8.075337286887345" fill="#34ff60" stroke="none" /><path d="M 79.35854240842038 103.8639653848113 l -44.0801781707653 8.251562751926631 a65.84585148500803,65.84585148500803 0 0,0 -0.1989596920918654,-1.1158716135961873 l 44.215684305196355 -7.49157238759723" fill="#36ff6c" stroke="none" /><path d="M 79.29508885075956 103.50808413554451 l -29.551456177743365 5.006976067278772 a50.9726270380724,50.9726270380724 0 0,0 -0.1391267408294546,-0.8663423479518727 l 29.63326467293411 -4.497554489633686" fill="#99ff23" stroke="none" /><path d="M 79.23777060512086 103.15116336523772 l -38.77240496935606 5.884636943262472 a60.21642945325028,60.21642945325028 0 0,0 -0.1467157503508366,-1.0261296162389706 l 38.86795477072349 -5.2163618550431" fill="#36ff2e" stroke="none" /><path d="M 79.18660465613746 102.79330883721812 l -24.99993844668856 3.3551733313726975 a46.224077989527615,46.224077989527615 0 0,0 -0.09904827361832046,-0.7895121952037015 l 25.05398822955373 -2.9243433818815876" fill="#d1ff1d" stroke="none" /><path d="M 79.10278846688536 102.07522291339032 l -29.681803698075953 2.9475874830185966 a50.82780150700288,50.82780150700288 0 0,0 -0.07896559735784035,-0.8713787867466797 l 29.72814389171087 -2.436227307723351" fill="#9bff22" stroke="none" /><path d="M 79.07016306316243 101.71520430193888 l -35.67436666863223 2.9235214475697893 a56.793957798243255,56.793957798243255 0 0,0 -0.07146151486200451,-0.9750355938540944 l 35.719404742158574 -2.309012717218934" fill="#59ff2a" stroke="none" /><path d="M 79.04373962182676 101.35467743843564 l -32.7667758693615 2.1181456614622753 a53.8351662385946,53.8351662385946 0 0,0 -0.051819293345635946,-0.9252682929186831 l 32.79838151359467 -1.5538056522081547" fill="#79ff26" stroke="none" /><line stroke="#e1ed5e" stroke-width="0.3" x1="15.007084014347285" x2="10.007500721073583" y1="101.09737516637583" y2="101.16192664675087" /><path d="M 14.007167355692545 101.11028546245083 a86.0,86.0 0 0,1 10.666146001902534,-42.60595125391555" fill="none" id="id46" stroke="none" /><text fill="#e1ed5e" style="font-size:6.75px; font-family:Arial;" text-anchor="middle"><textPath startOffset="22.20632615414155" xlink:href="#id46">October</textPath></text><path d="M 79.00175016825051 100.2711162175752 l -53.12478841300374 0.6859139123223116 a74.12921627336068,74.12921627336068 0 0,0 -0.00549157250873736,-1.2760480510004644 l 53.12872428280198 0.22864361688182813" fill="#40ffc9" stroke="none" /><path d="M 79.00019446554 99.90962569577889 l -9.729146044395344 -0.04187014032034957 a30.729236139688666,30.729236139688666 0 0,0 0.0068291964924745265,-0.5289287943807258 l 9.726983840785154 0.20933519276154736" fill="#ff6309" stroke="none" /><path d="M 79.00486145842228 99.54816195383935 l -37.049473382718006 -0.7973446629740729 a58.05805224844262,58.05805224844262 0 0,0 0.030102562485293638,-0.9989574980819879 l 37.030259125777064 1.434972308481055" fill="#4cff2c" stroke="none" /><path d="M 79.01574976396665 99.18683210126434 l -39.80072448310214 -1.5423315644847524 a60.8305969831562,60.8305969831562 0 0,0 0.04955200111352455,-1.0459644261004568 l 39.76827887375511 2.2272070972082183" fill="#30ff2f" stroke="none" /><path d="M 79.03285615573316 98.82574320788736 l -44.69118846844283 -2.5029127475082813 a65.7612209277575,65.7612209277575 0 0,0 0.07302441937445336,-1.1296554463496984 l 44.64148345806396 3.2718272581109917" fill="#36ff6b" stroke="none" /><path d="M 79.05617556472873 98.46500227214037 l -45.32622713275094 -3.3220129339916897 a66.4478012231982,66.4478012231982 0 0,0 0.09342407762735143,-1.1400103815648701 l 45.26232857130409 4.1017372327643375" fill="#36ff73" stroke="none" /><path d="M 79.12142395522702 97.74499172005258 l -36.57743071492711 -3.9505763680667085 a57.790154815456,57.790154815456 0 0,0 0.11533166610398606,-0.9880912833173866 l 36.504008695819536 4.579611389708957" fill="#4fff2b" stroke="none" /><line stroke="#e1ed5e" stroke-width="0.3" x1="26.266209847984243" x2="21.928928074336255" y1="57.711370442889674" y2="55.22380399835377" /><path d="M 25.398753493254645 57.213857153982495 a86.0,86.0 0 0,1 29.58750427330803,-30.492523968695096" fill="none" id="id47" stroke="none" /><text fill="#e1ed5e" style="font-size:6.75px; font-family:Arial;" text-anchor="middle"><textPath startOffset="21.46611528233685" xlink:href="#id47">November</textPath></text><line stroke="#e1ed5e" stroke-width="0.3" x1="56.762969772571076" x2="54.21961505331055" y1="26.818313649435495" y2="22.513508569990535" /><path d="M 56.25429882871897 25.957352633546506 a86.0,86.0 0 0,1 42.265352541879196,-11.944610805530505" fill="none" id="id48" stroke="none" /><text fill="#e1ed5e" style="font-size:6.75px; font-family:Arial;" text-anchor="middle"><textPath startOffset="22.20632615414155" xlink:href="#id48">December</textPath></text></svg>